<svg width="50" height="43" viewBox="0 0 50 43" fill="none" xmlns="http://www.w3.org/2000/svg">
<path d="M32.8563 16.7762C32.7871 15.6378 32.0043 14.5112 30.5042 13.6422C27.3585 11.8203 22.2585 11.8203 19.1131 13.6422C17.5404 14.5532 16.7539 15.7475 16.7539 16.9414V19.1407C16.7539 20.3347 17.5404 21.5287 19.1131 22.4396C22.2585 24.2618 27.3585 24.2618 30.5042 22.4396C32.0765 21.5287 32.863 20.3347 32.863 19.1407V16.7762H32.8563Z" fill="white"/>
<path d="M30.504 20.2403C27.3583 22.0622 22.2586 22.0622 19.1129 20.2403C15.9676 18.4184 15.9676 15.4642 19.1129 13.6423C22.2586 11.8204 27.3583 11.8204 30.504 13.6423C33.6494 15.4642 33.6494 18.4184 30.504 20.2403Z" fill="#A7B2BA"/>
<path d="M32.8563 13.9083C32.7871 12.7695 32.0043 11.6429 30.5042 10.774C27.3585 8.95206 22.2585 8.95206 19.1131 10.774C17.5404 11.6852 16.7539 12.8792 16.7539 14.0731V16.2725C16.7539 17.4664 17.5404 18.6604 19.1131 19.5716C22.2585 21.3935 27.3585 21.3935 30.5042 19.5716C32.0765 18.6604 32.863 17.4664 32.863 16.2725V13.9083H32.8563Z" fill="white"/>
<path d="M30.504 17.372C27.3583 19.1943 22.2586 19.1943 19.1129 17.372C15.9676 15.5501 15.9676 12.5962 19.1129 10.774C22.2586 8.95212 27.3583 8.95212 30.504 10.774C33.6494 12.5962 33.6494 15.5501 30.504 17.372Z" fill="#A7B2BA"/>
<path d="M32.8563 11.0116C32.7871 9.87318 32.0043 8.74659 30.5042 7.87728C27.3585 6.05539 22.2585 6.05539 19.1131 7.87728C17.5404 8.78857 16.7539 9.98252 16.7539 11.1765V13.3758C16.7539 14.5698 17.5404 15.7637 19.1131 16.675C22.2585 18.4969 27.3585 18.4969 30.5042 16.6746C32.0765 15.7637 32.863 14.5698 32.863 13.3758V11.0116H32.8563Z" fill="white"/>
<path d="M30.504 14.4754C27.3583 16.2977 22.2586 16.2977 19.1129 14.4754C15.9676 12.6535 15.9676 9.69964 19.1129 7.87741C22.2586 6.05551 27.3583 6.05551 30.504 7.87741C33.6494 9.6993 33.6494 12.6535 30.504 14.4754Z" fill="#A7B2BA"/>
<path d="M32.8563 8.14308C32.7871 7.00465 32.0043 5.87806 30.5042 5.00875C27.3585 3.18686 22.2585 3.18686 19.1131 5.00875C17.5404 5.92004 16.7539 7.11399 16.7539 8.30793V10.5073C16.7539 11.7012 17.5404 12.8955 19.1131 13.8064C22.2585 15.6283 27.3585 15.6283 30.5042 13.8064C32.0765 12.8955 32.863 11.7012 32.863 10.5073V8.14308H32.8563Z" fill="white"/>
<path d="M30.504 11.607C27.3583 13.4289 22.2586 13.4289 19.1129 11.607C15.9676 9.78474 15.9676 6.83084 19.1129 5.00895C22.2586 3.18671 27.3583 3.18671 30.504 5.00895C33.6494 6.83084 33.6494 9.78474 30.504 11.607Z" fill="#A7B2BA"/>
<path d="M32.8563 5.24626C32.7871 4.10783 32.0043 2.98125 30.5042 2.11228C27.3585 0.290047 22.2585 0.290047 19.1131 2.11228C17.5404 3.02323 16.7539 4.21717 16.7539 5.41112V7.61046C16.7539 8.80474 17.5404 9.99869 19.1131 10.9096C22.2585 12.7315 27.3585 12.7315 30.5042 10.9096C32.0765 9.99869 32.863 8.80474 32.863 7.61046V5.24626H32.8563Z" fill="white"/>
<path d="M30.504 8.7103C27.3583 10.5322 22.2586 10.5322 19.1129 8.7103C15.9676 6.88806 15.9676 3.93417 19.1129 2.11228C22.2586 0.290047 27.3583 0.290047 30.504 2.11228C33.6494 3.93417 33.6494 6.88806 30.504 8.7103Z" fill="#A7B2BA"/>
<path d="M29.9078 8.36454C27.0914 9.99551 22.5258 9.99551 19.7094 8.36454C16.8934 6.73323 16.8934 4.08874 19.7094 2.45743C22.5258 0.82612 27.0914 0.82612 29.9078 2.45743C32.7238 4.08874 32.7238 6.73323 29.9078 8.36454Z" fill="white"/>
<path d="M19.8985 10.3628C19.8985 10.6787 19.6772 10.8066 19.4045 10.6489C19.1319 10.4908 18.9109 10.1066 18.9109 9.79074C18.9109 9.47457 19.1319 9.34662 19.4045 9.50471C19.6772 9.66279 19.8985 10.0467 19.8985 10.3628Z" fill="white"/>
<path d="M18.4429 15.0079C18.4429 15.2679 18.2607 15.3735 18.036 15.2435C17.8113 15.1132 17.6294 14.797 17.6294 14.5367C17.6294 14.2764 17.8113 14.1711 18.036 14.3011C18.2607 14.4314 18.4426 14.7476 18.4429 15.0079Z" fill="#C5BFF0"/>
<path d="M29.8801 10.1326C29.8801 10.4484 30.1011 10.5764 30.3738 10.4187C30.6467 10.2606 30.8677 9.87635 30.8677 9.56052C30.8677 9.24434 30.6467 9.11639 30.3738 9.27448C30.1011 9.43257 29.8801 9.81644 29.8801 10.1326Z" fill="white"/>
<path d="M31.1155 9.28062C31.1155 9.51555 31.2798 9.61101 31.4826 9.49355C31.6857 9.37608 31.85 9.09004 31.85 8.85511C31.85 8.62018 31.6857 8.52472 31.4826 8.64218C31.2798 8.75999 31.1155 9.04569 31.1155 9.28062Z" fill="white"/>
<path d="M29.8801 15.9705C29.8801 16.2867 30.1011 16.4146 30.3738 16.2565C30.6467 16.0988 30.8677 15.7146 30.8677 15.3984C30.8677 15.0826 30.6467 14.9546 30.3738 15.1123C30.1011 15.2704 29.8801 15.6546 29.8801 15.9705Z" fill="white"/>
<path d="M31.1155 15.1188C31.1155 15.3538 31.2798 15.4492 31.4826 15.3314C31.6857 15.2139 31.85 14.9282 31.85 14.6933C31.85 14.458 31.6857 14.3629 31.4826 14.4804C31.2798 14.5978 31.1155 14.8836 31.1155 15.1188Z" fill="white"/>
<path d="M28.5791 10.6599C28.5794 10.8681 28.7438 10.9852 28.9459 10.9219C29.1483 10.8583 29.312 10.6386 29.312 10.4307C29.3116 10.2226 29.1473 10.1054 28.9449 10.1687C28.7424 10.232 28.5788 10.4521 28.5791 10.6599Z" fill="white"/>
<path d="M24.8084 15.8418C23.5364 15.8418 22.264 15.6685 21.1067 15.3215C20.7851 15.1353 20.4841 14.9498 20.2024 14.7653V14.3358C21.5817 14.894 23.1949 15.1729 24.8084 15.1729V15.8418Z" fill="#A7B2BA"/>
<path d="M24.8084 15.1733C23.1949 15.1733 21.5817 14.894 20.2024 14.3358V12.1368C21.5817 12.6947 23.1949 12.9736 24.8084 12.9736V15.1733Z" fill="white"/>
<path d="M24.8084 12.9739C23.1949 12.9739 21.5817 12.6949 20.2024 12.1367V11.439C21.5814 11.9969 23.1952 12.2762 24.8084 12.2762V12.9739Z" fill="#A7B2BA"/>
<path d="M24.8084 12.2763C23.1952 12.2763 21.5814 11.997 20.2024 11.4391V9.23981C20.4224 9.3285 20.6485 9.41042 20.8792 9.48557C22.0963 9.87961 23.4523 10.077 24.8084 10.077V12.2763Z" fill="white"/>
<path d="M24.8083 10.0764C23.4523 10.0764 22.0959 9.87942 20.8792 9.48505C22.0962 9.87942 23.4519 10.0764 24.8083 10.0764Z" fill="#C3BFE1"/>
<path d="M16.7539 16.9417C16.7539 16.9312 16.7539 16.9207 16.7542 16.9099C16.7542 16.9095 16.7542 16.9088 16.7542 16.9085C16.7539 16.9193 16.7539 16.9302 16.7539 16.9413V16.9417Z" fill="white"/>
<path d="M16.7539 16.9411C16.7539 16.9303 16.7539 16.9194 16.7542 16.9083C16.7556 16.8128 16.7637 16.7177 16.7748 16.6226C16.7627 16.7258 16.7546 16.8287 16.7542 16.9323L16.7539 16.9411Z" fill="white"/>
<path d="M16.7542 16.3034C16.7539 16.2933 16.7539 16.2828 16.7539 16.2723V16.1462V16.1458V16.2723C16.7539 16.2825 16.7539 16.2933 16.7542 16.3034Z" fill="url(#paint0_linear_2731_29809)"/>
<path d="M16.7762 16.602C16.764 16.5028 16.7556 16.4033 16.7542 16.3041C16.7539 16.2936 16.7539 16.2831 16.7539 16.2726C16.7539 16.3826 16.7627 16.4923 16.7762 16.602ZM16.7539 16.2726V16.146V14.6345V14.5665V14.1244V14.0733C16.7539 14.0723 16.7539 14.0709 16.7539 14.0699C16.7539 14.0601 16.7539 14.0503 16.7542 14.0401C16.7542 14.0398 16.7542 14.0391 16.7542 14.0388C16.7539 14.0503 16.7539 14.0621 16.7539 14.0733V16.2726Z" fill="white"/>
<path d="M16.7539 14.0728C16.7539 14.0616 16.7539 14.0501 16.7542 14.0386C16.7556 13.9407 16.764 13.8429 16.7758 13.7454C16.7634 13.8487 16.7553 13.9519 16.7546 14.0555L16.7539 14.0728Z" fill="white"/>
<path d="M16.7785 13.7241C16.765 13.6189 16.7556 13.5136 16.7542 13.4083C16.7539 13.3971 16.7539 13.3863 16.7539 13.3755C16.7539 13.4919 16.7637 13.608 16.7785 13.7241ZM16.7539 13.3755V11.1761C16.7539 11.1656 16.7539 11.1551 16.7542 11.1443C16.7542 11.144 16.7542 11.1433 16.7542 11.1429C16.7526 11.2709 16.76 11.3995 16.7765 11.5272C16.7691 11.5153 16.7613 11.5035 16.7539 11.4916V13.3755Z" fill="white"/>
<path d="M20.2025 14.7654C19.1724 14.0911 18.4014 13.4327 17.8247 12.8345C18.1706 13.1822 18.5998 13.5092 19.113 13.8067C19.4548 14.0044 19.8195 14.1811 20.2025 14.3358V14.7654ZM17.6338 12.6307C17.2656 12.2272 16.9873 11.8545 16.7767 11.5275C16.7602 11.3999 16.7524 11.2713 16.7541 11.1433C16.7558 11.0458 16.7639 10.9487 16.7757 10.8515C16.8533 11.4646 17.1395 12.0705 17.6338 12.6307Z" fill="#A7B2BA"/>
<path d="M20.2026 14.3357C19.8196 14.181 19.4549 14.0042 19.1131 13.8065C18.5999 13.509 18.1704 13.182 17.8249 12.8343C17.7584 12.7656 17.6946 12.6976 17.6335 12.6305C17.1392 12.0703 16.8534 11.4644 16.7758 10.8513C16.7762 10.8483 16.7765 10.8449 16.7769 10.8418C16.7644 10.7409 16.7556 10.6397 16.7542 10.5389C16.7539 10.5284 16.7539 10.5179 16.7539 10.5074V8.30803C16.7539 8.2972 16.7539 8.28602 16.7542 8.27485C16.7542 8.27485 16.7542 8.27418 16.7542 8.2735C16.7387 9.47895 17.5252 10.6875 19.1131 11.6072C19.4549 11.8052 19.8196 11.9816 20.2026 12.1367V14.3357Z" fill="white"/>
<path d="M20.2025 12.1364C19.8195 11.9817 19.4548 11.805 19.113 11.6073C17.5251 10.6876 16.7389 9.47909 16.7541 8.27363C16.7558 8.17174 16.7646 8.06985 16.7774 7.96796C16.9188 9.04038 17.6975 10.0894 19.113 10.9097C19.4548 11.1074 19.8195 11.2837 20.2025 11.4388V12.1364Z" fill="#A7B2BA"/>
<path d="M20.2026 11.4386C19.8196 11.2839 19.4549 11.1072 19.1131 10.9095C17.6973 10.0893 16.9189 9.04019 16.7775 7.96778C16.7779 7.96507 16.7782 7.96202 16.7785 7.95931C16.765 7.85404 16.7556 7.74875 16.7542 7.64313C16.7539 7.6323 16.7539 7.62113 16.7539 7.6103V5.42822C16.7617 6.61641 17.5478 7.80359 19.1131 8.71014C19.1192 8.71352 19.1252 8.71691 19.131 8.72029C19.1317 8.72063 19.1323 8.72131 19.1323 8.72131C19.1347 8.72266 19.1371 8.72368 19.1394 8.72504C19.1404 8.72605 19.1418 8.72672 19.1435 8.7274C19.1445 8.72808 19.1455 8.72876 19.1462 8.7291C19.4785 8.91934 19.8321 9.08927 20.2026 9.23924V11.4386ZM19.1843 9.43693C19.0223 9.43693 18.911 9.56625 18.911 9.79035C18.911 10.1065 19.132 10.4907 19.4046 10.6485C19.4839 10.6945 19.5588 10.7162 19.6253 10.7162C19.7872 10.7162 19.8986 10.5865 19.8986 10.3624C19.8986 10.0466 19.6773 9.66239 19.4046 9.5043C19.3253 9.4586 19.2504 9.43693 19.1843 9.43693Z" fill="white"/>
<path d="M19.6252 10.7162C19.5587 10.7162 19.4838 10.6946 19.4045 10.6485C19.1319 10.4908 18.9109 10.1062 18.9109 9.7904C18.9109 9.5663 19.0222 9.43665 19.1842 9.43665C19.2503 9.43665 19.3252 9.45865 19.4045 9.50435C19.6772 9.66244 19.8985 10.0467 19.8985 10.3625C19.8985 10.5866 19.7871 10.7162 19.6252 10.7162Z" fill="white"/>
<path d="M20.1685 22.9553C19.8007 22.805 19.4502 22.6347 19.1208 22.4445C19.4502 22.6347 19.8011 22.805 20.1685 22.9553Z" fill="white"/>
<path d="M19.1209 22.4449L19.1206 22.4445C19.1182 22.4432 19.1155 22.4415 19.1128 22.4401C19.1155 22.4418 19.1182 22.4432 19.1209 22.4449Z" fill="#736CAC"/>
<path d="M20.2025 15.0048C19.8195 14.8497 19.4548 14.6734 19.113 14.4757C17.6945 13.6538 16.9157 12.6023 16.7764 11.5275C16.9869 11.8545 17.2653 12.2272 17.6334 12.6308C17.6941 12.6991 17.7579 12.7672 17.8247 12.8345C18.401 13.4327 19.1723 14.0911 20.2025 14.7658V15.0048Z" fill="#A7B2BA"/>
<path d="M17.825 12.8335C17.7582 12.7664 17.6944 12.6985 17.634 12.6304C17.6951 12.6972 17.7589 12.765 17.825 12.8335Z" fill="white"/>
<path d="M18.2175 15.2992C18.1628 15.2992 18.1014 15.2812 18.036 15.2437C17.8113 15.1133 17.6294 14.7972 17.6294 14.5369C17.6294 14.3524 17.7208 14.2457 17.8544 14.2457C17.9091 14.2457 17.9709 14.2633 18.036 14.3012C18.2607 14.4312 18.4426 14.7478 18.4429 15.0081C18.4429 15.1926 18.3511 15.2992 18.2175 15.2992Z" fill="white"/>
<path d="M16.1024 24.534C16.0335 23.3956 15.2504 22.269 13.7503 21.4001C10.6046 19.5782 5.50456 19.5782 2.35919 21.4001C0.786511 22.311 0 23.5049 0 24.6989V26.8982C0 28.0925 0.786511 29.2865 2.35919 30.1974C5.50456 32.0193 10.6046 32.0193 13.7503 30.1974C15.3229 29.2865 16.1091 28.0925 16.1091 26.8982V24.534H16.1024Z" fill="white"/>
<path d="M13.7503 27.9983C10.6046 29.8202 5.50497 29.8202 2.35927 27.9983C-0.786097 26.1761 -0.786097 23.2222 2.35927 21.4003C5.50497 19.5781 10.605 19.5781 13.7503 21.4003C16.8957 23.2222 16.8957 26.1761 13.7503 27.9983Z" fill="#A7B2BA"/>
<path d="M16.1024 21.6658C16.0335 20.5274 15.2504 19.4008 13.7503 18.5318C10.6046 16.7099 5.50456 16.7099 2.35919 18.5318C0.786511 19.4428 0 20.6367 0 21.831V24.03C0 25.2243 0.786511 26.4182 2.35919 27.3292C5.50456 29.1511 10.6046 29.1511 13.7503 27.3292C15.3229 26.4182 16.1091 25.2243 16.1091 24.03V21.6658H16.1024Z" fill="white"/>
<path d="M13.7503 25.1301C10.6046 26.952 5.50497 26.952 2.35927 25.1301C-0.786097 23.3082 -0.786097 20.354 2.35927 18.5321C5.50497 16.7098 10.605 16.7098 13.7503 18.5321C16.8957 20.354 16.8957 23.3079 13.7503 25.1301Z" fill="#A7B2BA"/>
<path d="M16.1024 18.7688C16.0335 17.6303 15.2504 16.5038 13.7503 15.6348C10.6046 13.8129 5.50456 13.8129 2.35919 15.6348C0.786511 16.5457 0 17.7397 0 18.9336V21.133C0 22.3273 0.786511 23.5212 2.35919 24.4322C5.50456 26.254 10.6046 26.254 13.7503 24.4322C15.3229 23.5212 16.1091 22.3273 16.1091 21.133V18.7688H16.1024Z" fill="white"/>
<path d="M13.7503 22.2328C10.6046 24.055 5.50497 24.055 2.35927 22.2328C-0.786097 20.4109 -0.786097 17.4567 2.35927 15.6348C5.50497 13.8129 10.605 13.8129 13.7503 15.6348C16.8957 17.4567 16.8957 20.4109 13.7503 22.2328Z" fill="#A7B2BA"/>
<path d="M16.1024 15.9005C16.0335 14.7621 15.2504 13.6355 13.7503 12.7666C10.6046 10.9447 5.50456 10.9447 2.35919 12.7666C0.786511 13.6779 0 14.8715 0 16.0654V18.2651C0 19.459 0.786511 20.653 2.35919 21.5639C5.50456 23.3862 10.6046 23.3862 13.7503 21.5639C15.3229 20.653 16.1091 19.459 16.1091 18.2651V15.9005H16.1024Z" fill="white"/>
<path d="M13.7503 19.3646C10.6046 21.1868 5.50497 21.1868 2.35927 19.3646C-0.786097 17.5427 -0.786097 14.5888 2.35927 12.7666C5.50497 10.9447 10.605 10.9447 13.7503 12.7666C16.8957 14.5888 16.8957 17.5427 13.7503 19.3646Z" fill="#A7B2BA"/>
<path d="M16.1024 13.0039C16.0335 11.8654 15.2504 10.7385 13.7503 9.86953C10.6046 8.04764 5.50456 8.04764 2.35919 9.86953C0.786511 10.7805 0 11.9748 0 13.1687V15.3681C0 16.562 0.786511 17.7559 2.35919 18.6669C5.50456 20.4891 10.6046 20.4891 13.7503 18.6669C15.3229 17.7559 16.1091 16.562 16.1091 15.3681V13.0035L16.1024 13.0039Z" fill="white"/>
<path d="M13.7503 16.4676C10.6046 18.2895 5.50497 18.2895 2.35927 16.4676C-0.786097 14.6457 -0.786097 11.6914 2.35927 9.86953C5.50497 8.04764 10.605 8.04764 13.7503 9.86953C16.8957 11.6914 16.8957 14.6457 13.7503 16.4676Z" fill="#A7B2BA"/>
<path d="M13.1538 16.1223C10.3377 17.7533 5.77184 17.7533 2.95579 16.1223C0.139738 14.491 0.139738 11.8462 2.95579 10.2152C5.77184 8.58393 10.3377 8.58393 13.1538 10.2152C15.9701 11.8462 15.9701 14.491 13.1538 16.1223Z" fill="white"/>
<path d="M3.14483 18.1205C3.14483 18.4364 2.92383 18.5647 2.65086 18.4066C2.37823 18.2488 2.15723 17.8643 2.15723 17.5484C2.15723 17.2326 2.37823 17.1043 2.65086 17.2624C2.92383 17.4205 3.14483 17.8047 3.14483 18.1205Z" fill="white"/>
<path d="M1.68972 22.7652C1.68972 23.0256 1.50752 23.1312 1.2828 23.0009C1.05842 22.8709 0.876221 22.5544 0.876221 22.2944C0.876221 22.0341 1.05842 21.9284 1.2828 22.0588C1.50752 22.1888 1.68972 22.5053 1.68972 22.7652Z" fill="#C5BFF0"/>
<path d="M13.1265 17.8898C13.1265 18.2059 13.3475 18.3339 13.6204 18.1758C13.8931 18.0181 14.1141 17.6335 14.1141 17.3177C14.1141 17.0018 13.8931 16.8735 13.6204 17.0316C13.3475 17.1897 13.1265 17.5739 13.1265 17.8898Z" fill="white"/>
<path d="M14.3613 17.0386C14.3613 17.2735 14.5256 17.369 14.7284 17.2512C14.9316 17.1337 15.0959 16.848 15.0959 16.6127C15.0959 16.3778 14.9316 16.2824 14.7284 16.4002C14.5256 16.5176 14.3613 16.8033 14.3613 17.0386Z" fill="white"/>
<path d="M13.1265 23.728C13.1265 24.0438 13.3475 24.1721 13.6204 24.014C13.8931 23.8559 14.1141 23.4717 14.1141 23.1559C14.1141 22.8397 13.8931 22.7117 13.6204 22.8698C13.3475 23.0276 13.1265 23.4118 13.1265 23.728Z" fill="white"/>
<path d="M14.3613 22.8771C14.3613 23.1117 14.5256 23.2071 14.7284 23.0897C14.9316 22.9722 15.0959 22.6862 15.0959 22.4512C15.0959 22.2163 14.9316 22.1208 14.7284 22.2383C14.5256 22.3561 14.3613 22.6418 14.3613 22.8771Z" fill="white"/>
<path d="M11.8259 18.4178C11.8263 18.6257 11.9906 18.7428 12.1927 18.6795C12.3951 18.6162 12.5591 18.3962 12.5588 18.1883C12.5585 17.9805 12.3941 17.863 12.1917 17.9267C11.9896 17.99 11.8256 18.2097 11.8259 18.4178Z" fill="white"/>
<path d="M8.05505 31.564C6.43243 31.564 4.80981 31.2816 3.42574 30.7173C4.80948 31.2816 6.43243 31.5636 8.05471 31.564H8.05505Z" fill="url(#paint1_linear_2731_29809)"/>
<path d="M8.05475 23.5996C6.7827 23.5996 5.51032 23.4263 4.35299 23.079C4.03144 22.8931 3.73047 22.7076 3.44873 22.5231V22.0936C4.82807 22.6518 6.44158 22.9307 8.05475 22.9307V23.5996Z" fill="#A7B2BA"/>
<path d="M8.05475 22.9305C6.44158 22.9305 4.82807 22.6515 3.44873 22.0933V19.894C4.82807 20.4522 6.44158 20.7311 8.05475 20.7311V22.9305Z" fill="white"/>
<path d="M8.05475 20.7314C6.44158 20.7314 4.82807 20.4524 3.44873 19.8942V19.1965C4.82774 19.7547 6.44158 20.0337 8.05475 20.0337V20.7314Z" fill="#A7B2BA"/>
<path d="M8.05475 20.0335C6.44158 20.0335 4.82774 19.7542 3.44873 19.1963V16.997C3.66872 17.086 3.89479 17.168 4.12558 17.2428C5.34263 17.6371 6.69869 17.8342 8.05475 17.8342V20.0335Z" fill="white"/>
<path d="M2.37741 16.4781C2.37134 16.4747 2.36527 16.4713 2.35919 16.4676C2.36527 16.4713 2.371 16.4747 2.37741 16.4781Z" fill="white"/>
<path d="M8.0549 17.8342C6.69884 17.8342 5.34244 17.6369 4.12573 17.2429C5.34278 17.6372 6.69884 17.8342 8.0549 17.8342Z" fill="#C3BFE1"/>
<path d="M0 24.6992C0 24.6887 2.38889e-06 24.6782 0.000339802 24.6677C0.000339802 24.667 0.000339802 24.6667 0.000339802 24.666C2.38889e-06 24.6772 0 24.688 0 24.6992Z" fill="white"/>
<path d="M0 24.6989C0 24.6878 2.38889e-06 24.6769 0.000339802 24.6658C0.00168945 24.5706 0.00978378 24.4755 0.0209184 24.3801C0.00877154 24.4833 0.000677215 24.5866 0.000339802 24.6898L0 24.6989Z" fill="white"/>
<path d="M0 21.8276C0 21.8174 2.38889e-06 21.8076 0.000339802 21.7978C2.38889e-06 21.8076 0 21.8178 0 21.8276Z" fill="url(#paint2_linear_2731_29809)"/>
<path d="M0.0222673 24.3595C0.0101205 24.2603 0.00168945 24.1611 0.000339802 24.0616C2.38889e-06 24.0511 0 24.0406 0 24.0301C0 24.1402 0.00910821 24.2498 0.0222673 24.3595ZM0 24.0301V23.9035V22.3924V22.324V21.8819V21.8311C0 21.8298 0 21.8288 0 21.8277C0 21.8179 2.38889e-06 21.8078 0.000339802 21.7979C0.000339802 21.7973 0.000339802 21.7969 0.000339802 21.7963C2.38889e-06 21.8078 0 21.8193 0 21.8308V21.8311V24.0301Z" fill="white"/>
<path d="M0 21.8304C0 21.8189 2.38889e-06 21.8073 0.000339802 21.7958C0.00168945 21.698 0.0101232 21.6005 0.0219327 21.5027C0.00944839 21.6059 0.00134928 21.7095 0.000674455 21.8128L0 21.8304Z" fill="white"/>
<path d="M3.44897 16.9973C3.07849 16.8473 2.72488 16.6774 2.39287 16.4871C2.39287 16.4871 2.3932 16.4871 2.3932 16.4875C2.72522 16.6774 3.07849 16.8473 3.44897 16.9973ZM2.38983 16.4854C2.38814 16.4848 2.38713 16.4838 2.38578 16.4831C2.3868 16.4838 2.38814 16.4844 2.38916 16.4851C2.38949 16.4851 2.38949 16.4851 2.38983 16.4854ZM2.37869 16.479C2.37836 16.479 2.37802 16.4787 2.37769 16.4783C2.37802 16.4783 2.37869 16.4787 2.37869 16.479Z" fill="white"/>
<path d="M3.44897 16.9973C3.07849 16.8473 2.72522 16.6774 2.3932 16.4875C2.72488 16.677 3.07917 16.8456 3.44897 16.9956V16.9973ZM2.37836 16.479C2.37836 16.4787 2.37802 16.4783 2.37769 16.4783C2.37802 16.4787 2.37836 16.4787 2.37836 16.479Z" fill="#B8B5D5"/>
<path d="M0.0246305 21.482C0.011134 21.3767 0.00168945 21.2714 0.000339802 21.1658C2.38889e-06 21.155 0 21.1441 0 21.133C0 21.2494 0.00978432 21.3659 0.0246305 21.482ZM0 21.133V18.9336C0 18.9231 2.38889e-06 18.9126 0.000339802 18.9021C0.000339802 18.9015 0.000339802 18.9011 0.000339802 18.9005C-0.00134726 19.0287 0.0064113 19.1571 0.0226071 19.2847C0.015184 19.2728 0.00742309 19.261 0 19.2495V21.133Z" fill="white"/>
<path d="M3.44876 22.523C2.41898 21.8486 1.64765 21.1902 1.07101 20.5917C1.41686 20.9394 1.84605 21.2667 2.35925 21.564C2.70105 21.762 3.06613 21.9384 3.44876 22.0934V22.523ZM0.880034 20.3879C0.511916 19.9844 0.233553 19.6121 0.0230068 19.2847C0.0064736 19.1571 -0.000949943 19.0288 0.000399709 18.9005C0.00208677 18.8034 0.0101831 18.7059 0.0219926 18.6087C0.0995976 19.2218 0.385724 19.8277 0.880034 20.3879Z" fill="#A7B2BA"/>
<path d="M3.4487 22.0935C3.06574 21.9384 2.70099 21.7621 2.35919 21.5641C1.84599 21.2668 1.4168 20.9395 1.07095 20.5918C1.00481 20.5231 0.941043 20.4551 0.879634 20.388C0.385661 19.8278 0.0995377 19.2219 0.0219327 18.6088C0.0222701 18.6058 0.0226095 18.6027 0.0229469 18.5997C0.0104626 18.4984 0.00168945 18.3976 0.000339802 18.2964C2.38889e-06 18.2859 0 18.2754 0 18.2652V16.0655C0 16.0547 2.38889e-06 16.0435 0.000339802 16.0327C0.000339802 16.0327 0.000339802 16.0317 0.000339802 16.031C-0.0151812 17.2368 0.771328 18.445 2.35919 19.3647C2.70099 19.5627 3.06574 19.7391 3.4487 19.8941V22.0935Z" fill="white"/>
<path d="M3.44882 19.8943C3.06619 19.7392 2.70111 19.5628 2.35931 19.3648C0.771448 18.4451 -0.0147237 17.2369 0.000459907 16.0315C0.00214697 15.9296 0.0109198 15.8277 0.0237415 15.7258C0.165118 16.7982 0.943866 17.8472 2.35931 18.6671C2.70111 18.8652 3.06619 19.0415 3.44882 19.1966V19.8943Z" fill="#A7B2BA"/>
<path d="M3.4487 19.1964C3.06574 19.0414 2.70099 18.865 2.35919 18.667C0.943408 17.8471 0.164997 16.7977 0.0236214 15.7256C0.0239588 15.7226 0.0242931 15.7199 0.0246305 15.7168C0.011134 15.6115 0.00168945 15.5063 0.000339802 15.401C2.38889e-06 15.3898 0 15.379 0 15.3681V13.1857C0.0077605 14.3743 0.793934 15.5611 2.35919 16.4676C2.36527 16.4714 2.37134 16.4747 2.37741 16.4781L2.37842 16.4788C2.38078 16.4802 2.38315 16.4815 2.38551 16.4829C2.38686 16.4836 2.38787 16.4842 2.38956 16.4852C2.39057 16.4856 2.39158 16.4863 2.3926 16.4869C2.72461 16.6772 3.07822 16.8471 3.4487 16.9971V19.1964ZM2.43039 17.1944C2.26843 17.1944 2.15708 17.3241 2.15708 17.5482C2.15708 17.864 2.37809 18.2482 2.65072 18.4063C2.73001 18.452 2.80491 18.474 2.87138 18.474C3.03334 18.474 3.14469 18.3444 3.14469 18.1203C3.14469 17.8044 2.92368 17.4202 2.65072 17.2621C2.57143 17.2161 2.49652 17.1944 2.43039 17.1944Z" fill="white"/>
<path d="M2.87153 18.4743C2.80506 18.4743 2.73015 18.4523 2.65086 18.4066C2.37823 18.2485 2.15723 17.8643 2.15723 17.5485C2.15723 17.3244 2.26857 17.1947 2.43053 17.1947C2.49666 17.1947 2.57157 17.2164 2.65086 17.2624C2.92383 17.4205 3.14483 17.8047 3.14483 18.1205C3.14483 18.3446 3.03348 18.4743 2.87153 18.4743Z" fill="white"/>
<path d="M3.41485 30.7131C3.04707 30.5628 2.6965 30.3925 2.36719 30.2023C2.6965 30.3925 3.04741 30.5628 3.41485 30.7131Z" fill="white"/>
<path d="M0.0234375 21.4909C0.0241123 21.4879 0.0241092 21.4852 0.0244466 21.4821V21.4825C0.0241092 21.4852 0.0241123 21.4879 0.0234375 21.4909Z" fill="white"/>
<path d="M3.44904 22.7626C3.06608 22.6075 2.70133 22.4312 2.35954 22.2331C0.941051 21.4116 0.162301 20.3598 0.0229492 19.2853C0.233495 19.6123 0.512198 19.9847 0.880316 20.3882C0.940713 20.4569 1.00448 20.525 1.07129 20.592C1.64793 21.1905 2.41892 21.8489 3.44904 22.5232V22.7626Z" fill="#A7B2BA"/>
<path d="M1.07086 20.5914C1.00405 20.5246 0.94028 20.4567 0.879883 20.3882C0.940955 20.4551 1.00472 20.5229 1.07086 20.5914Z" fill="white"/>
<path d="M1.46466 23.0567C1.41 23.0567 1.34826 23.0388 1.2828 23.0009C1.05842 22.8709 0.876221 22.5544 0.876221 22.2944C0.876221 22.1096 0.967657 22.0029 1.10127 22.0029C1.15593 22.0029 1.21768 22.0209 1.2828 22.0588C1.50752 22.1888 1.68972 22.5053 1.68972 22.7653C1.68972 22.9498 1.59794 23.0567 1.46466 23.0567Z" fill="white"/>
<path d="M49.993 24.9009C49.9242 23.7624 49.141 22.6358 47.6409 21.7669C44.4952 19.945 39.3952 19.945 36.2498 21.7669C34.6771 22.6778 33.8906 23.8718 33.8906 25.0657V27.2651C33.8906 28.4593 34.6771 29.6533 36.2498 30.5642C39.3952 32.3861 44.4952 32.3861 47.6409 30.5642C49.2136 29.6533 49.9997 28.4593 49.9997 27.2651V24.9009H49.993Z" fill="white"/>
<path d="M47.6407 28.3648C44.495 30.1867 39.3953 30.1867 36.2496 28.3648C33.1043 26.5425 33.1043 23.5887 36.2496 21.7668C39.3953 19.9445 44.4953 19.9445 47.6407 21.7668C50.7861 23.5887 50.7861 26.5425 47.6407 28.3648Z" fill="#A7B2BA"/>
<path d="M49.993 22.0326C49.9242 20.8942 49.141 19.7676 47.6409 18.8986C44.4952 17.0768 39.3952 17.0768 36.2498 18.8986C34.6771 19.8096 33.8906 21.0035 33.8906 22.1978V24.3968C33.8906 25.5911 34.6771 26.7851 36.2498 27.696C39.3952 29.5179 44.4952 29.5179 47.6409 27.696C49.2136 26.7851 49.9997 25.5911 49.9997 24.3968V22.0326H49.993Z" fill="white"/>
<path d="M47.6407 25.4969C44.495 27.3188 39.3953 27.3188 36.2496 25.4969C33.1043 23.675 33.1043 20.7207 36.2496 18.8988C39.3953 17.0766 44.4953 17.0766 47.6407 18.8988C50.7861 20.7207 50.7861 23.6746 47.6407 25.4969Z" fill="#A7B2BA"/>
<path d="M49.993 19.1355C49.9242 17.9971 49.141 16.8705 47.6409 16.0016C44.4952 14.1797 39.3952 14.1797 36.2498 16.0016C34.6771 16.9125 33.8906 18.1064 33.8906 19.3004V21.4997C33.8906 22.694 34.6771 23.888 36.2498 24.7989C39.3952 26.6208 44.4952 26.6208 47.6409 24.7989C49.2136 23.888 49.9997 22.694 49.9997 21.4997V19.1355H49.993Z" fill="white"/>
<path d="M47.6407 22.5996C44.495 24.4219 39.3953 24.4219 36.2496 22.5996C33.1043 20.7777 33.1043 17.8235 36.2496 16.0016C39.3953 14.1797 44.4953 14.1797 47.6407 16.0016C50.7861 17.8235 50.7861 20.7777 47.6407 22.5996Z" fill="#A7B2BA"/>
<path d="M49.993 16.2672C49.9242 15.1288 49.141 14.0022 47.6409 13.1333C44.4952 11.3114 39.3952 11.3114 36.2498 13.1333C34.6771 14.0446 33.8906 15.2382 33.8906 16.4321V18.6318C33.8906 19.8257 34.6771 21.0197 36.2498 21.9306C39.3952 23.7529 44.4952 23.7529 47.6409 21.9306C49.2136 21.0197 49.9997 19.8257 49.9997 18.6318V16.2672H49.993Z" fill="white"/>
<path d="M47.6407 19.7313C44.495 21.5536 39.3953 21.5536 36.2496 19.7313C33.1043 17.9095 33.1043 14.9556 36.2496 13.1333C39.3953 11.3114 44.4953 11.3114 47.6407 13.1333C50.7861 14.9556 50.7861 17.9095 47.6407 19.7313Z" fill="#A7B2BA"/>
<path d="M49.993 13.3705C49.9242 12.2321 49.141 11.1051 47.6409 10.2362C44.4952 8.41428 39.3952 8.41428 36.2498 10.2362C34.6771 11.1471 33.8906 12.3414 33.8906 13.5353V15.7347C33.8906 16.9286 34.6771 18.1226 36.2498 19.0335C39.3952 20.8558 44.4952 20.8558 47.6409 19.0335C49.2136 18.1226 49.9997 16.9286 49.9997 15.7347V13.3702L49.993 13.3705Z" fill="white"/>
<path d="M47.6407 16.8344C44.495 18.6563 39.3953 18.6563 36.2496 16.8344C33.1043 15.0125 33.1043 12.0582 36.2496 10.2364C39.3953 8.41446 44.4953 8.41446 47.6407 10.2364C50.7861 12.0582 50.7861 15.0125 47.6407 16.8344Z" fill="#A7B2BA"/>
<path d="M47.0441 16.4892C44.2281 18.1201 39.6622 18.1201 36.8462 16.4892C34.0301 14.8579 34.0301 12.213 36.8462 10.5821C39.6622 8.95075 44.2281 8.95075 47.0441 10.5821C49.8605 12.213 49.8605 14.8579 47.0441 16.4892Z" fill="white"/>
<path d="M37.0352 18.4871C37.0352 18.8029 36.8142 18.9312 36.5412 18.7732C36.2686 18.6154 36.0476 18.2309 36.0476 17.915C36.0476 17.5992 36.2686 17.4709 36.5412 17.629C36.8142 17.7871 37.0352 18.1713 37.0352 18.4871Z" fill="white"/>
<path d="M35.5801 23.1321C35.5801 23.3924 35.3979 23.4981 35.1732 23.3677C34.9488 23.2377 34.7666 22.9212 34.7666 22.6613C34.7666 22.4009 34.9488 22.2953 35.1732 22.4257C35.3979 22.5556 35.5801 22.8721 35.5801 23.1321Z" fill="#C5BFF0"/>
<path d="M47.0168 18.2565C47.0168 18.5727 47.2379 18.7007 47.5108 18.5426C47.7834 18.3848 48.0045 18.0003 48.0045 17.6844C48.0045 17.3686 47.7834 17.2403 47.5108 17.3984C47.2379 17.5565 47.0168 17.9407 47.0168 18.2565Z" fill="white"/>
<path d="M47.0168 24.0947C47.0168 24.4106 47.2379 24.5388 47.5108 24.3808C47.7834 24.2227 48.0045 23.8385 48.0045 23.5226C48.0045 23.2064 47.7834 23.0785 47.5108 23.2366C47.2379 23.3943 47.0168 23.7785 47.0168 24.0947Z" fill="white"/>
<path d="M45.7168 18.7849C45.7171 18.9927 45.8815 19.1098 46.0836 19.0465C46.286 18.9832 46.45 18.7632 46.4497 18.5553C46.4493 18.3475 46.285 18.23 46.0826 18.2937C45.8804 18.357 45.7165 18.5767 45.7168 18.7849Z" fill="white"/>
<path d="M41.9454 31.9309C40.3228 31.9309 38.7002 31.6485 37.3161 31.0842C38.6999 31.6485 40.3228 31.9305 41.9451 31.9309H41.9454Z" fill="url(#paint3_linear_2731_29809)"/>
<path d="M41.9459 23.9664C40.6738 23.9664 39.4014 23.7931 38.2441 23.4458C37.9226 23.2599 37.6216 23.0744 37.3398 22.8899V22.4603C38.7192 23.0185 40.3327 23.2975 41.9459 23.2975V23.9664Z" fill="#A7B2BA"/>
<path d="M41.9459 23.2973C40.3327 23.2973 38.7192 23.0184 37.3398 22.4601V20.2608C38.7192 20.819 40.3327 21.098 41.9459 21.098V23.2973Z" fill="white"/>
<path d="M41.9459 21.0982C40.3327 21.0982 38.7192 20.8193 37.3398 20.261V19.5634C38.7189 20.1216 40.3327 20.4005 41.9459 20.4005V21.0982Z" fill="#A7B2BA"/>
<path d="M41.9459 20.4003C40.3327 20.4003 38.7189 20.121 37.3398 19.5631V17.3638C37.5598 17.4528 37.7859 17.5347 38.0167 17.6095C39.2337 18.0039 40.5898 18.2009 41.9459 18.2009V20.4003Z" fill="white"/>
<path d="M36.268 16.845C36.262 16.8417 36.2559 16.8383 36.2498 16.8346C36.2559 16.8383 36.2616 16.8417 36.268 16.845Z" fill="white"/>
<path d="M41.9458 18.201C40.5897 18.201 39.2333 18.0037 38.0166 17.6096C39.2337 18.004 40.5897 18.201 41.9458 18.201Z" fill="#C3BFE1"/>
<path d="M33.8906 25.0659C33.8906 25.0555 33.8906 25.045 33.891 25.0345C33.891 25.0338 33.891 25.0335 33.891 25.0328C33.8906 25.0439 33.8906 25.0548 33.8906 25.0659Z" fill="white"/>
<path d="M33.8906 25.0655C33.8906 25.0543 33.8906 25.0435 33.891 25.0323C33.8923 24.9372 33.9004 24.8421 33.9115 24.7466C33.8994 24.8499 33.8913 24.9531 33.891 25.0564L33.8906 25.0655Z" fill="white"/>
<path d="M33.8906 22.1943C33.8906 22.1842 33.8906 22.1744 33.891 22.1646C33.8906 22.1744 33.8906 22.1845 33.8906 22.1943Z" fill="url(#paint4_linear_2731_29809)"/>
<path d="M33.9129 24.7263C33.9007 24.6271 33.8923 24.528 33.891 24.4284C33.8906 24.4179 33.8906 24.4074 33.8906 24.397C33.8906 24.507 33.8997 24.6166 33.9129 24.7263ZM33.8906 24.397V24.2703V22.7592V22.6908V22.2487V22.198C33.8906 22.1966 33.8906 22.1956 33.8906 22.1946C33.8906 22.1847 33.8906 22.1746 33.891 22.1648C33.891 22.1641 33.891 22.1638 33.891 22.1631C33.8906 22.1746 33.8906 22.1861 33.8906 22.1976V22.198V24.397Z" fill="white"/>
<path d="M33.8906 22.1973C33.8906 22.1858 33.8906 22.1743 33.891 22.1628C33.8923 22.065 33.9007 21.9675 33.9126 21.8696C33.9001 21.9729 33.892 22.0765 33.8913 22.1797L33.8906 22.1973Z" fill="white"/>
<path d="M37.3394 17.3641C36.9689 17.2141 36.6153 17.0442 36.2832 16.854C36.2832 16.854 36.2836 16.854 36.2836 16.8543C36.6156 17.0442 36.9689 17.2141 37.3394 17.3641ZM36.2802 16.8523C36.2785 16.8516 36.2775 16.8506 36.2762 16.8499C36.2772 16.8506 36.2785 16.8513 36.2795 16.8519C36.2799 16.8519 36.2799 16.8519 36.2802 16.8523ZM36.2691 16.8458C36.2687 16.8458 36.2684 16.8455 36.2681 16.8452C36.2684 16.8452 36.2691 16.8455 36.2691 16.8458Z" fill="white"/>
<path d="M37.3394 17.3641C36.9689 17.2141 36.6156 17.0442 36.2836 16.8543C36.6153 17.0439 36.9695 17.2124 37.3394 17.3624V17.3641ZM36.2687 16.8458C36.2687 16.8455 36.2684 16.8452 36.2681 16.8452C36.2684 16.8455 36.2687 16.8455 36.2687 16.8458Z" fill="#B8B5D5"/>
<path d="M33.9153 21.8489C33.9018 21.7436 33.8923 21.6384 33.891 21.5328C33.8906 21.5219 33.8906 21.5111 33.8906 21.4999C33.8906 21.6164 33.9004 21.7328 33.9153 21.8489ZM33.8906 21.4999V19.3006C33.8906 19.2901 33.8906 19.2796 33.891 19.2691C33.891 19.2684 33.891 19.2681 33.891 19.2674C33.8893 19.3957 33.897 19.524 33.9132 19.6516C33.9058 19.6398 33.898 19.6279 33.8906 19.6164V21.4999Z" fill="white"/>
<path d="M37.3391 22.8897C36.3094 22.2154 35.538 21.557 34.9614 20.9585C35.3072 21.3061 35.7364 21.6335 36.2496 21.9307C36.5914 22.1287 36.9565 22.3051 37.3391 22.4602V22.8897ZM34.7704 20.7547C34.4023 20.3512 34.1239 19.9788 33.9134 19.6515C33.8969 19.5239 33.8894 19.3956 33.8908 19.2673C33.8925 19.1701 33.9006 19.0726 33.9124 18.9755C33.99 19.5885 34.2761 20.1945 34.7704 20.7547Z" fill="#A7B2BA"/>
<path d="M37.3393 22.4602C36.9564 22.3051 36.5916 22.1288 36.2498 21.9308C35.7366 21.6335 35.3074 21.3062 34.9616 20.9585C34.8954 20.8898 34.8317 20.8218 34.7703 20.7547C34.2763 20.1945 33.9902 19.5886 33.9126 18.9755C33.9129 18.9725 33.9132 18.9694 33.9136 18.9664C33.9011 18.8651 33.8923 18.7643 33.891 18.6631C33.8906 18.6526 33.8906 18.6421 33.8906 18.6319V16.4322C33.8906 16.4214 33.8906 16.4102 33.891 16.3994C33.891 16.3994 33.891 16.3984 33.891 16.3977C33.8754 17.6035 34.662 18.8117 36.2498 19.7314C36.5916 19.9294 36.9564 20.1058 37.3393 20.2608V22.4602Z" fill="white"/>
<path d="M37.3392 20.261C36.9566 20.106 36.5915 19.9296 36.2497 19.7316C34.6618 18.8118 33.8757 17.6037 33.8908 16.3982C33.8925 16.2963 33.9013 16.1944 33.9141 16.0925C34.0555 17.1649 34.8342 18.214 36.2497 19.0339C36.5915 19.2319 36.9566 19.4083 37.3392 19.5633V20.261Z" fill="#A7B2BA"/>
<path d="M37.3393 19.5632C36.9564 19.4081 36.5916 19.2318 36.2498 19.0337C34.834 18.2139 34.0556 17.1645 33.9142 16.0924C33.9146 16.0893 33.9149 16.0866 33.9153 16.0836C33.9018 15.9783 33.8923 15.873 33.891 15.7677C33.8906 15.7566 33.8906 15.7457 33.8906 15.7349V13.5525C33.8984 14.741 34.6846 15.9279 36.2498 16.8344C36.2559 16.8381 36.262 16.8415 36.268 16.8449L36.269 16.8456C36.2714 16.8469 36.2738 16.8483 36.2761 16.8496C36.2775 16.8503 36.2785 16.851 36.2802 16.852C36.2812 16.8523 36.2822 16.853 36.2832 16.8537C36.6152 17.0439 36.9688 17.2139 37.3393 17.3638V19.5632ZM36.321 17.5612C36.1591 17.5612 36.0477 17.6908 36.0477 17.9149C36.0477 18.2308 36.2687 18.615 36.5413 18.7731C36.6206 18.8188 36.6955 18.8408 36.762 18.8408C36.924 18.8408 37.0353 18.7111 37.0353 18.487C37.0353 18.1712 36.8143 17.787 36.5413 17.6289C36.4621 17.5829 36.3871 17.5612 36.321 17.5612Z" fill="white"/>
<path d="M36.7619 18.8406C36.6954 18.8406 36.6205 18.8186 36.5412 18.7729C36.2686 18.6148 36.0476 18.2306 36.0476 17.9147C36.0476 17.6906 36.159 17.561 36.3209 17.561C36.387 17.561 36.4619 17.5826 36.5412 17.6287C36.8142 17.7868 37.0352 18.171 37.0352 18.4868C37.0352 18.7109 36.9239 18.8406 36.7619 18.8406Z" fill="white"/>
<path d="M37.306 31.0799C36.9382 30.9296 36.5876 30.7593 36.2583 30.569C36.5876 30.7593 36.9385 30.9296 37.306 31.0799Z" fill="white"/>
<path d="M33.9146 21.8574C33.9152 21.8544 33.9152 21.8517 33.9156 21.8486V21.849C33.9152 21.8517 33.9152 21.8544 33.9146 21.8574Z" fill="white"/>
<path d="M37.3394 23.1293C36.9565 22.9743 36.5917 22.7979 36.2499 22.5999C34.8314 21.7783 34.0527 20.7265 33.9133 19.6521C34.1239 19.9791 34.4026 20.3515 34.7707 20.755C34.8311 20.8237 34.8949 20.8917 34.9617 20.9588C35.5383 21.5573 36.3093 22.2157 37.3394 22.89V23.1293Z" fill="#A7B2BA"/>
<path d="M34.9615 20.9578C34.8947 20.891 34.8309 20.8231 34.7705 20.7546C34.8316 20.8214 34.8953 20.8893 34.9615 20.9578Z" fill="white"/>
<path d="M35.355 23.4236C35.3004 23.4236 35.2386 23.4057 35.1732 23.3678C34.9488 23.2378 34.7666 22.9213 34.7666 22.6613C34.7666 22.4764 34.858 22.3698 34.9917 22.3698C35.0463 22.3698 35.1081 22.3878 35.1732 22.4257C35.3979 22.5557 35.5801 22.8722 35.5801 23.1321C35.5801 23.3166 35.4883 23.4236 35.355 23.4236Z" fill="white"/>
<path d="M34.3662 28.1468C34.3662 28.1363 34.3665 28.1258 34.3665 28.1153C34.3665 28.1146 34.3665 28.1143 34.3665 28.1136C34.3665 28.1248 34.3662 28.1356 34.3662 28.1468Z" fill="#7972B6"/>
<path d="M34.3662 28.1469C34.3662 28.1357 34.3665 28.1249 34.3665 28.1137C34.3682 28.0186 34.376 27.9235 34.3871 27.828C34.375 27.9313 34.3669 28.0345 34.3665 28.1377L34.3662 28.1469Z" fill="#524B87"/>
<path d="M34.3662 27.3518V25.8403V27.3514V27.3518ZM34.3662 25.2756C34.3662 25.2655 34.3665 25.2557 34.3665 25.2458C34.3665 25.2557 34.3665 25.2658 34.3662 25.2756Z" fill="url(#paint5_linear_2731_29809)"/>
<path d="M34.3665 27.509C34.3665 27.4985 34.3662 27.4884 34.3662 27.4779V27.3517V27.3514V27.4779C34.3662 27.488 34.3665 27.4985 34.3665 27.509Z" fill="url(#paint6_linear_2731_29809)"/>
<path d="M34.3885 27.8076C34.3763 27.7081 34.3679 27.6089 34.3665 27.5094C34.3665 27.4992 34.3662 27.4884 34.3662 27.4783C34.3662 27.5879 34.3753 27.698 34.3885 27.8076ZM34.3662 27.4783V27.3513V25.8402V25.7721V25.33V25.2789C34.3662 25.2776 34.3662 25.2765 34.3662 25.2755C34.3665 25.2657 34.3665 25.2556 34.3665 25.2457C34.3665 25.2454 34.3665 25.2447 34.3665 25.2444C34.3665 25.2556 34.3665 25.2674 34.3662 25.2786V25.2789V27.4783Z" fill="#7972B6"/>
<path d="M34.3662 25.2783C34.3665 25.2671 34.3665 25.2553 34.3665 25.2441C34.3682 25.1463 34.3763 25.0484 34.3885 24.9509C34.3757 25.0542 34.3676 25.1574 34.3669 25.261L34.3662 25.2783Z" fill="#524B87"/>
<path d="M34.3908 24.9297C34.3773 24.8245 34.3682 24.7192 34.3665 24.6136C34.3665 24.6027 34.3662 24.5919 34.3662 24.5807C34.3662 24.6972 34.376 24.8136 34.3908 24.9297ZM34.3662 24.5807V22.3814C34.3662 22.3709 34.3665 22.3604 34.3665 22.3499C34.3665 22.3492 34.3665 22.3489 34.3665 22.3482C34.3649 22.4765 34.3726 22.6048 34.3888 22.7324C34.3814 22.7206 34.3736 22.7087 34.3662 22.6972V24.5807Z" fill="#7972B6"/>
<path d="M34.3899 24.9387C34.3902 24.9357 34.3906 24.933 34.3909 24.9299V24.9303C34.3906 24.933 34.3902 24.9357 34.3899 24.9387Z" fill="#8078C0"/>
<path d="M35.4373 24.0388C35.3705 23.972 35.3067 23.9042 35.2463 23.8357C35.3074 23.9028 35.3712 23.9703 35.4373 24.0388Z" fill="#6D66A3"/>
<path d="M33.7152 35.7396C33.6461 34.6008 32.8629 33.4746 31.3628 32.6056C28.2174 30.7834 23.1174 30.7834 19.9717 32.6056C18.3991 33.5162 17.6125 34.7105 17.6125 35.9045V38.1038C17.6125 39.2978 18.3991 40.4917 19.9717 41.4026C23.1174 43.2249 28.2171 43.2249 31.3628 41.4026C32.9355 40.4917 33.722 39.2978 33.722 38.1038V35.7393L33.7152 35.7396Z" fill="white"/>
<path d="M31.3633 39.2034C28.2176 41.0256 23.1179 41.0256 19.9726 39.2034C16.8269 37.3815 16.8269 34.4273 19.9726 32.6054C23.1179 30.7835 28.2179 30.7835 31.3633 32.6054C34.5086 34.4273 34.5086 37.3815 31.3633 39.2034Z" fill="#A7B2BA"/>
<path d="M33.7152 32.8714C33.6461 31.7326 32.8629 30.6064 31.3628 29.7374C28.2174 27.9152 23.1174 27.9152 19.9717 29.7374C18.3991 30.6483 17.6125 31.8423 17.6125 33.0362V35.2356C17.6125 36.4295 18.3991 37.6235 19.9717 38.5348C23.1174 40.3567 28.2171 40.3567 31.3628 38.5348C32.9355 37.6235 33.722 36.4295 33.722 35.2356V32.8714H33.7152Z" fill="white"/>
<path d="M31.3633 36.3354C28.2176 38.1573 23.1179 38.1573 19.9726 36.3354C16.8269 34.5135 16.8269 31.5593 19.9726 29.7374C23.1179 27.9152 28.2179 27.9152 31.3633 29.7374C34.5086 31.5593 34.5086 34.5132 31.3633 36.3354Z" fill="#A7B2BA"/>
<path d="M33.7152 29.9747C33.6461 28.8363 32.8629 27.7097 31.3628 26.8407C28.2174 25.0188 23.1174 25.0188 19.9717 26.8407C18.3991 27.7517 17.6125 28.9456 17.6125 30.1396V32.3389C17.6125 33.5332 18.3991 34.7271 19.9717 35.6381C23.1174 37.46 28.2171 37.46 31.3628 35.6381C32.9355 34.7271 33.722 33.5332 33.722 32.3389V29.9747H33.7152Z" fill="white"/>
<path d="M31.3633 33.4387C28.2176 35.2606 23.1179 35.2606 19.9726 33.4387C16.8269 31.6168 16.8269 28.6626 19.9726 26.8407C23.1179 25.0188 28.2179 25.0188 31.3633 26.8407C34.5086 28.6626 34.5086 31.6165 31.3633 33.4387Z" fill="#A7B2BA"/>
<path d="M33.7152 27.1062C33.6461 25.9677 32.8629 24.8412 31.3628 23.9722C28.2174 22.1503 23.1174 22.1503 19.9717 23.9722C18.3991 24.8831 17.6125 26.0771 17.6125 27.271V29.4707C17.6125 30.6647 18.3991 31.8586 19.9717 32.7696C23.1174 34.5918 28.2171 34.5918 31.3628 32.7696C32.9355 31.8586 33.722 30.6647 33.722 29.4707V27.1062H33.7152Z" fill="white"/>
<path d="M31.3633 30.5702C28.2176 32.3921 23.1179 32.3921 19.9726 30.5702C16.8269 28.7483 16.8269 25.7941 19.9726 23.9722C23.1179 22.1503 28.2179 22.1503 31.3633 23.9722C34.5086 25.7941 34.5086 28.7483 31.3633 30.5702Z" fill="#A7B2BA"/>
<path d="M33.7152 24.2091C33.6461 23.0707 32.8629 21.9441 31.3628 21.0752C28.2174 19.2533 23.1174 19.2533 19.9717 21.0752C18.3991 21.9861 17.6125 23.1801 17.6125 24.3743V26.5733C17.6125 27.7676 18.3991 28.9616 19.9717 29.8725C23.1174 31.6944 28.2171 31.6944 31.3628 29.8725C32.9355 28.9616 33.722 27.7676 33.722 26.5733V24.2091H33.7152Z" fill="white"/>
<path d="M31.3633 27.6732C28.2176 29.4951 23.1179 29.4951 19.9726 27.6732C16.8269 25.8513 16.8269 22.8971 19.9726 21.0752C23.1179 19.2533 28.2179 19.2533 31.3633 21.0752C34.5086 22.8971 34.5086 25.8513 31.3633 27.6732Z" fill="#A7B2BA"/>
<path d="M30.7668 27.3277C27.9507 28.959 23.3849 28.959 20.5688 27.3277C17.7528 25.6968 17.7528 23.0519 20.5688 21.4206C23.3849 19.7893 27.9507 19.7893 30.7668 21.4206C33.5832 23.0519 33.5832 25.6968 30.7668 27.3277Z" fill="white"/>
<path d="M20.7579 29.326C20.7579 29.6419 20.5369 29.7702 20.2642 29.6121C19.9913 29.454 19.7703 29.0698 19.7703 28.7539C19.7703 28.4378 19.9913 28.3098 20.2642 28.4679C20.5369 28.626 20.7579 29.0102 20.7579 29.326Z" fill="white"/>
<path d="M19.3018 33.9712C19.3018 34.2315 19.1196 34.3368 18.8952 34.2068C18.6705 34.0768 18.4883 33.7603 18.4883 33.5C18.4883 33.2397 18.6705 33.1344 18.8952 33.2647C19.1196 33.3947 19.3018 33.7112 19.3018 33.9712Z" fill="#C5BFF0"/>
<path d="M30.7395 29.0954C30.7395 29.4112 30.9608 29.5392 31.2335 29.3814C31.5061 29.2233 31.7274 28.8391 31.7274 28.5233C31.7274 28.2075 31.5061 28.0792 31.2335 28.2372C30.9608 28.3953 30.7395 28.7792 30.7395 29.0954Z" fill="white"/>
<path d="M31.9741 28.2438C31.9741 28.4787 32.1388 28.5742 32.3416 28.4567C32.5443 28.3392 32.709 28.0532 32.709 27.8183C32.709 27.5833 32.5443 27.4879 32.3416 27.6053C32.1388 27.7231 31.9741 28.0088 31.9741 28.2438Z" fill="white"/>
<path d="M30.7395 34.9337C30.7395 35.2498 30.9608 35.3778 31.2335 35.2197C31.5061 35.062 31.7274 34.6778 31.7274 34.3619C31.7274 34.0457 31.5061 33.9178 31.2335 34.0755C30.9608 34.2336 30.7395 34.6178 30.7395 34.9337Z" fill="white"/>
<path d="M31.9741 34.082C31.9741 34.3169 32.1388 34.4124 32.3416 34.2949C32.5443 34.1774 32.709 33.8914 32.709 33.6564C32.709 33.4212 32.5443 33.326 32.3416 33.4435C32.1388 33.5613 31.9741 33.847 31.9741 34.082Z" fill="white"/>
<path d="M29.4385 29.6233C29.4388 29.8311 29.6031 29.9482 29.8056 29.8849C30.0077 29.8216 30.1717 29.6016 30.1713 29.3938C30.171 29.1856 30.0067 29.0684 29.8046 29.1321C29.6021 29.195 29.4381 29.4151 29.4385 29.6233Z" fill="white"/>
<path d="M25.6676 42.7695C24.045 42.7695 22.4224 42.4875 21.0383 41.9229C22.4224 42.4872 24.0453 42.7695 25.6673 42.7695H25.6676Z" fill="#F5F5F5"/>
<path d="M25.6678 34.8046C24.3954 34.8046 23.123 34.6313 21.966 34.2843C21.6441 34.0985 21.3432 33.9126 21.0618 33.7285V33.2989C22.4408 33.8568 24.0543 34.136 25.6678 34.136V34.8046Z" fill="#A7B2BA"/>
<path d="M25.6678 34.1362C24.0543 34.1362 22.4408 33.8572 21.0618 33.299V31.0997C22.4408 31.6579 24.0543 31.9368 25.6675 31.9368H25.6678V34.1362Z" fill="white"/>
<path d="M25.6675 31.9367C24.0543 31.9367 22.4408 31.6578 21.0618 31.0995V30.4019C22.4404 30.9597 24.0543 31.239 25.6675 31.239H25.6678V31.9367H25.6675Z" fill="#A7B2BA"/>
<path d="M25.6675 31.2391C24.0543 31.2391 22.4404 30.9599 21.0618 30.402V28.2026C21.2818 28.2917 21.5075 28.3733 21.7383 28.4484C22.9553 28.8424 24.3117 29.0398 25.6678 29.0398V31.2391H25.6675Z" fill="white"/>
<path d="M17.6125 35.9045C17.6125 35.894 17.6129 35.8835 17.6129 35.8727C17.6129 35.8724 17.6129 35.8717 17.6129 35.8713C17.6129 35.8825 17.6125 35.893 17.6125 35.9042V35.9045Z" fill="white"/>
<path d="M17.6125 35.9042C17.6125 35.8934 17.6129 35.8826 17.6129 35.8714C17.6146 35.7759 17.6223 35.6808 17.6338 35.5857C17.6213 35.6889 17.6136 35.7919 17.6129 35.8954L17.6125 35.9042Z" fill="white"/>
<path d="M17.6125 33.0332C17.6125 33.0231 17.6129 33.0133 17.6129 33.0031C17.6129 33.0133 17.6129 33.0231 17.6125 33.0332Z" fill="url(#paint7_linear_2731_29809)"/>
<path d="M17.6348 35.5651C17.6227 35.4659 17.6142 35.3664 17.6129 35.2672C17.6129 35.2567 17.6125 35.2463 17.6125 35.2358C17.6125 35.3458 17.6217 35.4555 17.6348 35.5651ZM17.6125 35.2358V35.1092V33.5977V33.5296V33.0875V33.0364C17.6125 33.0354 17.6125 33.0344 17.6125 33.033C17.6129 33.0232 17.6129 33.0134 17.6129 33.0032C17.6129 33.0029 17.6129 33.0022 17.6129 33.0019C17.6129 33.0134 17.6129 33.0252 17.6125 33.0364V35.2358Z" fill="white"/>
<path d="M17.6125 33.0363C17.6129 33.0248 17.6129 33.0133 17.6129 33.0018C17.6146 32.9039 17.6227 32.8064 17.6348 32.7086C17.622 32.8119 17.6142 32.9154 17.6136 33.0187L17.6125 33.0363Z" fill="white"/>
<path d="M21.0615 28.2026C20.691 28.0523 20.3374 27.8824 20.0054 27.6921L20.0058 27.6925C20.3378 27.8827 20.691 28.0526 21.0615 28.2026ZM20.0024 27.6904C20.001 27.6897 19.9997 27.6891 19.9983 27.6881L19.9987 27.6884C19.9997 27.6891 20.0007 27.6894 20.0017 27.6901L20.0024 27.6904ZM19.9916 27.6843C19.9909 27.684 19.9902 27.6837 19.9902 27.6837L19.9909 27.684L19.9916 27.6843Z" fill="white"/>
<path d="M21.0615 28.2026C20.6914 28.0526 20.3378 27.8827 20.0058 27.6925C20.3378 27.8824 20.6917 28.0509 21.0615 28.2009V28.2026Z" fill="#B8B5D5"/>
<path d="M17.6372 32.6873C17.6237 32.5824 17.6146 32.4768 17.6129 32.3715C17.6129 32.3603 17.6125 32.3495 17.6125 32.3387C17.6125 32.4551 17.6223 32.5712 17.6372 32.6873ZM17.6125 32.3387V30.1393C17.6125 30.1288 17.6129 30.1183 17.6129 30.1075C17.6129 30.1072 17.6129 30.1065 17.6129 30.1061C17.6112 30.2341 17.619 30.3627 17.6355 30.4904C17.6277 30.4785 17.6203 30.4667 17.6125 30.4548V32.3387Z" fill="white"/>
<path d="M21.0618 33.7286C20.032 33.0543 19.2607 32.3959 18.684 31.7974C19.0299 32.145 19.4594 32.4724 19.9726 32.7696C20.3141 32.9676 20.6792 33.144 21.0618 33.299V33.7286ZM18.4931 31.5936C18.125 31.1901 17.8466 30.8177 17.636 30.4904C17.6195 30.3627 17.6121 30.2344 17.6134 30.1061C17.6151 30.009 17.6232 29.9115 17.635 29.8143C17.713 30.4274 17.9988 31.0333 18.4931 31.5936Z" fill="#A7B2BA"/>
<path d="M21.0612 33.2991C20.6783 33.1441 20.3135 32.9677 19.9717 32.7697C19.4585 32.4725 19.0293 32.1451 18.6835 31.7975C18.6174 31.7287 18.5536 31.6607 18.4925 31.5937C17.9982 31.0334 17.7121 30.4275 17.6345 29.8144C17.6348 29.8114 17.6352 29.8083 17.6355 29.805C17.623 29.7041 17.6146 29.6032 17.6129 29.502C17.6129 29.4915 17.6125 29.481 17.6125 29.4708V27.2712C17.6125 27.2603 17.6129 27.2492 17.6129 27.2383C17.6129 27.2377 17.6129 27.2373 17.6129 27.2366C17.5977 28.4424 18.3839 29.6506 19.9717 30.5703C20.3135 30.7684 20.6783 30.9447 21.0612 31.0998V33.2991Z" fill="white"/>
<path d="M21.0619 31.0996C20.6792 30.9445 20.3145 30.7682 19.9727 30.5701C18.3845 29.6504 17.5983 28.4419 17.6135 27.2364C17.6152 27.1345 17.6243 27.0326 17.6371 26.9311C17.7785 28.0032 18.5569 29.0522 19.9727 29.8725C20.3145 30.0705 20.6792 30.2469 21.0619 30.4019V31.0996Z" fill="#A7B2BA"/>
<path d="M21.0612 30.4021C20.6783 30.2471 20.3135 30.0707 19.9717 29.8727C18.5563 29.0528 17.7775 28.0034 17.6362 26.9313C17.6365 26.9283 17.6368 26.9255 17.6372 26.9225C17.6237 26.8172 17.6146 26.7119 17.6129 26.6063C17.6129 26.5955 17.6125 26.5847 17.6125 26.5735V24.3914C17.6203 25.5799 18.4065 26.7668 19.9717 27.6733C19.9778 27.6767 19.9839 27.6801 19.99 27.6838C19.99 27.6838 19.9906 27.6842 19.9913 27.6845C19.9937 27.6859 19.9957 27.6872 19.9981 27.6886C19.9994 27.6892 20.0008 27.6899 20.0021 27.6909C20.0031 27.6913 20.0041 27.692 20.0051 27.6926C20.3372 27.8829 20.6908 28.0528 21.0612 28.2028V30.4021ZM20.0429 28.4001C19.881 28.4001 19.7696 28.5298 19.7696 28.7539C19.7696 29.0697 19.9906 29.4539 20.2636 29.612C20.3429 29.6577 20.4178 29.6794 20.4839 29.6794C20.6459 29.6794 20.7572 29.5501 20.7572 29.326C20.7572 29.0098 20.5362 28.6259 20.2636 28.4678C20.1843 28.4218 20.1094 28.4001 20.0429 28.4001Z" fill="white"/>
<path d="M20.4846 29.6794C20.4184 29.6794 20.3435 29.6577 20.2642 29.6117C19.9913 29.4539 19.7703 29.0697 19.7703 28.7536C19.7703 28.5295 19.8816 28.4001 20.0436 28.4001C20.11 28.4001 20.1849 28.4218 20.2642 28.4675C20.5369 28.6256 20.7579 29.0098 20.7579 29.3256C20.7579 29.5497 20.6465 29.6794 20.4846 29.6794Z" fill="white"/>
<path d="M21.0279 41.9188C20.6605 41.7681 20.3095 41.5978 19.9802 41.4076V41.4079C20.3099 41.5982 20.6605 41.7685 21.0279 41.9188Z" fill="white"/>
<path d="M19.9799 41.4077V41.4074C19.9772 41.4061 19.9745 41.4044 19.9722 41.403C19.9745 41.4047 19.9772 41.4061 19.9799 41.4077Z" fill="#736CAC"/>
<path d="M21.0615 33.9679C20.6789 33.8129 20.3138 33.6365 19.972 33.4385C18.5535 32.6169 17.7748 31.5651 17.6357 30.4904C17.8463 30.8177 18.1247 31.1901 18.4928 31.5936C18.5532 31.6623 18.6169 31.7303 18.6837 31.7974C19.2604 32.3959 20.0317 33.0543 21.0615 33.7286V33.9679Z" fill="#A7B2BA"/>
<path d="M18.6836 31.7966C18.6168 31.7295 18.5531 31.6617 18.4927 31.5935C18.5537 31.6603 18.6175 31.7281 18.6836 31.7966Z" fill="white"/>
<path d="M19.0767 34.2626C19.0221 34.2626 18.9603 34.2447 18.8952 34.2067C18.6705 34.0768 18.4883 33.7602 18.4883 33.4999C18.4883 33.3154 18.5801 33.2088 18.7133 33.2088C18.768 33.2088 18.8297 33.2267 18.8952 33.2643C19.1196 33.3946 19.3018 33.7112 19.3018 33.9711C19.3018 34.1556 19.21 34.2626 19.0767 34.2626Z" fill="white"/>
<defs>
<linearGradient id="paint0_linear_2731_29809" x1="38.9256" y1="53.6467" x2="23.0736" y2="-9.68698" gradientUnits="userSpaceOnUse">
<stop stop-color="#221A3C"/>
<stop offset="1" stop-color="#190F23"/>
</linearGradient>
<linearGradient id="paint1_linear_2731_29809" x1="21.9949" y1="61.5261" x2="5.9326" y2="-1.92808" gradientUnits="userSpaceOnUse">
<stop stop-color="#261D43"/>
<stop offset="1" stop-color="#1C1127"/>
</linearGradient>
<linearGradient id="paint2_linear_2731_29809" x1="22.1721" y1="61.5264" x2="6.22275" y2="-1.98929" gradientUnits="userSpaceOnUse">
<stop stop-color="#2A214B"/>
<stop offset="1" stop-color="#1F132B"/>
</linearGradient>
<linearGradient id="paint3_linear_2731_29809" x1="55.8853" y1="61.893" x2="39.823" y2="-1.5612" gradientUnits="userSpaceOnUse">
<stop stop-color="#261D43"/>
<stop offset="1" stop-color="#1C1127"/>
</linearGradient>
<linearGradient id="paint4_linear_2731_29809" x1="56.0627" y1="61.8931" x2="40.1134" y2="-1.62253" gradientUnits="userSpaceOnUse">
<stop stop-color="#2A214B"/>
<stop offset="1" stop-color="#1F132B"/>
</linearGradient>
<linearGradient id="paint5_linear_2731_29809" x1="56.2024" y1="64.9743" x2="40.0376" y2="1.57541" gradientUnits="userSpaceOnUse">
<stop stop-color="#2A214B"/>
<stop offset="1" stop-color="#1F132B"/>
</linearGradient>
<linearGradient id="paint6_linear_2731_29809" x1="56.2023" y1="64.8523" x2="40.1358" y2="1.63415" gradientUnits="userSpaceOnUse">
<stop stop-color="#221A3C"/>
<stop offset="1" stop-color="#190F23"/>
</linearGradient>
<linearGradient id="paint7_linear_2731_29809" x1="39.4487" y1="72.7321" x2="23.2838" y2="9.33294" gradientUnits="userSpaceOnUse">
<stop stop-color="#2A214B"/>
<stop offset="1" stop-color="#1F132B"/>
</linearGradient>
</defs>
</svg>
