<svg width="50" height="43" viewBox="0 0 50 43" fill="none" xmlns="http://www.w3.org/2000/svg">
<path d="M32.8563 16.9949C32.7871 15.8565 32.0043 14.7299 30.5042 13.861C27.3585 12.0391 22.2585 12.0391 19.1131 13.861C17.5404 14.7719 16.7539 15.9662 16.7539 17.1601V19.3595C16.7539 20.5534 17.5404 21.7474 19.1131 22.6583C22.2585 24.4805 27.3585 24.4805 30.5042 22.6583C32.0765 21.7474 32.863 20.5534 32.863 19.3595V16.9949H32.8563Z" fill="white"/>
<path d="M30.504 20.459C27.3583 22.2809 22.2586 22.2809 19.1129 20.459C15.9676 18.6371 15.9676 15.6829 19.1129 13.861C22.2586 12.0391 27.3583 12.0391 30.504 13.861C33.6494 15.6829 33.6494 18.6371 30.504 20.459Z" fill="#A7B2BA"/>
<path d="M32.8563 14.127C32.7871 12.9883 32.0043 11.8617 30.5042 10.9927C27.3585 9.17084 22.2585 9.17084 19.1131 10.9927C17.5404 11.904 16.7539 13.098 16.7539 14.2919V16.4912C16.7539 17.6852 17.5404 18.8791 19.1131 19.7904C22.2585 21.6123 27.3585 21.6123 30.5042 19.7904C32.0765 18.8791 32.863 17.6852 32.863 16.4912V14.127H32.8563Z" fill="white"/>
<path d="M30.504 17.5908C27.3583 19.413 22.2586 19.413 19.1129 17.5908C15.9676 15.7689 15.9676 12.815 19.1129 10.9928C22.2586 9.1709 27.3583 9.1709 30.504 10.9928C33.6494 12.815 33.6494 15.7689 30.504 17.5908Z" fill="#A7B2BA"/>
<path d="M32.8563 11.2304C32.7871 10.0919 32.0043 8.96534 30.5042 8.09603C27.3585 6.27414 22.2585 6.27414 19.1131 8.09603C17.5404 9.00732 16.7539 10.2013 16.7539 11.3952V13.5946C16.7539 14.7885 17.5404 15.9824 19.1131 16.8937C22.2585 18.7156 27.3585 18.7156 30.5042 16.8934C32.0765 15.9824 32.863 14.7885 32.863 13.5946V11.2304H32.8563Z" fill="white"/>
<path d="M30.504 14.6942C27.3583 16.5164 22.2586 16.5164 19.1129 14.6942C15.9676 12.8723 15.9676 9.91839 19.1129 8.09616C22.2586 6.27426 27.3583 6.27426 30.504 8.09616C33.6494 9.91805 33.6494 12.8723 30.504 14.6942Z" fill="#A7B2BA"/>
<path d="M32.8563 8.3618C32.7871 7.22337 32.0043 6.09678 30.5042 5.22747C27.3585 3.40558 22.2585 3.40558 19.1131 5.22747C17.5404 6.13876 16.7539 7.33271 16.7539 8.52665V10.726C16.7539 11.9199 17.5404 13.1142 19.1131 14.0252C22.2585 15.8471 27.3585 15.8471 30.5042 14.0252C32.0765 13.1142 32.863 11.9199 32.863 10.726V8.3618H32.8563Z" fill="white"/>
<path d="M30.504 11.8257C27.3583 13.6476 22.2586 13.6476 19.1129 11.8257C15.9676 10.0035 15.9676 7.04956 19.1129 5.22767C22.2586 3.40543 27.3583 3.40543 30.504 5.22767C33.6494 7.04956 33.6494 10.0035 30.504 11.8257Z" fill="#A7B2BA"/>
<path d="M32.8563 5.46501C32.7871 4.32658 32.0043 3.2 30.5042 2.33103C27.3585 0.508797 22.2585 0.508797 19.1131 2.33103C17.5404 3.24198 16.7539 4.43592 16.7539 5.62987V7.82921C16.7539 9.02349 17.5404 10.2174 19.1131 11.1284C22.2585 12.9503 27.3585 12.9503 30.5042 11.1284C32.0765 10.2174 32.863 9.02349 32.863 7.82921V5.46501H32.8563Z" fill="white"/>
<path d="M30.504 8.92905C27.3583 10.7509 22.2586 10.7509 19.1129 8.92905C15.9676 7.10681 15.9676 4.15292 19.1129 2.33103C22.2586 0.508797 27.3583 0.508797 30.504 2.33103C33.6494 4.15292 33.6494 7.10681 30.504 8.92905Z" fill="#A7B2BA"/>
<path d="M29.9078 8.58329C27.0914 10.2143 22.5258 10.2143 19.7094 8.58329C16.8934 6.95198 16.8934 4.30749 19.7094 2.67618C22.5258 1.04487 27.0914 1.04487 29.9078 2.67618C32.7238 4.30749 32.7238 6.95198 29.9078 8.58329Z" fill="white"/>
<path d="M19.8985 10.5816C19.8985 10.8974 19.6772 11.0254 19.4045 10.8676C19.1319 10.7095 18.9109 10.3253 18.9109 10.0095C18.9109 9.69332 19.1319 9.56537 19.4045 9.72346C19.6772 9.88154 19.8985 10.2654 19.8985 10.5816Z" fill="white"/>
<path d="M18.4429 15.2267C18.4429 15.4867 18.2607 15.5923 18.036 15.4623C17.8113 15.332 17.6294 15.0158 17.6294 14.7555C17.6294 14.4952 17.8113 14.3899 18.036 14.5199C18.2607 14.6502 18.4426 14.9664 18.4429 15.2267Z" fill="#C5BFF0"/>
<path d="M29.8801 10.3514C29.8801 10.6672 30.1011 10.7952 30.3738 10.6374C30.6467 10.4793 30.8677 10.0951 30.8677 9.77927C30.8677 9.46309 30.6467 9.33514 30.3738 9.49323C30.1011 9.65132 29.8801 10.0352 29.8801 10.3514Z" fill="white"/>
<path d="M31.1155 9.49937C31.1155 9.7343 31.2798 9.82976 31.4826 9.7123C31.6857 9.59483 31.85 9.30879 31.85 9.07386C31.85 8.83893 31.6857 8.74347 31.4826 8.86093C31.2798 8.97874 31.1155 9.26444 31.1155 9.49937Z" fill="white"/>
<path d="M29.8801 16.1893C29.8801 16.5054 30.1011 16.6334 30.3738 16.4753C30.6467 16.3176 30.8677 15.9333 30.8677 15.6172C30.8677 15.3013 30.6467 15.1734 30.3738 15.3311C30.1011 15.4892 29.8801 15.8734 29.8801 16.1893Z" fill="white"/>
<path d="M31.1155 15.3375C31.1155 15.5725 31.2798 15.6679 31.4826 15.5501C31.6857 15.4327 31.85 15.147 31.85 14.912C31.85 14.6768 31.6857 14.5816 31.4826 14.6991C31.2798 14.8166 31.1155 15.1023 31.1155 15.3375Z" fill="white"/>
<path d="M28.5791 10.8787C28.5794 11.0869 28.7438 11.204 28.9459 11.1407C29.1483 11.077 29.312 10.8573 29.312 10.6495C29.3116 10.4413 29.1473 10.3242 28.9449 10.3875C28.7424 10.4508 28.5788 10.6708 28.5791 10.8787Z" fill="white"/>
<path d="M24.8084 16.0605C23.5364 16.0605 22.264 15.8872 21.1067 15.5402C20.7851 15.354 20.4841 15.1685 20.2024 14.984V14.5545C21.5817 15.1127 23.1949 15.3916 24.8084 15.3916V16.0605Z" fill="#A7B2BA"/>
<path d="M24.8084 15.392C23.1949 15.392 21.5817 15.1127 20.2024 14.5545V12.3555C21.5817 12.9134 23.1949 13.1923 24.8084 13.1923V15.392Z" fill="white"/>
<path d="M24.8084 13.1926C23.1949 13.1926 21.5817 12.9137 20.2024 12.3555V11.6578C21.5814 12.2157 23.1952 12.4949 24.8084 12.4949V13.1926Z" fill="#A7B2BA"/>
<path d="M24.8084 12.495C23.1952 12.495 21.5814 12.2157 20.2024 11.6579V9.45853C20.4224 9.54722 20.6485 9.62914 20.8792 9.70429C22.0963 10.0983 23.4523 10.2957 24.8084 10.2957V12.495Z" fill="white"/>
<path d="M24.8083 10.2952C23.4523 10.2952 22.0959 10.0981 20.8792 9.70377C22.0962 10.0981 23.4519 10.2952 24.8083 10.2952Z" fill="#C3BFE1"/>
<path d="M16.7539 17.1604C16.7539 17.1499 16.7539 17.1395 16.7542 17.1286C16.7542 17.1283 16.7542 17.1276 16.7542 17.1273C16.7539 17.1381 16.7539 17.1489 16.7539 17.1601V17.1604Z" fill="white"/>
<path d="M16.7539 17.1598C16.7539 17.149 16.7539 17.1382 16.7542 17.127C16.7556 17.0315 16.7637 16.9364 16.7748 16.8413C16.7627 16.9445 16.7546 17.0474 16.7542 17.151L16.7539 17.1598Z" fill="white"/>
<path d="M16.7542 16.5221C16.7539 16.512 16.7539 16.5016 16.7539 16.4911V16.3649V16.3646V16.4911C16.7539 16.5012 16.7539 16.512 16.7542 16.5221Z" fill="url(#paint0_linear_2731_29588)"/>
<path d="M16.7762 16.8207C16.764 16.7216 16.7556 16.622 16.7542 16.5229C16.7539 16.5124 16.7539 16.5019 16.7539 16.4914C16.7539 16.6014 16.7627 16.7111 16.7762 16.8207ZM16.7539 16.4914V16.3648V14.8533V14.7853V14.3431V14.292C16.7539 14.291 16.7539 14.2897 16.7539 14.2887C16.7539 14.2788 16.7539 14.269 16.7542 14.2589C16.7542 14.2585 16.7542 14.2578 16.7542 14.2575C16.7539 14.269 16.7539 14.2809 16.7539 14.292V16.4914Z" fill="white"/>
<path d="M16.7539 14.2915C16.7539 14.2803 16.7539 14.2688 16.7542 14.2573C16.7556 14.1595 16.764 14.0617 16.7758 13.9642C16.7634 14.0674 16.7553 14.1707 16.7546 14.2743L16.7539 14.2915Z" fill="white"/>
<path d="M16.7785 13.9429C16.765 13.8376 16.7556 13.7323 16.7542 13.627C16.7539 13.6159 16.7539 13.605 16.7539 13.5942C16.7539 13.7107 16.7637 13.8268 16.7785 13.9429ZM16.7539 13.5942V11.3949C16.7539 11.3844 16.7539 11.3739 16.7542 11.363C16.7542 11.3627 16.7542 11.362 16.7542 11.3617C16.7526 11.4897 16.76 11.6183 16.7765 11.7459C16.7691 11.7341 16.7613 11.7222 16.7539 11.7104V13.5942Z" fill="white"/>
<path d="M20.2025 14.9841C19.1724 14.3098 18.4014 13.6514 17.8247 13.0532C18.1706 13.4009 18.5998 13.7279 19.113 14.0255C19.4548 14.2232 19.8195 14.3999 20.2025 14.5546V14.9841ZM17.6338 12.8495C17.2656 12.4459 16.9873 12.0732 16.7767 11.7462C16.7602 11.6186 16.7524 11.49 16.7541 11.362C16.7558 11.2645 16.7639 11.1674 16.7757 11.0702C16.8533 11.6833 17.1395 12.2892 17.6338 12.8495Z" fill="#A7B2BA"/>
<path d="M20.2026 14.5544C19.8196 14.3997 19.4549 14.223 19.1131 14.0253C18.5999 13.7277 18.1704 13.4007 17.8249 13.0531C17.7584 12.9844 17.6946 12.9163 17.6335 12.8493C17.1392 12.289 16.8534 11.6831 16.7758 11.0701C16.7762 11.067 16.7765 11.0636 16.7769 11.0606C16.7644 10.9597 16.7556 10.8585 16.7542 10.7576C16.7539 10.7471 16.7539 10.7366 16.7539 10.7261V8.52678C16.7539 8.51595 16.7539 8.50477 16.7542 8.4936C16.7542 8.4936 16.7542 8.49293 16.7542 8.49225C16.7387 9.6977 17.5252 10.9062 19.1131 11.826C19.4549 12.024 19.8196 12.2004 20.2026 12.3554V14.5544Z" fill="white"/>
<path d="M20.2025 12.3552C19.8195 12.2005 19.4548 12.0238 19.113 11.8261C17.5251 10.9063 16.7389 9.69781 16.7541 8.49235C16.7558 8.39046 16.7646 8.28857 16.7774 8.18668C16.9188 9.2591 17.6975 10.3082 19.113 11.1284C19.4548 11.3261 19.8195 11.5024 20.2025 11.6575V12.3552Z" fill="#A7B2BA"/>
<path d="M20.2026 11.6573C19.8196 11.5026 19.4549 11.3259 19.1131 11.1282C17.6973 10.308 16.9189 9.25894 16.7775 8.18653C16.7779 8.18382 16.7782 8.18077 16.7785 8.17806C16.765 8.07279 16.7556 7.9675 16.7542 7.86188C16.7539 7.85105 16.7539 7.83988 16.7539 7.82905V5.64697C16.7617 6.83516 17.5478 8.02234 19.1131 8.92889C19.1192 8.93227 19.1252 8.93566 19.131 8.93904C19.1317 8.93938 19.1323 8.94006 19.1323 8.94006C19.1347 8.94141 19.1371 8.94243 19.1394 8.94379C19.1404 8.9448 19.1418 8.94547 19.1435 8.94615C19.1445 8.94683 19.1455 8.94751 19.1462 8.94785C19.4785 9.13809 19.8321 9.30802 20.2026 9.45799V11.6573ZM19.1843 9.65568C19.0223 9.65568 18.911 9.785 18.911 10.0091C18.911 10.3253 19.132 10.7095 19.4046 10.8672C19.4839 10.9133 19.5588 10.9349 19.6253 10.9349C19.7872 10.9349 19.8986 10.8053 19.8986 10.5812C19.8986 10.2654 19.6773 9.88114 19.4046 9.72305C19.3253 9.67735 19.2504 9.65568 19.1843 9.65568Z" fill="white"/>
<path d="M19.6252 10.935C19.5587 10.935 19.4838 10.9133 19.4045 10.8673C19.1319 10.7095 18.9109 10.325 18.9109 10.0091C18.9109 9.78505 19.0222 9.6554 19.1842 9.6554C19.2503 9.6554 19.3252 9.6774 19.4045 9.7231C19.6772 9.88119 19.8985 10.2654 19.8985 10.5812C19.8985 10.8053 19.7871 10.935 19.6252 10.935Z" fill="white"/>
<path d="M20.1685 23.174C19.8007 23.0237 19.4502 22.8534 19.1208 22.6632C19.4502 22.8534 19.8011 23.0237 20.1685 23.174Z" fill="white"/>
<path d="M19.1209 22.6636L19.1206 22.6633C19.1182 22.6619 19.1155 22.6603 19.1128 22.6589C19.1155 22.6606 19.1182 22.6619 19.1209 22.6636Z" fill="#736CAC"/>
<path d="M20.2025 15.2235C19.8195 15.0684 19.4548 14.8921 19.113 14.6944C17.6945 13.8725 16.9157 12.821 16.7764 11.7462C16.9869 12.0733 17.2653 12.446 17.6334 12.8495C17.6941 12.9179 17.7579 12.9859 17.8247 13.0533C18.401 13.6514 19.1723 14.3098 20.2025 14.9845V15.2235Z" fill="#A7B2BA"/>
<path d="M17.825 13.0522C17.7582 12.9851 17.6944 12.9172 17.634 12.8491C17.6951 12.9159 17.7589 12.9837 17.825 13.0522Z" fill="white"/>
<path d="M18.2175 15.5179C18.1628 15.5179 18.1014 15.5 18.036 15.4624C17.8113 15.3321 17.6294 15.0159 17.6294 14.7556C17.6294 14.5711 17.7208 14.4645 17.8544 14.4645C17.9091 14.4645 17.9709 14.4821 18.036 14.52C18.2607 14.65 18.4426 14.9665 18.4429 15.2268C18.4429 15.4113 18.3511 15.5179 18.2175 15.5179Z" fill="white"/>
<path d="M16.1024 24.7528C16.0335 23.6144 15.2504 22.4878 13.7503 21.6188C10.6046 19.7969 5.50456 19.7969 2.35919 21.6188C0.786511 22.5297 0 23.7237 0 24.9176V27.117C0 28.3113 0.786511 29.5052 2.35919 30.4162C5.50456 32.2381 10.6046 32.2381 13.7503 30.4162C15.3229 29.5052 16.1091 28.3113 16.1091 27.117V24.7528H16.1024Z" fill="white"/>
<path d="M13.7503 28.2171C10.6046 30.039 5.50497 30.039 2.35927 28.2171C-0.786097 26.3948 -0.786097 23.4409 2.35927 21.6191C5.50497 19.7968 10.605 19.7968 13.7503 21.6191C16.8957 23.4409 16.8957 26.3948 13.7503 28.2171Z" fill="#A7B2BA"/>
<path d="M16.1024 21.8845C16.0335 20.7461 15.2504 19.6195 13.7503 18.7505C10.6046 16.9287 5.50456 16.9287 2.35919 18.7505C0.786511 19.6615 0 20.8554 0 22.0497V24.2487C0 25.443 0.786511 26.637 2.35919 27.5479C5.50456 29.3698 10.6046 29.3698 13.7503 27.5479C15.3229 26.637 16.1091 25.443 16.1091 24.2487V21.8845H16.1024Z" fill="white"/>
<path d="M13.7503 25.3488C10.6046 27.1707 5.50497 27.1707 2.35927 25.3488C-0.786097 23.5269 -0.786097 20.5727 2.35927 18.7508C5.50497 16.9286 10.605 16.9286 13.7503 18.7508C16.8957 20.5727 16.8957 23.5266 13.7503 25.3488Z" fill="#A7B2BA"/>
<path d="M16.1024 18.9875C16.0335 17.8491 15.2504 16.7225 13.7503 15.8535C10.6046 14.0316 5.50456 14.0316 2.35919 15.8535C0.786511 16.7645 0 17.9584 0 19.1524V21.3517C0 22.546 0.786511 23.74 2.35919 24.6509C5.50456 26.4728 10.6046 26.4728 13.7503 24.6509C15.3229 23.74 16.1091 22.546 16.1091 21.3517V18.9875H16.1024Z" fill="white"/>
<path d="M13.7503 22.4516C10.6046 24.2738 5.50497 24.2738 2.35927 22.4516C-0.786097 20.6297 -0.786097 17.6754 2.35927 15.8535C5.50497 14.0316 10.605 14.0316 13.7503 15.8535C16.8957 17.6754 16.8957 20.6297 13.7503 22.4516Z" fill="#A7B2BA"/>
<path d="M16.1024 16.1193C16.0335 14.9809 15.2504 13.8543 13.7503 12.9853C10.6046 11.1634 5.50456 11.1634 2.35919 12.9853C0.786511 13.8966 0 15.0902 0 16.2842V18.4838C0 19.6778 0.786511 20.8717 2.35919 21.7827C5.50456 23.6049 10.6046 23.6049 13.7503 21.7827C15.3229 20.8717 16.1091 19.6778 16.1091 18.4838V16.1193H16.1024Z" fill="white"/>
<path d="M13.7503 19.5833C10.6046 21.4056 5.50497 21.4056 2.35927 19.5833C-0.786097 17.7614 -0.786097 14.8075 2.35927 12.9853C5.50497 11.1634 10.605 11.1634 13.7503 12.9853C16.8957 14.8075 16.8957 17.7614 13.7503 19.5833Z" fill="#A7B2BA"/>
<path d="M16.1024 13.2226C16.0335 12.0842 15.2504 10.9573 13.7503 10.0883C10.6046 8.26639 5.50456 8.26639 2.35919 10.0883C0.786511 10.9992 0 12.1935 0 13.3875V15.5868C0 16.7808 0.786511 17.9747 2.35919 18.8856C5.50456 20.7079 10.6046 20.7079 13.7503 18.8856C15.3229 17.9747 16.1091 16.7808 16.1091 15.5868V13.2223L16.1024 13.2226Z" fill="white"/>
<path d="M13.7503 16.6863C10.6046 18.5082 5.50497 18.5082 2.35927 16.6863C-0.786097 14.8644 -0.786097 11.9102 2.35927 10.0883C5.50497 8.26639 10.605 8.26639 13.7503 10.0883C16.8957 11.9102 16.8957 14.8644 13.7503 16.6863Z" fill="#A7B2BA"/>
<path d="M13.1538 16.3411C10.3377 17.9721 5.77184 17.9721 2.95579 16.3411C0.139738 14.7098 0.139738 12.065 2.95579 10.434C5.77184 8.80268 10.3377 8.80268 13.1538 10.434C15.9701 12.065 15.9701 14.7098 13.1538 16.3411Z" fill="white"/>
<path d="M3.14483 18.3393C3.14483 18.6551 2.92383 18.7834 2.65086 18.6253C2.37823 18.4676 2.15723 18.083 2.15723 17.7672C2.15723 17.4514 2.37823 17.3231 2.65086 17.4811C2.92383 17.6392 3.14483 18.0234 3.14483 18.3393Z" fill="white"/>
<path d="M1.68972 22.984C1.68972 23.2443 1.50752 23.3499 1.2828 23.2196C1.05842 23.0896 0.876221 22.7731 0.876221 22.5131C0.876221 22.2528 1.05842 22.1472 1.2828 22.2775C1.50752 22.4075 1.68972 22.724 1.68972 22.984Z" fill="#C5BFF0"/>
<path d="M13.1265 18.1085C13.1265 18.4247 13.3475 18.5526 13.6204 18.3946C13.8931 18.2368 14.1141 17.8523 14.1141 17.5364C14.1141 17.2206 13.8931 17.0923 13.6204 17.2504C13.3475 17.4085 13.1265 17.7927 13.1265 18.1085Z" fill="white"/>
<path d="M14.3613 17.2573C14.3613 17.4923 14.5256 17.5877 14.7284 17.4699C14.9316 17.3525 15.0959 17.0668 15.0959 16.8315C15.0959 16.5966 14.9316 16.5011 14.7284 16.6189C14.5256 16.7364 14.3613 17.0221 14.3613 17.2573Z" fill="white"/>
<path d="M13.1265 23.9467C13.1265 24.2625 13.3475 24.3908 13.6204 24.2327C13.8931 24.0746 14.1141 23.6904 14.1141 23.3746C14.1141 23.0584 13.8931 22.9304 13.6204 23.0885C13.3475 23.2463 13.1265 23.6305 13.1265 23.9467Z" fill="white"/>
<path d="M14.3613 23.0958C14.3613 23.3304 14.5256 23.4259 14.7284 23.3084C14.9316 23.191 15.0959 22.9049 15.0959 22.67C15.0959 22.4351 14.9316 22.3396 14.7284 22.4571C14.5256 22.5749 14.3613 22.8606 14.3613 23.0958Z" fill="white"/>
<path d="M11.8259 18.6366C11.8263 18.8445 11.9906 18.9616 12.1927 18.8983C12.3951 18.835 12.5591 18.615 12.5588 18.4071C12.5585 18.1993 12.3941 18.0818 12.1917 18.1454C11.9896 18.2087 11.8256 18.4284 11.8259 18.6366Z" fill="white"/>
<path d="M8.05505 31.7827C6.43243 31.7827 4.80981 31.5004 3.42574 30.9361C4.80948 31.5004 6.43243 31.7824 8.05471 31.7827H8.05505Z" fill="url(#paint1_linear_2731_29588)"/>
<path d="M8.05475 23.8184C6.7827 23.8184 5.51032 23.6451 4.35299 23.2977C4.03144 23.1119 3.73047 22.9264 3.44873 22.7419V22.3123C4.82807 22.8705 6.44158 23.1495 8.05475 23.1495V23.8184Z" fill="#A7B2BA"/>
<path d="M8.05475 23.1493C6.44158 23.1493 4.82807 22.8703 3.44873 22.3121V20.1128C4.82807 20.671 6.44158 20.9499 8.05475 20.9499V23.1493Z" fill="white"/>
<path d="M8.05475 20.9501C6.44158 20.9501 4.82807 20.6712 3.44873 20.113V19.4153C4.82774 19.9735 6.44158 20.2524 8.05475 20.2524V20.9501Z" fill="#A7B2BA"/>
<path d="M8.05475 20.2522C6.44158 20.2522 4.82774 19.9729 3.44873 19.4151V17.2157C3.66872 17.3048 3.89479 17.3867 4.12558 17.4615C5.34263 17.8559 6.69869 18.0529 8.05475 18.0529V20.2522Z" fill="white"/>
<path d="M2.37741 16.6968C2.37134 16.6935 2.36527 16.6901 2.35919 16.6864C2.36527 16.6901 2.371 16.6935 2.37741 16.6968Z" fill="white"/>
<path d="M8.0549 18.053C6.69884 18.053 5.34244 17.8556 4.12573 17.4616C5.34278 17.856 6.69884 18.053 8.0549 18.053Z" fill="#C3BFE1"/>
<path d="M0 24.9179C0 24.9074 2.38889e-06 24.897 0.000339802 24.8865C0.000339802 24.8858 0.000339802 24.8854 0.000339802 24.8848C2.38889e-06 24.8959 0 24.9068 0 24.9179Z" fill="white"/>
<path d="M0 24.9177C0 24.9065 2.38889e-06 24.8957 0.000339802 24.8845C0.00168945 24.7894 0.00978378 24.6943 0.0209184 24.5988C0.00877154 24.7021 0.000677215 24.8053 0.000339802 24.9086L0 24.9177Z" fill="white"/>
<path d="M0 22.0463C0 22.0362 2.38889e-06 22.0264 0.000339802 22.0165C2.38889e-06 22.0264 0 22.0365 0 22.0463Z" fill="url(#paint2_linear_2731_29588)"/>
<path d="M0.0222673 24.5783C0.0101205 24.4791 0.00168945 24.3799 0.000339802 24.2804C2.38889e-06 24.2699 0 24.2594 0 24.2489C0 24.3589 0.00910821 24.4686 0.0222673 24.5783ZM0 24.2489V24.1223V22.6111V22.5428V22.1007V22.0499C0 22.0485 0 22.0475 0 22.0465C0 22.0367 2.38889e-06 22.0265 0.000339802 22.0167C0.000339802 22.016 0.000339802 22.0157 0.000339802 22.015C2.38889e-06 22.0265 0 22.038 0 22.0495V22.0499V24.2489Z" fill="white"/>
<path d="M0 22.0491C0 22.0376 2.38889e-06 22.0261 0.000339802 22.0146C0.00168945 21.9168 0.0101232 21.8193 0.0219327 21.7214C0.00944839 21.8247 0.00134928 21.9283 0.000674455 22.0315L0 22.0491Z" fill="white"/>
<path d="M3.44897 17.216C3.07849 17.0661 2.72488 16.8961 2.39287 16.7059C2.39287 16.7059 2.3932 16.7059 2.3932 16.7062C2.72522 16.8961 3.07849 17.0661 3.44897 17.216ZM2.38983 16.7042C2.38814 16.7035 2.38713 16.7025 2.38578 16.7018C2.3868 16.7025 2.38814 16.7032 2.38916 16.7039C2.38949 16.7039 2.38949 16.7039 2.38983 16.7042ZM2.37869 16.6978C2.37836 16.6978 2.37802 16.6974 2.37769 16.6971C2.37802 16.6971 2.37869 16.6974 2.37869 16.6978Z" fill="white"/>
<path d="M3.44897 17.216C3.07849 17.0661 2.72522 16.8961 2.3932 16.7062C2.72488 16.8958 3.07917 17.0644 3.44897 17.2143V17.216ZM2.37836 16.6978C2.37836 16.6974 2.37802 16.6971 2.37769 16.6971C2.37802 16.6974 2.37836 16.6974 2.37836 16.6978Z" fill="#B8B5D5"/>
<path d="M0.0246305 21.7008C0.011134 21.5955 0.00168945 21.4902 0.000339802 21.3846C2.38889e-06 21.3738 0 21.3629 0 21.3517C0 21.4682 0.00978432 21.5846 0.0246305 21.7008ZM0 21.3517V19.1524C0 19.1419 2.38889e-06 19.1314 0.000339802 19.1209C0.000339802 19.1202 0.000339802 19.1199 0.000339802 19.1192C-0.00134726 19.2475 0.0064113 19.3758 0.0226071 19.5035C0.015184 19.4916 0.00742309 19.4798 0 19.4682V21.3517Z" fill="white"/>
<path d="M3.44876 22.7417C2.41898 22.0674 1.64765 21.4089 1.07101 20.8105C1.41686 21.1581 1.84605 21.4855 2.35925 21.7827C2.70105 21.9807 3.06613 22.1571 3.44876 22.3121V22.7417ZM0.880034 20.6067C0.511916 20.2032 0.233553 19.8308 0.0230068 19.5034C0.0064736 19.3758 -0.000949943 19.2475 0.000399709 19.1192C0.00208677 19.0221 0.0101831 18.9246 0.0219926 18.8274C0.0995976 19.4405 0.385724 20.0464 0.880034 20.6067Z" fill="#A7B2BA"/>
<path d="M3.4487 22.3122C3.06574 22.1572 2.70099 21.9808 2.35919 21.7828C1.84599 21.4856 1.4168 21.1582 1.07095 20.8106C1.00481 20.7419 0.941043 20.6738 0.879634 20.6068C0.385661 20.0466 0.0995377 19.4406 0.0219327 18.8276C0.0222701 18.8245 0.0226095 18.8215 0.0229469 18.8184C0.0104626 18.7172 0.00168945 18.6163 0.000339802 18.5151C2.38889e-06 18.5046 0 18.4941 0 18.484V16.2843C0 16.2734 2.38889e-06 16.2623 0.000339802 16.2515C0.000339802 16.2515 0.000339802 16.2504 0.000339802 16.2498C-0.0151812 17.4556 0.771328 18.6637 2.35919 19.5835C2.70099 19.7815 3.06574 19.9579 3.4487 20.1129V22.3122Z" fill="white"/>
<path d="M3.44882 20.113C3.06619 19.958 2.70111 19.7816 2.35931 19.5836C0.771448 18.6638 -0.0147237 17.4557 0.000459907 16.2502C0.00214697 16.1483 0.0109198 16.0464 0.0237415 15.9445C0.165118 17.0169 0.943866 18.066 2.35931 18.8859C2.70111 19.0839 3.06619 19.2603 3.44882 19.4153V20.113Z" fill="#A7B2BA"/>
<path d="M3.4487 19.4152C3.06574 19.2601 2.70099 19.0838 2.35919 18.8857C0.943408 18.0658 0.164997 17.0164 0.0236214 15.9444C0.0239588 15.9413 0.0242931 15.9386 0.0246305 15.9356C0.011134 15.8303 0.00168945 15.725 0.000339802 15.6197C2.38889e-06 15.6086 0 15.5977 0 15.5869V13.4045C0.0077605 14.593 0.793934 15.7799 2.35919 16.6864C2.36527 16.6901 2.37134 16.6935 2.37741 16.6969L2.37842 16.6976C2.38078 16.6989 2.38315 16.7003 2.38551 16.7016C2.38686 16.7023 2.38787 16.703 2.38956 16.704C2.39057 16.7043 2.39158 16.705 2.3926 16.7057C2.72461 16.8959 3.07822 17.0659 3.4487 17.2158V19.4152ZM2.43039 17.4132C2.26843 17.4132 2.15708 17.5428 2.15708 17.7669C2.15708 18.0828 2.37809 18.467 2.65072 18.6251C2.73001 18.6708 2.80491 18.6928 2.87138 18.6928C3.03334 18.6928 3.14469 18.5631 3.14469 18.339C3.14469 18.0232 2.92368 17.639 2.65072 17.4809C2.57143 17.4349 2.49652 17.4132 2.43039 17.4132Z" fill="white"/>
<path d="M2.87153 18.693C2.80506 18.693 2.73015 18.671 2.65086 18.6253C2.37823 18.4673 2.15723 18.083 2.15723 17.7672C2.15723 17.5431 2.26857 17.4135 2.43053 17.4135C2.49666 17.4135 2.57157 17.4351 2.65086 17.4812C2.92383 17.6392 3.14483 18.0235 3.14483 18.3393C3.14483 18.5634 3.03348 18.693 2.87153 18.693Z" fill="white"/>
<path d="M3.41485 30.9318C3.04707 30.7815 2.6965 30.6113 2.36719 30.421C2.6965 30.6113 3.04741 30.7815 3.41485 30.9318Z" fill="white"/>
<path d="M0.0234375 21.7096C0.0241123 21.7066 0.0241092 21.7039 0.0244466 21.7009V21.7012C0.0241092 21.7039 0.0241123 21.7066 0.0234375 21.7096Z" fill="white"/>
<path d="M3.44904 22.9813C3.06608 22.8263 2.70133 22.6499 2.35954 22.4519C0.941051 21.6303 0.162301 20.5785 0.0229492 19.5041C0.233495 19.8311 0.512198 20.2035 0.880316 20.607C0.940713 20.6757 1.00448 20.7437 1.07129 20.8108C1.64793 21.4093 2.41892 22.0677 3.44904 22.742V22.9813Z" fill="#A7B2BA"/>
<path d="M1.07086 20.8101C1.00405 20.7433 0.94028 20.6755 0.879883 20.607C0.940955 20.6738 1.00472 20.7416 1.07086 20.8101Z" fill="white"/>
<path d="M1.46466 23.2755C1.41 23.2755 1.34826 23.2575 1.2828 23.2196C1.05842 23.0896 0.876221 22.7731 0.876221 22.5131C0.876221 22.3283 0.967657 22.2217 1.10127 22.2217C1.15593 22.2217 1.21768 22.2396 1.2828 22.2775C1.50752 22.4075 1.68972 22.724 1.68972 22.984C1.68972 23.1685 1.59794 23.2755 1.46466 23.2755Z" fill="white"/>
<path d="M49.993 25.1196C49.9242 23.9812 49.141 22.8546 47.6409 21.9857C44.4952 20.1638 39.3952 20.1638 36.2498 21.9857C34.6771 22.8966 33.8906 24.0905 33.8906 25.2845V27.4838C33.8906 28.6781 34.6771 29.8721 36.2498 30.783C39.3952 32.6049 44.4952 32.6049 47.6409 30.783C49.2136 29.8721 49.9997 28.6781 49.9997 27.4838V25.1196H49.993Z" fill="white"/>
<path d="M47.6407 28.5836C44.495 30.4055 39.3953 30.4055 36.2496 28.5836C33.1043 26.7613 33.1043 23.8074 36.2496 21.9855C39.3953 20.1633 44.4953 20.1633 47.6407 21.9855C50.7861 23.8074 50.7861 26.7613 47.6407 28.5836Z" fill="#A7B2BA"/>
<path d="M49.993 22.2514C49.9242 21.1129 49.141 19.9864 47.6409 19.1174C44.4952 17.2955 39.3952 17.2955 36.2498 19.1174C34.6771 20.0283 33.8906 21.2223 33.8906 22.4166V24.6156C33.8906 25.8099 34.6771 27.0038 36.2498 27.9148C39.3952 29.7367 44.4952 29.7367 47.6409 27.9148C49.2136 27.0038 49.9997 25.8099 49.9997 24.6156V22.2514H49.993Z" fill="white"/>
<path d="M47.6407 25.7156C44.495 27.5375 39.3953 27.5375 36.2496 25.7156C33.1043 23.8937 33.1043 20.9395 36.2496 19.1176C39.3953 17.2954 44.4953 17.2954 47.6407 19.1176C50.7861 20.9395 50.7861 23.8934 47.6407 25.7156Z" fill="#A7B2BA"/>
<path d="M49.993 19.3543C49.9242 18.2158 49.141 17.0892 47.6409 16.2203C44.4952 14.3984 39.3952 14.3984 36.2498 16.2203C34.6771 17.1312 33.8906 18.3252 33.8906 19.5191V21.7185C33.8906 22.9127 34.6771 24.1067 36.2498 25.0176C39.3952 26.8395 44.4952 26.8395 47.6409 25.0176C49.2136 24.1067 49.9997 22.9127 49.9997 21.7185V19.3543H49.993Z" fill="white"/>
<path d="M47.6407 22.8183C44.495 24.6406 39.3953 24.6406 36.2496 22.8183C33.1043 20.9965 33.1043 18.0422 36.2496 16.2203C39.3953 14.3984 44.4953 14.3984 47.6407 16.2203C50.7861 18.0422 50.7861 20.9965 47.6407 22.8183Z" fill="#A7B2BA"/>
<path d="M49.993 16.486C49.9242 15.3476 49.141 14.221 47.6409 13.352C44.4952 11.5302 39.3952 11.5302 36.2498 13.352C34.6771 14.2633 33.8906 15.4569 33.8906 16.6509V18.8506C33.8906 20.0445 34.6771 21.2385 36.2498 22.1494C39.3952 23.9716 44.4952 23.9716 47.6409 22.1494C49.2136 21.2385 49.9997 20.0445 49.9997 18.8506V16.486H49.993Z" fill="white"/>
<path d="M47.6407 19.9501C44.495 21.7724 39.3953 21.7724 36.2496 19.9501C33.1043 18.1282 33.1043 15.1743 36.2496 13.3521C39.3953 11.5302 44.4953 11.5302 47.6407 13.3521C50.7861 15.1743 50.7861 18.1282 47.6407 19.9501Z" fill="#A7B2BA"/>
<path d="M49.993 13.5892C49.9242 12.4508 49.141 11.3239 47.6409 10.4549C44.4952 8.63303 39.3952 8.63303 36.2498 10.4549C34.6771 11.3659 33.8906 12.5602 33.8906 13.7541V15.9534C33.8906 17.1474 34.6771 18.3413 36.2498 19.2523C39.3952 21.0745 44.4952 21.0745 47.6409 19.2523C49.2136 18.3413 49.9997 17.1474 49.9997 15.9534V13.5889L49.993 13.5892Z" fill="white"/>
<path d="M47.6407 17.0531C44.495 18.875 39.3953 18.875 36.2496 17.0531C33.1043 15.2312 33.1043 12.277 36.2496 10.4551C39.3953 8.63321 44.4953 8.63321 47.6407 10.4551C50.7861 12.277 50.7861 15.2312 47.6407 17.0531Z" fill="#A7B2BA"/>
<path d="M47.0441 16.7079C44.2281 18.3389 39.6622 18.3389 36.8462 16.7079C34.0301 15.0766 34.0301 12.4318 36.8462 10.8008C39.6622 9.1695 44.2281 9.1695 47.0441 10.8008C49.8605 12.4318 49.8605 15.0766 47.0441 16.7079Z" fill="white"/>
<path d="M37.0352 18.7059C37.0352 19.0217 36.8142 19.15 36.5412 18.9919C36.2686 18.8342 36.0476 18.4496 36.0476 18.1338C36.0476 17.8179 36.2686 17.6896 36.5412 17.8477C36.8142 18.0058 37.0352 18.39 37.0352 18.7059Z" fill="white"/>
<path d="M35.5801 23.3508C35.5801 23.6112 35.3979 23.7168 35.1732 23.5865C34.9488 23.4565 34.7666 23.14 34.7666 22.88C34.7666 22.6197 34.9488 22.514 35.1732 22.6444C35.3979 22.7744 35.5801 23.0909 35.5801 23.3508Z" fill="#C5BFF0"/>
<path d="M47.0168 18.4753C47.0168 18.7915 47.2379 18.9194 47.5108 18.7613C47.7834 18.6036 48.0045 18.219 48.0045 17.9032C48.0045 17.5874 47.7834 17.4591 47.5108 17.6172C47.2379 17.7752 47.0168 18.1595 47.0168 18.4753Z" fill="white"/>
<path d="M47.0168 24.3135C47.0168 24.6293 47.2379 24.7576 47.5108 24.5995C47.7834 24.4414 48.0045 24.0572 48.0045 23.7414C48.0045 23.4252 47.7834 23.2972 47.5108 23.4553C47.2379 23.6131 47.0168 23.9973 47.0168 24.3135Z" fill="white"/>
<path d="M45.7168 19.0036C45.7171 19.2115 45.8815 19.3286 46.0836 19.2653C46.286 19.202 46.45 18.9819 46.4497 18.7741C46.4493 18.5662 46.285 18.4488 46.0826 18.5124C45.8804 18.5757 45.7165 18.7954 45.7168 19.0036Z" fill="white"/>
<path d="M41.9454 32.1496C40.3228 32.1496 38.7002 31.8673 37.3161 31.3029C38.6999 31.8673 40.3228 32.1492 41.9451 32.1496H41.9454Z" fill="url(#paint3_linear_2731_29588)"/>
<path d="M41.9459 24.1852C40.6738 24.1852 39.4014 24.0118 38.2441 23.6645C37.9226 23.4787 37.6216 23.2932 37.3398 23.1087V22.6791C38.7192 23.2373 40.3327 23.5163 41.9459 23.5163V24.1852Z" fill="#A7B2BA"/>
<path d="M41.9459 23.516C40.3327 23.516 38.7192 23.2371 37.3398 22.6789V20.4796C38.7192 21.0378 40.3327 21.3167 41.9459 21.3167V23.516Z" fill="white"/>
<path d="M41.9459 21.3169C40.3327 21.3169 38.7192 21.038 37.3398 20.4798V19.7821C38.7189 20.3403 40.3327 20.6192 41.9459 20.6192V21.3169Z" fill="#A7B2BA"/>
<path d="M41.9459 20.619C40.3327 20.619 38.7189 20.3397 37.3398 19.7819V17.5825C37.5598 17.6715 37.7859 17.7535 38.0167 17.8283C39.2337 18.2226 40.5898 18.4197 41.9459 18.4197V20.619Z" fill="white"/>
<path d="M36.268 17.0638C36.262 17.0604 36.2559 17.057 36.2498 17.0533C36.2559 17.057 36.2616 17.0604 36.268 17.0638Z" fill="white"/>
<path d="M41.9458 18.4198C40.5897 18.4198 39.2333 18.2224 38.0166 17.8284C39.2337 18.2228 40.5897 18.4198 41.9458 18.4198Z" fill="#C3BFE1"/>
<path d="M33.8906 25.2847C33.8906 25.2742 33.8906 25.2637 33.891 25.2532C33.891 25.2525 33.891 25.2522 33.891 25.2515C33.8906 25.2627 33.8906 25.2735 33.8906 25.2847Z" fill="white"/>
<path d="M33.8906 25.2843C33.8906 25.2731 33.8906 25.2623 33.891 25.2511C33.8923 25.156 33.9004 25.0609 33.9115 24.9654C33.8994 25.0687 33.8913 25.1719 33.891 25.2752L33.8906 25.2843Z" fill="white"/>
<path d="M33.8906 22.4131C33.8906 22.4029 33.8906 22.3931 33.891 22.3833C33.8906 22.3931 33.8906 22.4032 33.8906 22.4131Z" fill="url(#paint4_linear_2731_29588)"/>
<path d="M33.9129 24.945C33.9007 24.8459 33.8923 24.7467 33.891 24.6472C33.8906 24.6367 33.8906 24.6262 33.8906 24.6157C33.8906 24.7257 33.8997 24.8354 33.9129 24.945ZM33.8906 24.6157V24.4891V22.9779V22.9095V22.4674V22.4167C33.8906 22.4153 33.8906 22.4143 33.8906 22.4133C33.8906 22.4035 33.8906 22.3933 33.891 22.3835C33.891 22.3828 33.891 22.3825 33.891 22.3818C33.8906 22.3933 33.8906 22.4048 33.8906 22.4163V22.4167V24.6157Z" fill="white"/>
<path d="M33.8906 22.4161C33.8906 22.4045 33.8906 22.393 33.891 22.3815C33.8923 22.2837 33.9007 22.1862 33.9126 22.0884C33.9001 22.1916 33.892 22.2952 33.8913 22.3985L33.8906 22.4161Z" fill="white"/>
<path d="M37.3394 17.5828C36.9689 17.4329 36.6153 17.2629 36.2832 17.0727C36.2832 17.0727 36.2836 17.0727 36.2836 17.073C36.6156 17.2629 36.9689 17.4329 37.3394 17.5828ZM36.2802 17.071C36.2785 17.0703 36.2775 17.0693 36.2762 17.0686C36.2772 17.0693 36.2785 17.07 36.2795 17.0707C36.2799 17.0707 36.2799 17.0706 36.2802 17.071ZM36.2691 17.0646C36.2687 17.0646 36.2684 17.0642 36.2681 17.0639C36.2684 17.0639 36.2691 17.0642 36.2691 17.0646Z" fill="white"/>
<path d="M37.3394 17.5828C36.9689 17.4329 36.6156 17.2629 36.2836 17.073C36.6153 17.2626 36.9695 17.4312 37.3394 17.5811V17.5828ZM36.2687 17.0646C36.2687 17.0642 36.2684 17.0639 36.2681 17.0639C36.2684 17.0642 36.2687 17.0642 36.2687 17.0646Z" fill="#B8B5D5"/>
<path d="M33.9153 22.0677C33.9018 21.9624 33.8923 21.8571 33.891 21.7515C33.8906 21.7407 33.8906 21.7298 33.8906 21.7187C33.8906 21.8351 33.9004 21.9516 33.9153 22.0677ZM33.8906 21.7187V19.5193C33.8906 19.5088 33.8906 19.4983 33.891 19.4878C33.891 19.4872 33.891 19.4868 33.891 19.4861C33.8893 19.6144 33.897 19.7427 33.9132 19.8704C33.9058 19.8585 33.898 19.8467 33.8906 19.8352V21.7187Z" fill="white"/>
<path d="M37.3391 23.1085C36.3094 22.4342 35.538 21.7758 34.9614 21.1773C35.3072 21.5249 35.7364 21.8523 36.2496 22.1495C36.5914 22.3475 36.9565 22.5239 37.3391 22.6789V23.1085ZM34.7704 20.9735C34.4023 20.57 34.1239 20.1976 33.9134 19.8703C33.8969 19.7426 33.8894 19.6143 33.8908 19.486C33.8925 19.3889 33.9006 19.2914 33.9124 19.1942C33.99 19.8073 34.2761 20.4132 34.7704 20.9735Z" fill="#A7B2BA"/>
<path d="M37.3393 22.6789C36.9564 22.5239 36.5916 22.3475 36.2498 22.1495C35.7366 21.8523 35.3074 21.5249 34.9616 21.1772C34.8954 21.1085 34.8317 21.0405 34.7703 20.9735C34.2763 20.4132 33.9902 19.8073 33.9126 19.1942C33.9129 19.1912 33.9132 19.1881 33.9136 19.1851C33.9011 19.0839 33.8923 18.983 33.891 18.8818C33.8906 18.8713 33.8906 18.8608 33.8906 18.8506V16.6509C33.8906 16.6401 33.8906 16.629 33.891 16.6181C33.891 16.6181 33.891 16.6171 33.891 16.6164C33.8754 17.8222 34.662 19.0304 36.2498 19.9501C36.5916 20.1482 36.9564 20.3245 37.3393 20.4796V22.6789Z" fill="white"/>
<path d="M37.3392 20.4798C36.9566 20.3248 36.5915 20.1484 36.2497 19.9504C34.6618 19.0306 33.8757 17.8225 33.8908 16.617C33.8925 16.5151 33.9013 16.4132 33.9141 16.3113C34.0555 17.3837 34.8342 18.4328 36.2497 19.2527C36.5915 19.4507 36.9566 19.6271 37.3392 19.7821V20.4798Z" fill="#A7B2BA"/>
<path d="M37.3393 19.7819C36.9564 19.6269 36.5916 19.4505 36.2498 19.2525C34.834 18.4326 34.0556 17.3832 33.9142 16.3111C33.9146 16.3081 33.9149 16.3054 33.9153 16.3023C33.9018 16.197 33.8923 16.0918 33.891 15.9865C33.8906 15.9753 33.8906 15.9645 33.8906 15.9537V13.7712C33.8984 14.9598 34.6846 16.1466 36.2498 17.0532C36.2559 17.0569 36.262 17.0603 36.268 17.0636L36.269 17.0643C36.2714 17.0657 36.2738 17.067 36.2761 17.0684C36.2775 17.0691 36.2785 17.0697 36.2802 17.0707C36.2812 17.0711 36.2822 17.0718 36.2832 17.0724C36.6152 17.2627 36.9688 17.4326 37.3393 17.5826V19.7819ZM36.321 17.7799C36.1591 17.7799 36.0477 17.9096 36.0477 18.1337C36.0477 18.4495 36.2687 18.8337 36.5413 18.9918C36.6206 19.0375 36.6955 19.0595 36.762 19.0595C36.924 19.0595 37.0353 18.9299 37.0353 18.7058C37.0353 18.39 36.8143 18.0057 36.5413 17.8476C36.4621 17.8016 36.3871 17.7799 36.321 17.7799Z" fill="white"/>
<path d="M36.7619 19.0593C36.6954 19.0593 36.6205 19.0373 36.5412 18.9916C36.2686 18.8335 36.0476 18.4493 36.0476 18.1335C36.0476 17.9094 36.159 17.7797 36.3209 17.7797C36.387 17.7797 36.4619 17.8014 36.5412 17.8474C36.8142 18.0055 37.0352 18.3897 37.0352 18.7056C37.0352 18.9297 36.9239 19.0593 36.7619 19.0593Z" fill="white"/>
<path d="M37.306 31.2986C36.9382 31.1483 36.5876 30.9781 36.2583 30.7878C36.5876 30.9781 36.9385 31.1483 37.306 31.2986Z" fill="white"/>
<path d="M33.9146 22.0762C33.9152 22.0731 33.9152 22.0704 33.9156 22.0674V22.0677C33.9152 22.0704 33.9152 22.0731 33.9146 22.0762Z" fill="white"/>
<path d="M37.3394 23.3481C36.9565 23.1931 36.5917 23.0167 36.2499 22.8187C34.8314 21.9971 34.0527 20.9453 33.9133 19.8709C34.1239 20.1979 34.4026 20.5703 34.7707 20.9738C34.8311 21.0425 34.8949 21.1105 34.9617 21.1775C35.5383 21.776 36.3093 22.4345 37.3394 23.1088V23.3481Z" fill="#A7B2BA"/>
<path d="M34.9615 21.1765C34.8947 21.1097 34.8309 21.0419 34.7705 20.9734C34.8316 21.0402 34.8953 21.108 34.9615 21.1765Z" fill="white"/>
<path d="M35.355 23.6423C35.3004 23.6423 35.2386 23.6244 35.1732 23.5865C34.9488 23.4565 34.7666 23.14 34.7666 22.88C34.7666 22.6952 34.858 22.5885 34.9917 22.5885C35.0463 22.5885 35.1081 22.6065 35.1732 22.6444C35.3979 22.7744 35.5801 23.0909 35.5801 23.3509C35.5801 23.5354 35.4883 23.6423 35.355 23.6423Z" fill="white"/>
<path d="M34.3662 28.3655C34.3662 28.355 34.3665 28.3445 34.3665 28.334C34.3665 28.3334 34.3665 28.333 34.3665 28.3323C34.3665 28.3435 34.3662 28.3543 34.3662 28.3655Z" fill="#7972B6"/>
<path d="M34.3662 28.3656C34.3662 28.3545 34.3665 28.3436 34.3665 28.3325C34.3682 28.2373 34.376 28.1422 34.3871 28.0468C34.375 28.15 34.3669 28.2533 34.3665 28.3565L34.3662 28.3656Z" fill="#524B87"/>
<path d="M34.3662 27.5705V26.059V27.5702V27.5705ZM34.3662 25.4944C34.3662 25.4842 34.3665 25.4744 34.3665 25.4646C34.3665 25.4744 34.3665 25.4846 34.3662 25.4944Z" fill="url(#paint5_linear_2731_29588)"/>
<path d="M34.3665 27.7277C34.3665 27.7172 34.3662 27.7071 34.3662 27.6966V27.5704V27.5701V27.6966C34.3662 27.7068 34.3665 27.7172 34.3665 27.7277Z" fill="url(#paint6_linear_2731_29588)"/>
<path d="M34.3885 28.0261C34.3763 27.9266 34.3679 27.8274 34.3665 27.7279C34.3665 27.7178 34.3662 27.7069 34.3662 27.6968C34.3662 27.8064 34.3753 27.9165 34.3885 28.0261ZM34.3662 27.6968V27.5698V26.0587V25.9906V25.5485V25.4974C34.3662 25.4961 34.3662 25.4951 34.3662 25.494C34.3665 25.4842 34.3665 25.4741 34.3665 25.4643C34.3665 25.4639 34.3665 25.4632 34.3665 25.4629C34.3665 25.4741 34.3665 25.4859 34.3662 25.4971V25.4974V27.6968Z" fill="#7972B6"/>
<path d="M34.3662 25.4971C34.3665 25.4859 34.3665 25.474 34.3665 25.4629C34.3682 25.365 34.3763 25.2672 34.3885 25.1697C34.3757 25.273 34.3676 25.3762 34.3669 25.4798L34.3662 25.4971Z" fill="#524B87"/>
<path d="M34.3908 25.1485C34.3773 25.0432 34.3682 24.938 34.3665 24.8323C34.3665 24.8215 34.3662 24.8107 34.3662 24.7995C34.3662 24.916 34.376 25.0324 34.3908 25.1485ZM34.3662 24.7995V22.6002C34.3662 22.5897 34.3665 22.5792 34.3665 22.5687C34.3665 22.568 34.3665 22.5677 34.3665 22.567C34.3649 22.6953 34.3726 22.8236 34.3888 22.9512C34.3814 22.9394 34.3736 22.9275 34.3662 22.916V24.7995Z" fill="#7972B6"/>
<path d="M34.3899 25.1575C34.3902 25.1544 34.3906 25.1517 34.3909 25.1487V25.149C34.3906 25.1517 34.3902 25.1544 34.3899 25.1575Z" fill="#8078C0"/>
<path d="M35.4373 24.2576C35.3705 24.1908 35.3067 24.1229 35.2463 24.0544C35.3074 24.1216 35.3712 24.1891 35.4373 24.2576Z" fill="#6D66A3"/>
<path d="M33.7152 35.9584C33.6461 34.8196 32.8629 33.6933 31.3628 32.8244C28.2174 31.0021 23.1174 31.0021 19.9717 32.8244C18.3991 33.735 17.6125 34.9293 17.6125 36.1232V38.3226C17.6125 39.5165 18.3991 40.7104 19.9717 41.6214C23.1174 43.4436 28.2171 43.4436 31.3628 41.6214C32.9355 40.7104 33.722 39.5165 33.722 38.3226V35.958L33.7152 35.9584Z" fill="white"/>
<path d="M31.3633 39.4221C28.2176 41.2444 23.1179 41.2444 19.9726 39.4221C16.8269 37.6002 16.8269 34.646 19.9726 32.8241C23.1179 31.0022 28.2179 31.0022 31.3633 32.8241C34.5086 34.646 34.5086 37.6002 31.3633 39.4221Z" fill="#A7B2BA"/>
<path d="M33.7152 33.0901C33.6461 31.9514 32.8629 30.8251 31.3628 29.9562C28.2174 28.1339 23.1174 28.1339 19.9717 29.9562C18.3991 30.8671 17.6125 32.061 17.6125 33.255V35.4543C17.6125 36.6483 18.3991 37.8422 19.9717 38.7535C23.1174 40.5754 28.2171 40.5754 31.3628 38.7535C32.9355 37.8422 33.722 36.6483 33.722 35.4543V33.0901H33.7152Z" fill="white"/>
<path d="M31.3633 36.5542C28.2176 38.3761 23.1179 38.3761 19.9726 36.5542C16.8269 34.7323 16.8269 31.778 19.9726 29.9562C23.1179 28.1339 28.2179 28.1339 31.3633 29.9562C34.5086 31.778 34.5086 34.7319 31.3633 36.5542Z" fill="#A7B2BA"/>
<path d="M33.7152 30.1935C33.6461 29.0551 32.8629 27.9285 31.3628 27.0595C28.2174 25.2376 23.1174 25.2376 19.9717 27.0595C18.3991 27.9705 17.6125 29.1644 17.6125 30.3583V32.5577C17.6125 33.752 18.3991 34.9459 19.9717 35.8569C23.1174 37.6787 28.2171 37.6787 31.3628 35.8569C32.9355 34.9459 33.722 33.752 33.722 32.5577V30.1935H33.7152Z" fill="white"/>
<path d="M31.3633 33.6575C28.2176 35.4794 23.1179 35.4794 19.9726 33.6575C16.8269 31.8356 16.8269 28.8814 19.9726 27.0595C23.1179 25.2376 28.2179 25.2376 31.3633 27.0595C34.5086 28.8814 34.5086 31.8353 31.3633 33.6575Z" fill="#A7B2BA"/>
<path d="M33.7152 27.3249C33.6461 26.1865 32.8629 25.0599 31.3628 24.1909C28.2174 22.3691 23.1174 22.3691 19.9717 24.1909C18.3991 25.1019 17.6125 26.2958 17.6125 27.4898V29.6895C17.6125 30.8834 18.3991 32.0774 19.9717 32.9883C23.1174 34.8105 28.2171 34.8105 31.3628 32.9883C32.9355 32.0774 33.722 30.8834 33.722 29.6895V27.3249H33.7152Z" fill="white"/>
<path d="M31.3633 30.789C28.2176 32.6109 23.1179 32.6109 19.9726 30.789C16.8269 28.9671 16.8269 26.0128 19.9726 24.1909C23.1179 22.3691 28.2179 22.3691 31.3633 24.1909C34.5086 26.0128 34.5086 28.9671 31.3633 30.789Z" fill="#A7B2BA"/>
<path d="M33.7152 24.4279C33.6461 23.2895 32.8629 22.1629 31.3628 21.2939C28.2174 19.472 23.1174 19.472 19.9717 21.2939C18.3991 22.2049 17.6125 23.3988 17.6125 24.5931V26.7921C17.6125 27.9864 18.3991 29.1804 19.9717 30.0913C23.1174 31.9132 28.2171 31.9132 31.3628 30.0913C32.9355 29.1804 33.722 27.9864 33.722 26.7921V24.4279H33.7152Z" fill="white"/>
<path d="M31.3633 27.892C28.2176 29.7139 23.1179 29.7139 19.9726 27.892C16.8269 26.0701 16.8269 23.1158 19.9726 21.2939C23.1179 19.472 28.2179 19.472 31.3633 21.2939C34.5086 23.1158 34.5086 26.0701 31.3633 27.892Z" fill="#A7B2BA"/>
<path d="M30.7668 27.5465C27.9507 29.1778 23.3849 29.1778 20.5688 27.5465C17.7528 25.9155 17.7528 23.2707 20.5688 21.6393C23.3849 20.008 27.9507 20.008 30.7668 21.6393C33.5832 23.2707 33.5832 25.9155 30.7668 27.5465Z" fill="white"/>
<path d="M20.7579 29.5448C20.7579 29.8606 20.5369 29.9889 20.2642 29.8308C19.9913 29.6727 19.7703 29.2885 19.7703 28.9727C19.7703 28.6565 19.9913 28.5285 20.2642 28.6866C20.5369 28.8447 20.7579 29.2289 20.7579 29.5448Z" fill="white"/>
<path d="M19.3018 34.1899C19.3018 34.4503 19.1196 34.5555 18.8952 34.4255C18.6705 34.2956 18.4883 33.979 18.4883 33.7187C18.4883 33.4584 18.6705 33.3531 18.8952 33.4835C19.1196 33.6134 19.3018 33.93 19.3018 34.1899Z" fill="#C5BFF0"/>
<path d="M30.7395 29.3141C30.7395 29.63 30.9608 29.7579 31.2335 29.6002C31.5061 29.4421 31.7274 29.0579 31.7274 28.742C31.7274 28.4262 31.5061 28.2979 31.2335 28.456C30.9608 28.6141 30.7395 28.998 30.7395 29.3141Z" fill="white"/>
<path d="M31.9741 28.4625C31.9741 28.6975 32.1388 28.7929 32.3416 28.6755C32.5443 28.558 32.709 28.272 32.709 28.037C32.709 27.8021 32.5443 27.7066 32.3416 27.8241C32.1388 27.9419 31.9741 28.2276 31.9741 28.4625Z" fill="white"/>
<path d="M30.7395 35.1524C30.7395 35.4686 30.9608 35.5966 31.2335 35.4385C31.5061 35.2807 31.7274 34.8965 31.7274 34.5807C31.7274 34.2645 31.5061 34.1365 31.2335 34.2943C30.9608 34.4524 30.7395 34.8366 30.7395 35.1524Z" fill="white"/>
<path d="M31.9741 34.3007C31.9741 34.5356 32.1388 34.6311 32.3416 34.5136C32.5443 34.3962 32.709 34.1101 32.709 33.8752C32.709 33.6399 32.5443 33.5448 32.3416 33.6623C32.1388 33.7801 31.9741 34.0658 31.9741 34.3007Z" fill="white"/>
<path d="M29.4385 29.842C29.4388 30.0498 29.6031 30.167 29.8056 30.1037C30.0077 30.0404 30.1717 29.8203 30.1713 29.6125C30.171 29.4043 30.0067 29.2872 29.8046 29.3508C29.6021 29.4138 29.4381 29.6338 29.4385 29.842Z" fill="white"/>
<path d="M25.6676 42.9883C24.045 42.9883 22.4224 42.7063 21.0383 42.1416C22.4224 42.7059 24.0453 42.9883 25.6673 42.9883H25.6676Z" fill="#F5F5F5"/>
<path d="M25.6678 35.0234C24.3954 35.0234 23.123 34.85 21.966 34.5031C21.6441 34.3172 21.3432 34.1314 21.0618 33.9472V33.5176C22.4408 34.0755 24.0543 34.3548 25.6678 34.3548V35.0234Z" fill="#A7B2BA"/>
<path d="M25.6678 34.3549C24.0543 34.3549 22.4408 34.0759 21.0618 33.5177V31.3184C22.4408 31.8766 24.0543 32.1555 25.6675 32.1555H25.6678V34.3549Z" fill="white"/>
<path d="M25.6675 32.1555C24.0543 32.1555 22.4408 31.8765 21.0618 31.3183V30.6206C22.4404 31.1785 24.0543 31.4578 25.6675 31.4578H25.6678V32.1555H25.6675Z" fill="#A7B2BA"/>
<path d="M25.6675 31.4579C24.0543 31.4579 22.4404 31.1786 21.0618 30.6207V28.4214C21.2818 28.5104 21.5075 28.592 21.7383 28.6672C22.9553 29.0612 24.3117 29.2585 25.6678 29.2585V31.4579H25.6675Z" fill="white"/>
<path d="M17.6125 36.1233C17.6125 36.1128 17.6129 36.1023 17.6129 36.0915C17.6129 36.0911 17.6129 36.0905 17.6129 36.0901C17.6129 36.1013 17.6125 36.1118 17.6125 36.123V36.1233Z" fill="white"/>
<path d="M17.6125 36.123C17.6125 36.1122 17.6129 36.1013 17.6129 36.0901C17.6146 35.9947 17.6223 35.8996 17.6338 35.8044C17.6213 35.9077 17.6136 36.0106 17.6129 36.1142L17.6125 36.123Z" fill="white"/>
<path d="M17.6125 33.252C17.6125 33.2418 17.6129 33.232 17.6129 33.2219C17.6129 33.232 17.6129 33.2418 17.6125 33.252Z" fill="url(#paint7_linear_2731_29588)"/>
<path d="M17.6348 35.7839C17.6227 35.6847 17.6142 35.5852 17.6129 35.486C17.6129 35.4755 17.6125 35.465 17.6125 35.4545C17.6125 35.5645 17.6217 35.6742 17.6348 35.7839ZM17.6125 35.4545V35.3279V33.8164V33.7484V33.3063V33.2552C17.6125 33.2542 17.6125 33.2531 17.6125 33.2518C17.6129 33.242 17.6129 33.2322 17.6129 33.222C17.6129 33.2217 17.6129 33.221 17.6129 33.2206C17.6129 33.2322 17.6129 33.244 17.6125 33.2552V35.4545Z" fill="white"/>
<path d="M17.6125 33.255C17.6129 33.2435 17.6129 33.232 17.6129 33.2205C17.6146 33.1227 17.6227 33.0252 17.6348 32.9273C17.622 33.0306 17.6142 33.1342 17.6136 33.2374L17.6125 33.255Z" fill="white"/>
<path d="M21.0615 28.4213C20.691 28.271 20.3374 28.1011 20.0054 27.9109L20.0058 27.9112C20.3378 28.1015 20.691 28.2714 21.0615 28.4213ZM20.0024 27.9092C20.001 27.9085 19.9997 27.9078 19.9983 27.9068L19.9987 27.9071C19.9997 27.9078 20.0007 27.9082 20.0017 27.9088L20.0024 27.9092ZM19.9916 27.9031C19.9909 27.9027 19.9902 27.9024 19.9902 27.9024L19.9909 27.9027L19.9916 27.9031Z" fill="white"/>
<path d="M21.0615 28.4213C20.6914 28.2714 20.3378 28.1015 20.0058 27.9112C20.3378 28.1011 20.6917 28.2697 21.0615 28.4197V28.4213Z" fill="#B8B5D5"/>
<path d="M17.6372 32.906C17.6237 32.8011 17.6146 32.6955 17.6129 32.5902C17.6129 32.579 17.6125 32.5682 17.6125 32.5574C17.6125 32.6738 17.6223 32.7899 17.6372 32.906ZM17.6125 32.5574V30.358C17.6125 30.3475 17.6129 30.3371 17.6129 30.3262C17.6129 30.3259 17.6129 30.3252 17.6129 30.3249C17.6112 30.4528 17.619 30.5815 17.6355 30.7091C17.6277 30.6972 17.6203 30.6854 17.6125 30.6735V32.5574Z" fill="white"/>
<path d="M21.0618 33.9473C20.032 33.273 19.2607 32.6146 18.684 32.0161C19.0299 32.3638 19.4594 32.6911 19.9726 32.9883C20.3141 33.1864 20.6792 33.3627 21.0618 33.5178V33.9473ZM18.4931 31.8123C18.125 31.4088 17.8466 31.0364 17.636 30.7091C17.6195 30.5815 17.6121 30.4532 17.6134 30.3249C17.6151 30.2277 17.6232 30.1302 17.635 30.0331C17.713 30.6461 17.9988 31.2521 18.4931 31.8123Z" fill="#A7B2BA"/>
<path d="M21.0612 33.5179C20.6783 33.3629 20.3135 33.1865 19.9717 32.9885C19.4585 32.6912 19.0293 32.3639 18.6835 32.0162C18.6174 31.9475 18.5536 31.8795 18.4925 31.8125C17.9982 31.2522 17.7121 30.6463 17.6345 30.0332C17.6348 30.0302 17.6352 30.0271 17.6355 30.0237C17.623 29.9229 17.6146 29.822 17.6129 29.7208C17.6129 29.7103 17.6125 29.6998 17.6125 29.6896V27.4899C17.6125 27.4791 17.6129 27.4679 17.6129 27.4571C17.6129 27.4564 17.6129 27.4561 17.6129 27.4554C17.5977 28.6612 18.3839 29.8694 19.9717 30.7891C20.3135 30.9871 20.6783 31.1635 21.0612 31.3186V33.5179Z" fill="white"/>
<path d="M21.0619 31.3183C20.6792 31.1633 20.3145 30.9869 19.9727 30.7889C18.3845 29.8691 17.5983 28.6606 17.6135 27.4552C17.6152 27.3533 17.6243 27.2514 17.6371 27.1498C17.7785 28.2219 18.5569 29.271 19.9727 30.0912C20.3145 30.2892 20.6792 30.4656 21.0619 30.6207V31.3183Z" fill="#A7B2BA"/>
<path d="M21.0612 30.6208C20.6783 30.4658 20.3135 30.2894 19.9717 30.0914C18.5563 29.2715 17.7775 28.2221 17.6362 27.15C17.6365 27.147 17.6368 27.1443 17.6372 27.1412C17.6237 27.0359 17.6146 26.9307 17.6129 26.825C17.6129 26.8142 17.6125 26.8034 17.6125 26.7922V24.6101C17.6203 25.7987 18.4065 26.9855 19.9717 27.8921C19.9778 27.8954 19.9839 27.8988 19.99 27.9026C19.99 27.9026 19.9906 27.9029 19.9913 27.9032C19.9937 27.9046 19.9957 27.9059 19.9981 27.9073C19.9994 27.908 20.0008 27.9086 20.0021 27.9097C20.0031 27.91 20.0041 27.9107 20.0051 27.9114C20.3372 28.1016 20.6908 28.2715 21.0612 28.4215V30.6208ZM20.0429 28.6188C19.881 28.6188 19.7696 28.7485 19.7696 28.9726C19.7696 29.2884 19.9906 29.6726 20.2636 29.8307C20.3429 29.8764 20.4178 29.8981 20.4839 29.8981C20.6459 29.8981 20.7572 29.7688 20.7572 29.5447C20.7572 29.2285 20.5362 28.8446 20.2636 28.6865C20.1843 28.6405 20.1094 28.6188 20.0429 28.6188Z" fill="white"/>
<path d="M20.4846 29.8981C20.4184 29.8981 20.3435 29.8764 20.2642 29.8304C19.9913 29.6727 19.7703 29.2885 19.7703 28.9723C19.7703 28.7482 19.8816 28.6189 20.0436 28.6189C20.11 28.6189 20.1849 28.6405 20.2642 28.6862C20.5369 28.8443 20.7579 29.2285 20.7579 29.5444C20.7579 29.7685 20.6465 29.8981 20.4846 29.8981Z" fill="white"/>
<path d="M21.0279 42.1375C20.6605 41.9869 20.3095 41.8166 19.9802 41.6263V41.6267C20.3099 41.8169 20.6605 41.9872 21.0279 42.1375Z" fill="white"/>
<path d="M19.9799 41.6265V41.6262C19.9772 41.6248 19.9745 41.6231 19.9722 41.6218C19.9745 41.6235 19.9772 41.6248 19.9799 41.6265Z" fill="#736CAC"/>
<path d="M21.0615 34.1867C20.6789 34.0316 20.3138 33.8553 19.972 33.6572C18.5535 32.8357 17.7748 31.7839 17.6357 30.7091C17.8463 31.0365 18.1247 31.4088 18.4928 31.8123C18.5532 31.8811 18.6169 31.9491 18.6837 32.0161C19.2604 32.6146 20.0317 33.273 21.0615 33.9474V34.1867Z" fill="#A7B2BA"/>
<path d="M18.6836 32.0156C18.6168 31.9485 18.5531 31.8807 18.4927 31.8125C18.5537 31.8793 18.6175 31.9471 18.6836 32.0156Z" fill="white"/>
<path d="M19.0767 34.4814C19.0221 34.4814 18.9603 34.4634 18.8952 34.4255C18.6705 34.2955 18.4883 33.979 18.4883 33.7187C18.4883 33.5342 18.5801 33.4276 18.7133 33.4276C18.768 33.4276 18.8297 33.4455 18.8952 33.4831C19.1196 33.6134 19.3018 33.9299 19.3018 34.1899C19.3018 34.3744 19.21 34.4814 19.0767 34.4814Z" fill="white"/>
<defs>
<linearGradient id="paint0_linear_2731_29588" x1="38.9256" y1="53.8655" x2="23.0736" y2="-9.46823" gradientUnits="userSpaceOnUse">
<stop stop-color="#221A3C"/>
<stop offset="1" stop-color="#190F23"/>
</linearGradient>
<linearGradient id="paint1_linear_2731_29588" x1="21.9949" y1="61.7449" x2="5.9326" y2="-1.70933" gradientUnits="userSpaceOnUse">
<stop stop-color="#261D43"/>
<stop offset="1" stop-color="#1C1127"/>
</linearGradient>
<linearGradient id="paint2_linear_2731_29588" x1="22.1721" y1="61.7451" x2="6.22275" y2="-1.77054" gradientUnits="userSpaceOnUse">
<stop stop-color="#2A214B"/>
<stop offset="1" stop-color="#1F132B"/>
</linearGradient>
<linearGradient id="paint3_linear_2731_29588" x1="55.8853" y1="62.1117" x2="39.823" y2="-1.34248" gradientUnits="userSpaceOnUse">
<stop stop-color="#261D43"/>
<stop offset="1" stop-color="#1C1127"/>
</linearGradient>
<linearGradient id="paint4_linear_2731_29588" x1="56.0627" y1="62.1119" x2="40.1134" y2="-1.40381" gradientUnits="userSpaceOnUse">
<stop stop-color="#2A214B"/>
<stop offset="1" stop-color="#1F132B"/>
</linearGradient>
<linearGradient id="paint5_linear_2731_29588" x1="56.2024" y1="65.1931" x2="40.0376" y2="1.79416" gradientUnits="userSpaceOnUse">
<stop stop-color="#2A214B"/>
<stop offset="1" stop-color="#1F132B"/>
</linearGradient>
<linearGradient id="paint6_linear_2731_29588" x1="56.2023" y1="65.071" x2="40.1358" y2="1.85287" gradientUnits="userSpaceOnUse">
<stop stop-color="#221A3C"/>
<stop offset="1" stop-color="#190F23"/>
</linearGradient>
<linearGradient id="paint7_linear_2731_29588" x1="39.4487" y1="72.9508" x2="23.2838" y2="9.55169" gradientUnits="userSpaceOnUse">
<stop stop-color="#2A214B"/>
<stop offset="1" stop-color="#1F132B"/>
</linearGradient>
</defs>
</svg>
