<svg width="46" height="46" viewBox="0 0 46 46" fill="none" xmlns="http://www.w3.org/2000/svg">
<circle cx="22.5632" cy="22.5632" r="22.5632" fill="white"/>
<g clip-path="url(#clip0_2731_30030)">
<path d="M22.5632 37.528L28.5456 19.1165H16.5808L22.5632 37.528Z" fill="#E24329"/>
<path d="M22.5632 37.528L16.5808 19.1165H8.19678L22.5632 37.528Z" fill="#FC6D26"/>
<path d="M8.19676 19.1151L6.37861 24.7103C6.29815 24.959 6.29828 25.2269 6.37899 25.4755C6.45969 25.7242 6.61686 25.9411 6.82807 26.0952L22.5632 37.528L8.19676 19.1151Z" fill="#FCA326"/>
<path d="M8.19678 19.1164H16.5808L12.977 8.02614C12.9369 7.90152 12.8582 7.79284 12.7524 7.71574C12.6466 7.63864 12.519 7.59711 12.3881 7.59711C12.2572 7.59711 12.1296 7.63864 12.0238 7.71574C11.918 7.79284 11.8393 7.90152 11.7992 8.02614L8.19678 19.1164Z" fill="#E24329"/>
<path d="M22.5632 37.528L28.5456 19.1165H36.9297L22.5632 37.528Z" fill="#FC6D26"/>
<path d="M36.9297 19.1151L38.7478 24.7103C38.8283 24.959 38.8281 25.2269 38.7474 25.4755C38.6667 25.7242 38.5096 25.9411 38.2983 26.0952L22.5632 37.528L36.9297 19.1151Z" fill="#FCA326"/>
<path d="M36.9297 19.1164H28.5457L32.1494 8.02755C32.1896 7.90292 32.2682 7.79424 32.374 7.71714C32.4799 7.64005 32.6074 7.59851 32.7383 7.59851C32.8693 7.59851 32.9968 7.64005 33.1026 7.71714C33.2085 7.79424 33.2871 7.90292 33.3272 8.02755L36.9297 19.1164Z" fill="#E24329"/>
</g>
<defs>
<clipPath id="clip0_2731_30030">
<rect width="32.491" height="32.491" fill="white" transform="translate(6.31775 6.31769)"/>
</clipPath>
</defs>
</svg>
