<svg width="28" height="27" viewBox="0 0 28 27" fill="none" xmlns="http://www.w3.org/2000/svg">
<path d="M13.5632 0.210449C10.3486 0.210583 7.23893 1.3583 4.7906 3.44823C2.34227 5.53816 0.715063 8.43394 0.200125 11.6174C-0.314814 14.8009 0.316124 18.0643 1.98004 20.8238C3.64396 23.5832 6.23228 25.6587 9.28188 26.6787C9.95877 26.7976 10.2126 26.3901 10.2126 26.0335C10.2126 25.711 10.1957 24.6414 10.1957 23.5039C6.79426 24.132 5.91429 22.672 5.64354 21.908C5.3431 21.165 4.86683 20.5065 4.2559 19.9895C3.78207 19.7348 3.10518 19.1066 4.23897 19.0897C4.67189 19.1368 5.08711 19.288 5.44944 19.5303C5.81178 19.7726 6.11055 20.099 6.32043 20.4818C6.50559 20.8155 6.75457 21.1093 7.05309 21.3463C7.35161 21.5833 7.69382 21.7589 8.0601 21.863C8.42637 21.9671 8.80953 21.9977 9.1876 21.9529C9.56567 21.9082 9.93122 21.7891 10.2633 21.6024C10.3219 20.9119 10.6287 20.2663 11.1264 19.7858C8.11421 19.4462 4.96664 18.2747 4.96664 13.0796C4.94762 11.7297 5.4441 10.4237 6.35428 9.42939C5.9404 8.25618 5.98882 6.96868 6.48966 5.83011C6.48966 5.83011 7.62341 5.47357 10.2126 7.22228C12.4278 6.61105 14.7663 6.61105 16.9815 7.22228C19.5706 5.4566 20.7045 5.83011 20.7045 5.83011C21.2054 6.96867 21.2538 8.2562 20.8398 9.42939C21.7528 10.422 22.2497 11.7292 22.2275 13.0796C22.2275 18.2917 19.063 19.4462 16.0508 19.7858C16.3739 20.1143 16.6227 20.5088 16.7804 20.9423C16.9381 21.3759 17.0009 21.8384 16.9646 22.2985C16.9646 24.1151 16.9477 25.5752 16.9477 26.0336C16.9477 26.3901 17.2015 26.8146 17.8784 26.6787C20.9226 25.6504 23.5035 23.5701 25.1603 20.8092C26.8172 18.0484 27.4421 14.7866 26.9236 11.6062C26.4051 8.42582 24.7769 5.53381 22.3296 3.44642C19.8824 1.35903 16.7754 0.212126 13.5632 0.210449Z" fill="black"/>
</svg>
