<svg width="86" height="12" viewBox="0 0 86 12" fill="none" xmlns="http://www.w3.org/2000/svg">
<path d="M0.666667 6.24707C0.666667 9.19259 3.05448 11.5804 6 11.5804C8.94552 11.5804 11.3333 9.19259 11.3333 6.24707C11.3333 3.30155 8.94552 0.913737 6 0.913737C3.05448 0.913737 0.666667 3.30155 0.666667 6.24707ZM74.6667 6.24707C74.6667 9.19259 77.0545 11.5804 80 11.5804C82.9455 11.5804 85.3333 9.19259 85.3333 6.24707C85.3333 3.30155 82.9455 0.913737 80 0.913737C77.0545 0.913737 74.6667 3.30155 74.6667 6.24707ZM6 7.24707H80V5.24707H6V7.24707Z" fill="#0C5BC6"/>
</svg>
