<svg width="1397" height="319" viewBox="0 0 1397 319" fill="none" xmlns="http://www.w3.org/2000/svg">
<g opacity="0.08">
<mask id="mask0_2731_31030" style="mask-type:alpha" maskUnits="userSpaceOnUse" x="0" y="0" width="1398" height="319">
<rect width="1398" height="319" rx="30" fill="white"/>
</mask>
<g mask="url(#mask0_2731_31030)">
<path opacity="0.7" d="M-362.566 195.162C-357.868 192.938 -353.213 190.671 -348.558 188.489C-342.825 185.761 -337.05 183.033 -331.36 180.264C-309.119 169.562 -290.585 160.791 -273.042 152.607C-262.051 147.446 -249.896 143.417 -237.008 139.136C-216.706 132.421 -195.758 125.497 -179.81 113.662C-171.319 107.367 -164.552 100.443 -159.078 92.4689C-152.268 82.5648 -148.906 72.7025 -145.285 62.2528C-140.845 49.369 -136.276 36.0235 -124.682 22.2584C-105.07 -1.0752 -72.4843 -18.3236 -41.7088 -21.639C-38.1744 -22.0167 -33.9934 -22.4363 -29.9417 -22.6881C-0.588715 -24.4927 22.9023 -21.8068 45.6606 -19.1629C79.1947 -15.302 111.22 -11.6928 156.65 -23.7373H146.263C106.306 -14.7564 76.7809 -18.0718 45.9624 -21.639C39.5831 -22.3524 33.1608 -23.1078 26.523 -23.7373H-44.5967C-75.6307 -19.6665 -106.88 -2.83781 -126.665 20.7056C-138.518 34.8065 -143.173 48.3618 -147.699 61.4554C-151.233 71.7373 -154.595 81.4736 -161.19 91.084C-166.492 98.8479 -173.129 105.563 -181.362 111.69C-196.965 123.273 -217.741 130.113 -237.827 136.786C-250.197 140.899 -262.999 145.137 -274.162 150.341C-291.705 158.525 -310.24 167.338 -332.481 178.039C-338.17 180.767 -343.903 183.495 -349.679 186.265C-353.946 188.321 -358.256 190.336 -362.566 192.434V195.162Z" fill="#91BFFF"/>
<path opacity="0.7" d="M-362.568 218.915C-344.336 209.892 -325.672 201.625 -307.353 193.525L-296.061 188.531C-278.604 180.767 -259.897 172.668 -238.863 163.771C-228.087 159.196 -216.363 155.629 -203.907 151.852C-184.122 145.851 -163.692 139.64 -147.614 129.106C-139.296 123.65 -132.27 117.565 -126.235 110.515C-118.649 101.66 -114.167 92.7627 -109.425 83.3202C-103.779 72.073 -97.9599 60.4902 -86.3221 48.5296C-65.9344 27.5882 -34.6849 11.8086 -4.81461 7.4021C-1.28015 6.8985 2.6853 6.31096 6.47836 5.89129C34.6245 2.78575 57.2535 2.91165 79.1928 3.03755C117.468 3.24738 153.631 3.41525 212.079 -13.8331C223.07 -17.1065 233.717 -20.4639 243.975 -23.7373H235.786C227.811 -21.2193 219.751 -18.7013 211.346 -16.2252C153.244 0.939207 117.296 0.729372 79.1928 0.519539C57.2104 0.393637 34.4521 0.267736 6.17664 3.41525C2.34048 3.83492 -1.66809 4.42245 -5.20255 4.96803C-35.5901 9.45848 -67.3999 25.4898 -88.1755 46.809C-100.072 59.0213 -105.977 70.814 -111.71 82.187C-116.365 91.5037 -120.804 100.275 -128.175 108.878C-134.08 115.761 -140.89 121.678 -149.037 127.008C-164.812 137.331 -185.071 143.501 -204.682 149.46C-216.622 153.111 -228.993 156.846 -239.898 161.462C-260.932 170.359 -279.681 178.501 -297.138 186.223L-308.431 191.217C-326.405 199.149 -344.724 207.248 -362.611 216.103V218.915H-362.568Z" fill="#91BFFF"/>
<path opacity="0.7" d="M511.125 -2.71191C543.453 8.70307 575.564 13.2775 609.443 11.2211C653.667 8.53521 682.675 -6.86663 712.416 -23.7373H707.373C679.183 -7.87383 651.08 6.22703 609.314 8.78701C575.823 10.8014 544.013 6.31096 512.031 -4.97812C498.798 -9.67841 485.479 -15.26 472.592 -20.6318C470.135 -21.639 467.678 -22.6881 465.178 -23.6953H458.669C462.936 -21.9327 467.247 -20.1701 471.557 -18.3655C484.445 -12.9938 497.807 -7.45417 511.125 -2.71191Z" fill="#91BFFF"/>
<path opacity="0.7" d="M-362.569 244.808C-333.389 226.175 -300.286 212.745 -268.131 199.778L-260.76 196.798C-244.166 190.083 -225.804 182.907 -204.684 174.933C-194.123 170.946 -182.701 167.799 -170.632 164.483C-151.408 159.196 -131.581 153.74 -115.374 144.549C-107.185 139.933 -99.9867 134.687 -93.3488 128.56C-84.8576 120.712 -79.2111 112.738 -73.2198 104.261C-66.4527 94.7346 -59.5131 84.8724 -47.9615 74.7583C-26.7981 56.2929 3.11533 41.9403 32.1235 36.4426L33.589 36.1488C36.7786 35.5613 39.882 34.9318 42.9424 34.4282C71.0885 29.8118 93.7606 27.2519 115.7 24.7339C151.562 20.6631 185.44 16.8021 239.75 4.75763L243.457 3.91829C305.439 -9.84684 354.36 -20.7163 417.937 -4.47508C439.661 1.10651 461.299 10.8428 484.143 21.1247C498.281 27.5037 512.936 34.0925 527.591 39.5901C559.013 51.2989 590.004 56.209 622.417 54.4884C669.83 52.0123 697.028 33.7148 725.821 14.368C743.148 2.70125 761.036 -9.34323 784.139 -18.2822C789.44 -20.3386 794.742 -21.9753 799.828 -23.1923C800.906 -23.4441 801.94 -23.612 802.975 -23.8638H792.932C789.742 -22.8985 786.509 -21.8494 783.234 -20.5904C759.829 -11.5675 741.812 0.560946 724.398 12.3117C695.907 31.4905 669.011 49.5782 622.331 52.0123C590.305 53.691 559.659 48.8648 528.539 37.24C513.97 31.7423 499.358 25.1955 485.264 18.8165C462.29 8.49268 440.609 -1.2856 418.627 -6.95112C354.447 -23.3602 305.266 -12.4068 242.939 1.44225L239.233 2.28159C185.052 14.3261 151.217 18.1451 115.441 22.2158C93.4589 24.8178 70.7437 27.3778 42.5113 32.0361C39.451 32.5397 36.3045 33.1272 33.0718 33.7567L31.6063 34.0505C2.16705 39.6741 -28.2205 54.1946 -49.6857 72.9538C-61.4528 83.2356 -68.5216 93.2238 -75.375 102.876C-81.2801 111.228 -86.8834 119.117 -95.1591 126.797C-101.668 132.799 -108.693 137.918 -116.711 142.451C-132.616 151.474 -152.314 156.887 -171.365 162.133C-182.96 165.323 -194.985 168.638 -205.632 172.667C-226.795 180.641 -245.157 187.817 -261.795 194.532L-269.122 197.511C-300.889 210.353 -333.561 223.573 -362.612 241.828V244.808H-362.569Z" fill="#91BFFF"/>
<path opacity="0.7" d="M-362.566 282.241C-352.567 271.833 -343.256 263.44 -333.558 256.138C-303.128 233.35 -265.844 219.794 -229.81 206.659L-225.499 205.106C-209.465 199.273 -191.491 193.062 -170.543 186.137C-160.155 182.696 -149.035 179.968 -137.311 177.114C-118.734 172.54 -99.4667 167.839 -83.1738 160.034C-75.1998 156.215 -67.7861 151.808 -60.5448 146.604C-50.976 139.722 -43.9071 132.587 -36.4503 125.033C-28.778 117.269 -20.8471 109.212 -9.59723 101.028C12.1697 85.1228 40.8331 72.197 69.0654 65.4823L72.5568 64.643C74.8843 64.0974 77.1257 63.5518 79.4101 63.0482C99.7116 58.5158 116.867 54.3191 133.461 50.2483C173.288 40.512 207.684 32.0767 267.339 23.4315C327.769 14.7024 377.725 13.5693 439.836 35.0983C458.026 41.4353 476.215 50.3323 495.439 59.7748C511.214 67.4967 527.507 75.4704 543.929 82.0172C574.489 94.0198 604.36 99.2237 635.264 97.9227C683.496 95.8663 708.065 76.1839 734.056 55.3263C749.444 43.03 765.306 30.2721 786.9 20.7037C791.857 18.5214 796.857 16.7168 801.771 15.4158C824.313 9.33065 846.727 8.61721 866.554 7.98771C886.209 7.35821 904.786 6.77068 920.002 1.06318C932.76 -3.72104 944.57 -8.67313 957.113 -13.877C964.872 -17.1085 972.717 -20.3819 980.949 -23.6973H974.354C968.148 -21.1373 962.07 -18.6193 956.122 -16.1432C943.622 -10.9393 931.812 -5.98725 919.096 -1.245C904.269 4.29463 885.907 4.88217 866.468 5.51167C846.511 6.14117 823.926 6.85461 801.081 13.0237C796.038 14.3667 790.909 16.2132 785.823 18.4375C763.926 28.1738 747.935 40.9737 732.418 53.3959C706.729 73.9596 682.505 93.3903 635.135 95.4047C604.575 96.7057 575.05 91.5437 544.878 79.6671C528.499 73.1622 512.249 65.2305 496.559 57.5086C477.249 48.0241 459.017 39.1271 440.655 32.7062C378.07 11.0093 327.769 12.1005 266.951 20.9135C207.167 29.5587 172.685 37.994 132.815 47.7723C116.22 51.8431 99.1081 56.0398 78.8067 60.5722C76.5653 61.0758 74.2378 61.6214 71.9102 62.2089L68.4189 63.0482C39.8848 69.8469 10.8766 82.9405 -11.149 99.0138C-22.5281 107.323 -30.5452 115.423 -38.3037 123.271C-45.6743 130.741 -52.657 137.833 -62.0534 144.59C-69.1654 149.71 -76.4498 154.032 -84.2945 157.767C-100.329 165.447 -119.466 170.106 -137.914 174.638C-149.164 177.408 -160.845 180.262 -171.319 183.703C-192.31 190.627 -210.327 196.839 -226.361 202.672L-230.672 204.225C-266.878 217.402 -304.378 231.042 -335.067 254.039C-344.291 260.964 -353.127 268.854 -362.566 278.506V282.241Z" fill="#91BFFF"/>
<path opacity="0.7" d="M-362.567 337.218C-359.119 334.112 -355.585 330.629 -351.921 326.558C-346.318 320.347 -340.887 313.087 -335.111 305.365C-331.749 300.916 -328.301 296.3 -324.766 291.81C-314.723 279.178 -305.241 269.399 -294.853 261.048C-265.629 237.672 -228.259 225.586 -192.053 213.961L-190.156 213.373C-174.682 208.379 -157.096 203.134 -136.321 197.3C-126.062 194.404 -115.243 192.096 -103.821 189.662C-85.8472 185.801 -67.3129 181.856 -50.9339 175.477C-43.1322 172.456 -35.5031 168.889 -27.6584 164.65C-16.4947 158.607 -7.61551 152.186 1.82401 145.387C9.97043 139.512 18.3755 133.469 28.8064 127.257C50.7888 114.206 78.2022 102.539 106.047 94.4814C107.771 93.9778 109.452 93.4742 111.133 92.9706C112.728 92.5089 114.322 92.0053 115.874 91.5437C137.253 85.3326 155.184 78.4081 172.554 71.7353C207.64 58.18 240.786 45.4221 295.009 42.0228C353.888 38.3297 402.206 47.7722 461.861 74.5891C475.998 80.968 490.136 88.606 505.093 96.7056C522.98 106.358 541.515 116.388 560.48 124.32C590.135 136.658 618.841 142.156 648.323 141.232C697.245 139.596 719.098 118.57 742.201 96.2859C755.736 83.2762 769.701 69.8048 789.873 59.523C794.485 57.1728 799.226 55.2843 803.925 53.8155C823.105 47.8981 842.372 46.6391 860.993 45.4221C881.984 44.0372 901.811 42.7362 917.501 34.5107C929.181 28.3836 939.871 21.9626 951.164 15.164C972.974 2.02837 995.517 -11.485 1027.03 -23.7812H1020.34C991.595 -12.0305 970.388 0.685427 949.828 13.0657C938.578 19.8223 927.932 26.2432 916.294 32.3284C901.078 40.3021 881.51 41.6031 860.821 42.9461C842.071 44.2051 822.675 45.4641 803.192 51.4653C798.321 52.9761 793.451 54.9486 788.709 57.3407C768.193 67.7904 754.055 81.3877 740.391 94.5233C717.633 116.43 696.125 137.162 648.194 138.756C619.1 139.722 590.738 134.266 561.428 122.054C542.592 114.164 524.144 104.176 506.3 94.5233C491.3 86.4237 477.076 78.7438 462.895 72.3229C402.853 45.3382 354.19 35.8537 294.837 39.5467C240.226 42.988 206.907 55.8299 171.649 69.4271C154.365 76.0999 136.477 83.0244 115.184 89.1935C113.59 89.6552 111.995 90.1168 110.4 90.6204C108.719 91.124 107.038 91.6276 105.314 92.1312C77.254 100.273 49.625 111.982 27.4702 125.159C16.9531 131.412 8.50494 137.497 0.315399 143.415C-9.0379 150.171 -17.874 156.508 -28.9083 162.51C-36.6668 166.706 -44.1667 170.19 -51.8821 173.211C-68.0457 179.506 -86.5368 183.451 -104.381 187.27C-115.847 189.704 -126.666 192.054 -137.01 194.95C-157.829 200.783 -175.458 206.029 -190.932 211.023L-192.785 211.611C-229.25 223.362 -266.879 235.49 -296.448 259.159C-306.965 267.637 -316.62 277.541 -326.749 290.299C-330.326 294.789 -333.775 299.448 -337.137 303.896C-342.869 311.534 -348.257 318.794 -353.818 324.879C-356.792 328.195 -359.723 331.132 -362.567 333.776V337.218Z" fill="#91BFFF"/>
<path opacity="0.7" d="M-362.567 395.51C-360.498 393.747 -358.429 391.942 -356.36 390.18C-345.283 380.695 -335.714 372.47 -326.619 362.188C-319.335 353.962 -312.697 345.149 -305.844 334.406C-302.611 329.37 -299.464 324.082 -296.145 318.459C-292.051 311.492 -287.784 304.316 -283.215 297.433C-274.81 284.717 -265.93 274.435 -256.189 266.042C-228.345 242.079 -191.018 231.713 -154.941 221.683C-139.38 217.36 -122.139 213.08 -102.226 208.505C-91.9242 206.113 -81.2347 204.183 -69.8987 202.126C-52.7868 199.021 -35.0716 195.831 -18.8218 190.963C-11.1064 188.655 -3.52026 186.011 5.05719 182.696C19.2811 177.198 31.393 171.113 44.2377 164.692C51.4359 161.083 58.8926 157.348 67.0391 153.571C87.4698 144.044 112.297 134.224 142.9 123.564C145.4 122.683 147.814 121.802 150.228 120.92L152.253 120.165C172.512 112.779 189.667 103.504 206.261 94.5233C239.58 76.4776 271.131 59.3971 322.51 60.6981C381 62.1249 427.551 82.1851 483.714 114.122C492.852 119.326 501.99 124.865 511.645 130.741C532.55 143.457 554.187 156.634 576.816 166.706C605.523 179.422 633.195 185.256 661.169 184.584C710.651 183.409 729.745 161.083 749.917 137.413C761.685 123.648 773.797 109.422 792.676 98.4682C796.9 96.0341 801.382 93.9778 805.951 92.3411C822.373 86.5916 839.658 84.871 856.382 83.1923C878.321 81.01 899.01 78.9536 914.829 68.0003C926.251 60.1525 936.467 51.8011 947.286 42.988C969.613 24.8164 992.716 5.97326 1026.85 -8.21154C1063.02 -23.2776 1102.5 -25.7957 1151.16 -16.1852C1167.63 -12.9118 1181.89 -6.6168 1195.64 -0.531609C1221.12 10.7575 1245.21 21.4171 1280.38 12.3103C1290.64 9.66634 1300.47 5.21785 1312.32 -2.08438C1314.48 -3.42732 1316.63 -4.77026 1318.79 -6.15517C1329.56 -12.9538 1340.12 -19.5846 1351.2 -23.7812H1344.69C1335.43 -19.5846 1326.5 -13.961 1317.37 -8.21154C1315.21 -6.8686 1313.1 -5.52567 1310.94 -4.18272C1299.31 2.99361 1289.69 7.31619 1279.69 9.91814C1245.38 18.8151 1221.72 8.3234 1196.64 -2.79782C1182.76 -8.96695 1168.36 -15.3039 1151.59 -18.6193C1138.27 -21.2632 1125.69 -22.9419 1113.58 -23.7812H1082.11C1062.11 -22.3124 1043.53 -17.9059 1025.78 -10.5197C991.293 3.83294 968.061 22.76 945.561 41.0575C934.786 49.8286 924.57 58.1381 913.234 65.9439C897.976 76.5196 877.588 78.534 855.994 80.7162C839.097 82.3949 821.684 84.1156 804.96 89.9909C800.219 91.6696 795.606 93.7679 791.253 96.2859C772.029 107.449 759.745 121.844 747.849 135.777C728.021 158.984 709.315 180.933 660.996 182.066C633.281 182.696 606.126 176.946 577.765 164.398C555.308 154.41 533.757 141.274 512.895 128.6C503.24 122.725 494.102 117.143 484.921 111.94C428.413 79.793 381.517 59.6069 322.51 58.18C270.355 56.8791 238.632 74.1274 204.968 92.3411C188.46 101.28 171.391 110.513 151.305 117.815L149.279 118.57C146.866 119.452 144.452 120.333 141.995 121.214C111.306 131.916 86.4354 141.736 65.8753 151.305C57.6858 155.123 50.2289 158.859 42.9877 162.468C30.2292 168.847 18.1174 174.89 4.02274 180.388C-4.46854 183.703 -12.0115 186.305 -19.6407 188.571C-35.7612 193.397 -53.3903 196.587 -70.4159 199.692C-81.752 201.749 -92.4846 203.679 -102.872 206.071C-122.829 210.604 -140.113 214.926 -155.716 219.249C-192.052 229.321 -229.638 239.771 -257.956 264.111C-267.913 272.673 -276.879 283.122 -285.413 296.006C-290.068 302.973 -294.292 310.191 -298.43 317.158C-301.749 322.781 -304.852 328.069 -308.085 333.021C-314.895 343.639 -321.447 352.368 -328.645 360.509C-337.654 370.665 -347.136 378.807 -358.17 388.291C-359.679 389.592 -361.188 390.851 -362.696 392.152V395.51H-362.567Z" fill="#91BFFF"/>
<path opacity="0.7" d="M1631.41 65.4423C1627.45 64.6449 1623.35 64.0154 1618.96 63.5118C1608.44 62.2948 1597.62 61.8331 1587.15 61.4135C1571.98 60.784 1556.24 60.1544 1541.24 57.1328C1502.19 49.2431 1469.86 26.1613 1446.03 6.94047C1443.66 5.00999 1441.29 3.07952 1438.96 1.19101C1427.37 -8.2935 1416.33 -17.2744 1402.54 -23.7373H1396.2C1397.49 -23.2337 1398.74 -22.7721 1400.04 -22.1845C1414.22 -15.8056 1425.43 -6.61483 1437.32 3.07952C1439.65 5.00999 1442.02 6.94047 1444.43 8.82898C1468.49 28.2177 1501.11 51.5512 1540.73 59.5249C1555.94 62.5885 1571.76 63.26 1587.06 63.8475C1597.49 64.2672 1608.27 64.6869 1618.7 65.9039C1623.18 66.4075 1627.41 67.1209 1631.46 67.9183V65.4423H1631.41Z" fill="#91BFFF"/>
<path opacity="0.7" d="M1631.41 83.2777C1625.94 80.2141 1619.99 77.7381 1613.48 76.0594C1606.67 74.2968 1599.43 73.1217 1591.37 72.4922C1580.68 71.6529 1569.69 71.8207 1559.04 71.9466C1544.78 72.1145 1529.99 72.3243 1515.77 70.1421C1481.72 64.8542 1452.49 47.1442 1420.56 26.2447L1418.18 24.692C1403.31 14.9976 1389.26 5.84884 1372.62 -0.194386C1339.61 -12.113 1318.79 2.78526 1296.72 18.5648C1293.23 21.0408 1289.74 23.5589 1286.16 25.9929C1275.3 33.2952 1266.12 37.6178 1256.42 40.0518C1223.83 48.2354 1201.98 35.9391 1178.88 22.9294C1165.34 15.2914 1151.33 7.44358 1134.31 2.9951C1086.55 -9.46906 1048.15 -7.37072 1013.45 9.58389C982.846 24.608 961.941 46.8924 941.769 68.4634C931.898 78.9971 921.64 89.9085 910.562 99.6028C895.476 112.822 874.571 115.634 852.503 118.572C837.244 120.628 821.512 122.727 807.115 128.476C802.503 130.323 798.15 132.589 794.184 135.233C776.167 147.193 765.693 162.469 755.521 177.2C738.668 201.666 722.806 224.832 674.1 225.419C647.893 225.797 621.859 219.712 594.403 206.786C566.084 193.399 539.835 174.765 514.447 156.72L507.206 151.558C457.982 116.767 411.517 83.9492 350.484 76.8148C300.485 70.9394 270.14 92.6363 238.029 115.55C222.511 126.629 206.434 138.086 187.771 146.438C184.883 147.739 181.952 149.04 178.935 150.257C155.702 159.825 129.711 168.764 104.582 177.409C81.6083 185.299 60.7034 192.308 37.2986 198.267C28.4625 200.491 20.4884 202.338 12.9023 203.932C-3.04572 207.29 -19.6834 209.724 -35.8039 212.074C-47.183 213.753 -57.9156 215.305 -68.4327 217.194C-89.2083 220.845 -105.63 224.118 -120.156 227.476C-152.225 234.82 -192.095 243.969 -219.163 269.065C-228.517 277.752 -236.577 288.454 -243.818 301.757C-249.249 311.703 -253.818 322.237 -258.215 332.393C-259.508 335.373 -260.758 338.31 -262.051 341.206C-267.654 353.838 -272.611 364.33 -278.732 374.402C-285.8 385.985 -294.033 396.518 -304.636 407.598C-322.438 426.147 -341.532 440.583 -362.523 451.201V453.971C-340.843 443.143 -321.145 428.413 -302.783 409.276C-292.05 398.071 -283.688 387.37 -276.533 375.661C-270.326 365.505 -265.327 354.929 -259.68 342.213C-258.387 339.317 -257.137 336.38 -255.844 333.4C-251.447 323.286 -246.922 312.794 -241.534 302.932C-234.422 289.839 -226.534 279.347 -217.396 270.87C-190.845 246.235 -151.319 237.17 -119.553 229.868C-105.07 226.511 -88.6911 223.237 -67.9586 219.628C-57.4846 217.781 -46.752 216.187 -35.3728 214.508C-19.2093 212.158 -2.52847 209.682 13.5058 206.325C21.0919 204.73 29.109 202.883 37.9882 200.617C61.5224 194.658 82.4703 187.649 105.487 179.718C130.659 171.072 156.693 162.091 179.969 152.523C182.986 151.264 185.96 149.963 188.891 148.662C207.813 140.185 223.977 128.644 239.58 117.523C271.304 94.9025 301.26 73.5414 350.225 79.2489C410.612 86.2993 456.862 118.95 505.783 153.53L513.025 158.65C538.498 176.738 564.834 195.455 593.368 208.926C621.213 222.062 647.549 228.189 674.229 227.812C724.229 227.224 740.521 203.555 757.719 178.5C767.719 163.938 778.107 148.872 795.693 137.205C799.529 134.645 803.753 132.463 808.193 130.7C822.287 125.077 837.848 122.978 852.934 120.964C875.433 117.942 896.64 115.131 912.329 101.365C923.536 91.5871 933.795 80.6338 943.708 70.0581C963.751 48.655 984.484 26.5385 1014.7 11.7662C1048.79 -4.89467 1086.64 -6.95105 1133.75 5.34524C1150.43 9.70979 1164.27 17.4737 1177.67 25.0277C1201.25 38.2892 1223.53 50.8373 1257.11 42.402C1267.11 39.884 1276.51 35.4355 1287.63 27.9654C1291.25 25.5313 1294.78 23.0133 1298.27 20.4953C1319.78 5.13541 1340.04 -9.38513 1371.81 2.07182C1388.18 7.98915 1402.11 17.054 1416.85 26.6644L1419.22 28.2172C1451.42 49.2845 1480.9 67.1624 1515.42 72.4922C1529.86 74.6745 1544.73 74.5066 1559.09 74.2968C1569.69 74.1709 1580.6 74.003 1591.2 74.8424C1599.13 75.4719 1606.24 76.605 1612.88 78.3256C1619.65 80.0882 1625.77 82.7741 1631.46 86.0895V83.2777H1631.41Z" fill="#91BFFF"/>
<path opacity="0.7" d="M1631.41 117.858C1619.52 101.827 1605.64 88.9427 1585.25 84.1585C1567.58 80.0037 1549.13 81.3047 1531.28 82.5637C1517.79 83.529 1503.87 84.4942 1490.34 83.1093C1460.47 80.0457 1433.31 65.693 1407.06 51.802C1387.02 41.1844 1366.29 30.231 1344.17 24.0619C1311.55 14.9971 1293.4 29.9792 1274.18 45.8847C1262.11 55.8728 1249.61 66.1547 1233.06 70.1835C1202.11 77.7375 1182.02 63.7206 1160.73 48.9063C1147.63 39.7575 1134.05 30.315 1116.94 24.6914C1069.91 9.20565 1034.18 10.7584 1001.03 29.8114C974.223 45.2132 955.775 70.5192 937.931 94.9859C928.448 107.996 918.621 121.467 907.672 133.302C892.888 149.249 870.82 153.026 849.484 156.635C830.906 159.783 811.639 163.056 796.855 174.261C780.045 187.019 771.338 203.134 762.89 218.746C748.451 245.521 735.951 268.645 686.986 268.813H686.512C626.599 268.813 573.41 229.616 529.273 191.258C525.997 188.404 522.678 185.508 519.359 182.613C477.075 145.64 433.369 107.408 378.197 95.5315C330.094 85.1657 301.216 111.353 270.656 139.093C256.173 152.229 241.173 165.826 223.975 175.185C166.993 206.156 82.0807 215.515 7.21106 223.74C-25.935 227.391 -57.2277 230.833 -84.8566 235.869C-123.347 242.835 -157.097 250.557 -180.631 274.226C-200.502 294.245 -208.346 321.817 -215.889 348.424C-219.682 361.811 -223.605 375.618 -229.036 388.376C-257.742 456.111 -306.621 474.786 -362.611 480.41V482.886C-305.716 477.262 -255.975 458.461 -226.665 389.299C-221.191 376.416 -217.225 362.483 -213.432 349.053C-205.932 322.698 -198.217 295.462 -178.778 275.905C-155.804 252.739 -122.442 245.143 -84.3825 238.261C-56.8398 233.267 -25.5471 229.825 7.51279 226.174C82.641 217.907 167.769 208.506 225.225 177.325C242.725 167.84 257.811 154.117 272.423 140.898C302.509 113.619 330.913 87.8515 377.723 97.9656C432.248 109.716 475.696 147.738 517.721 184.501C521.04 187.397 524.316 190.293 527.635 193.146C572.117 231.84 625.78 271.331 686.555 271.331H687.072C737.546 271.163 750.951 246.276 765.174 219.963C773.493 204.603 782.071 188.698 798.45 176.276C812.76 165.448 831.682 162.217 849.958 159.111C871.725 155.418 894.224 151.599 909.569 135.022C920.646 123.062 930.474 109.548 940 96.4547C957.672 72.1979 975.947 47.1437 1002.28 31.9937C1034.74 13.3604 1069.83 11.8496 1116.07 27.0835C1132.84 32.6232 1146.25 41.9398 1159.22 50.9627C1180.99 66.1127 1201.59 80.4654 1233.66 72.6595C1250.81 68.5048 1263.49 57.9711 1275.81 47.8571C1294.52 32.4133 1312.15 17.8508 1343.49 26.538C1365.3 32.6232 1385.9 43.4926 1405.86 54.0682C1432.36 68.0852 1459.73 82.5637 1490.08 85.6693C1503.83 87.0542 1517.88 86.0889 1531.46 85.1237C1549.09 83.8647 1567.36 82.6057 1584.65 86.6345C1605.42 91.5027 1619.3 105.226 1631.41 122.18V117.858Z" fill="#91BFFF"/>
<path opacity="0.7" d="M1631.41 154.664C1627.02 149.922 1622.32 145.389 1616.93 141.235C1606.24 132.967 1595.29 127.386 1583.4 124.196C1565.77 119.412 1547.62 118.824 1530.12 118.237C1516.37 117.775 1503.44 117.356 1490.68 115.047C1463.31 110.179 1439.39 95.8265 1414.05 80.6345C1393.66 68.4222 1372.58 55.7901 1349.56 48.5718C1316.07 38.0801 1296.03 53.1043 1274.78 68.9677C1263.06 77.7388 1250.94 86.8036 1236.2 91.42C1230.13 93.3085 1224.74 94.4836 1219.65 95.0291C1200.43 97.0855 1187.02 89.7413 1171.55 81.2221C1168.14 79.3335 1164.65 77.445 1160.95 75.5565C1151.51 70.7303 1140 65.3166 1126.25 61.8753C1098.45 54.7829 1076.46 52.9364 1057.07 56.0419C1040.9 58.6858 1026.16 64.7291 1012.03 74.4654C1000.86 82.1453 990.603 92.2174 979.698 106.192C973.06 114.754 966.638 124.112 960.474 133.177C948.922 150.048 937.026 167.506 922.414 181.481C905.949 197.344 882.889 199.107 860.605 200.786C843.105 202.129 826.554 203.388 813.192 211.026C797.028 220.3 787.847 233.268 779.011 245.816C763.71 267.471 749.27 287.951 701.038 290.595C696.21 290.847 691.254 290.972 686.254 290.846C629.961 289.797 580.609 257.315 539.747 225.672C534.446 221.559 529.144 217.363 523.842 213.166L515.523 206.577C478.283 177.2 436.085 143.879 383.629 133.513C337.681 124.406 309.449 148.411 279.578 173.843C265.57 185.761 251.088 198.1 234.579 206.703C178.287 235.87 95.9173 244.809 23.289 252.699C-7.05542 256.014 -35.7619 259.12 -61.4081 263.442C-91.4077 268.562 -128.735 274.941 -153.519 297.813C-154.941 299.114 -156.277 300.457 -157.571 301.8C-174.294 319.426 -182.225 342.55 -189.898 364.918C-193.949 376.753 -198.13 388.965 -203.604 400.296C-217.527 429.169 -236.104 449.775 -260.457 463.204C-290.327 479.823 -325.241 484.02 -362.481 486.034V488.51C-325.801 486.496 -289.422 482.131 -259.207 465.345C-234.38 451.622 -215.458 430.68 -201.32 401.303C-195.803 389.846 -191.579 377.55 -187.484 365.673C-179.898 343.557 -172.053 320.685 -155.674 303.437C-154.424 302.094 -153.088 300.793 -151.752 299.534C-127.528 277.207 -90.5887 270.87 -60.934 265.834C-35.3309 261.512 -6.7106 258.406 23.5907 255.091C96.4776 247.159 179.106 238.178 235.786 208.801C252.553 200.072 267.165 187.65 281.259 175.647C310.656 150.635 338.414 127.05 383.112 135.863C434.964 146.103 476.903 179.215 513.929 208.424L522.247 215.012C527.592 219.251 532.894 223.448 538.195 227.56C579.402 259.455 629.186 292.231 686.254 293.281C691.297 293.365 696.34 293.281 701.21 293.029C750.693 290.301 766.167 268.352 781.123 247.159C789.83 234.821 798.795 222.105 814.528 213.082C827.373 205.696 843.622 204.479 860.863 203.178C883.622 201.457 907.156 199.653 924.268 183.16C939.052 169.017 951.035 151.433 962.629 134.478C968.793 125.455 975.172 116.097 981.767 107.619C992.5 93.8541 1002.63 83.9499 1013.53 76.4378C1027.37 66.9114 1041.77 61.036 1057.54 58.434C1076.59 55.3705 1098.23 57.217 1125.69 64.2255C1139.18 67.6248 1150.51 72.9546 1159.82 77.7388C1163.49 79.5853 1166.94 81.5158 1170.34 83.3624C1186.2 92.0915 1199.95 99.6035 1219.95 97.4632C1225.21 96.9177 1230.77 95.7006 1237.02 93.7282C1252.19 88.9859 1264.48 79.7952 1276.37 70.8562C1297.06 55.3705 1316.59 40.724 1348.83 50.838C1371.59 57.9724 1392.54 70.5205 1412.8 82.6909C1437.23 97.3373 1462.45 112.487 1490.29 117.439C1503.23 119.748 1516.89 120.209 1530.12 120.629C1547.49 121.216 1565.47 121.804 1582.79 126.504C1594.34 129.61 1604.99 135.066 1615.42 143.123C1621.46 147.781 1626.63 152.901 1631.5 158.357V154.664H1631.41Z" fill="#91BFFF"/>
<path opacity="0.7" d="M1631.41 191.049C1626.8 187.272 1621.76 183.62 1615.81 180.011C1603.7 172.667 1592.84 167.673 1581.54 164.19C1564.35 158.944 1546.93 156.468 1530.12 154.034C1516.33 152.061 1503.36 150.215 1490.99 146.983C1465.99 140.395 1444.09 125.58 1420.86 109.843C1400.21 95.8677 1378.87 81.4311 1354.82 72.9957C1320.08 60.8254 1297.67 76.2272 1274.01 92.5103C1263.1 99.9804 1251.85 107.744 1239.22 112.612C1232.93 115.047 1227.89 116.683 1223.45 117.732C1205.95 121.887 1194.78 117.648 1180.69 112.319C1177.33 111.06 1173.83 109.717 1170.04 108.458C1160.43 105.184 1149.01 101.491 1135.47 99.0572C1113.88 95.1962 1088.71 92.0067 1065.86 97.3365C1050.43 100.946 1036.38 108.038 1022.93 119.075C1012.85 127.385 1003.54 138.17 993.535 152.985C989.225 159.406 985.087 165.994 980.734 172.961C968.018 193.315 954.829 214.382 937.027 229.616C918.45 245.48 894.14 244.85 870.649 244.262C855.434 243.885 841.037 243.507 829.4 247.83C813.322 253.831 803.926 263.567 793.969 273.849C778.021 290.342 761.513 307.423 714.918 312.459C710.177 312.962 705.177 313.382 700.134 313.718C641.687 317.411 591.472 288.747 550.05 260.21C543.326 255.594 536.774 250.851 529.792 245.815L520.999 239.478C480.87 210.563 439.405 180.683 388.845 171.576C345.096 163.686 317.596 185.509 288.502 208.591C274.925 219.334 260.873 230.497 245.054 238.303C189.365 265.791 109.323 274.311 38.7209 281.823C11.3075 284.719 -14.5973 287.488 -38.0883 291.139C-66.7517 295.714 -102.398 301.379 -126.535 321.482C-127.915 322.615 -129.251 323.832 -130.501 325.007C-147.139 340.744 -155.759 361.476 -164.121 381.494C-168.431 391.776 -172.828 402.436 -178.345 412.298C-192.526 437.898 -210.888 456.237 -234.465 468.324C-267.826 485.488 -308.947 488.3 -348.731 491.028C-353.299 491.321 -357.911 491.657 -362.523 491.993V494.469C-357.868 494.133 -353.17 493.797 -348.558 493.462C-308.516 490.734 -267.137 487.88 -233.301 470.506C-209.293 458.168 -190.586 439.492 -176.147 413.473C-170.586 403.485 -166.147 392.783 -161.837 382.417C-153.604 362.651 -145.07 342.171 -128.82 326.769C-127.57 325.594 -126.277 324.461 -124.941 323.328C-101.32 303.688 -66.0621 298.064 -37.7004 293.532C-14.2524 289.88 11.6093 287.111 38.9796 284.215C109.798 276.661 190.098 268.142 246.175 240.444C262.252 232.512 276.39 221.265 290.097 210.437C318.76 187.733 345.829 166.288 388.371 173.926C438.327 182.949 479.577 212.619 519.49 241.367L528.283 247.704C535.266 252.74 541.86 257.482 548.585 262.098C590.351 290.888 641.126 319.803 700.307 316.068C705.393 315.732 710.393 315.312 715.177 314.809C762.719 309.689 780.305 291.475 795.779 275.444C805.521 265.372 814.745 255.803 830.262 250.012C841.425 245.857 855.563 246.235 870.52 246.613C893.407 247.2 919.312 247.872 938.622 231.379C956.725 215.935 970.001 194.7 982.803 174.178C987.156 167.211 991.251 160.623 995.561 154.244C1005.43 139.639 1014.61 129.022 1024.48 120.88C1037.63 110.094 1051.34 103.17 1066.38 99.6447C1088.79 94.3988 1113.62 97.5883 1134.96 101.407C1148.32 103.799 1159.61 107.451 1169.14 110.682C1172.89 111.941 1176.38 113.284 1179.7 114.543C1193.66 119.831 1205.69 124.405 1223.96 120.041C1228.53 118.949 1233.66 117.313 1240.08 114.837C1253.01 109.843 1264.39 101.995 1275.38 94.4408C1298.53 78.5354 1320.38 63.4693 1353.92 75.22C1377.62 83.5294 1398.83 97.8821 1419.35 111.773C1442.75 127.595 1464.82 142.577 1490.25 149.25C1502.75 152.523 1515.81 154.411 1529.69 156.384C1546.42 158.776 1563.74 161.252 1580.73 166.456C1591.76 169.855 1602.49 174.807 1614.39 182.026C1620.94 186.012 1626.37 190.041 1631.33 194.238V191.049H1631.41Z" fill="#91BFFF"/>
<path opacity="0.7" d="M1631.41 226.972C1626.58 224.37 1621.24 221.726 1614.65 218.788L1610.72 217.026C1601.59 212.871 1591.24 208.213 1579.69 204.226C1564.09 198.896 1548.44 194.909 1533.35 191.006C1518.31 187.145 1504.13 183.494 1491.33 178.92C1468.61 170.82 1448.7 155.586 1427.62 139.513C1406.8 123.608 1385.25 107.198 1360.21 97.4622C1323.57 83.2354 1297.06 100.358 1271.42 116.893C1262.06 122.936 1252.41 129.147 1242.37 133.847C1237.24 136.24 1231.98 138.674 1227.37 140.478C1210.77 146.941 1201.68 145.304 1187.88 142.828C1185.17 142.325 1182.32 141.821 1179.22 141.36C1176.81 140.982 1174.26 140.562 1171.59 140.101C1163.75 138.8 1154.82 137.331 1144.78 136.282C1121.29 133.847 1096.51 132.001 1074.7 138.674C1059.74 143.248 1046.42 151.474 1033.88 163.77C1022.37 175.101 1013.66 188.992 1007.41 199.861C1004.91 204.142 1002.46 208.59 999.912 213.123C986.551 237.086 972.758 261.846 951.68 277.836C930.517 293.909 903.491 290.048 879.656 286.649C867.156 284.886 855.346 283.208 845.777 284.634C828.622 287.236 818.45 294.455 806.596 302.806C790.347 314.305 771.899 327.357 728.839 334.323C723.925 335.12 718.968 335.876 714.055 336.589C652.935 345.402 599.832 318.837 560.393 294.706C552.333 289.796 544.359 284.55 535.91 279.053L533.885 277.752C530.178 275.318 526.514 272.884 522.85 270.492C483.584 244.514 443.024 217.655 394.059 209.724C352.508 202.967 325.655 222.607 297.25 243.423C284.147 253.033 270.569 262.938 255.483 269.988C200.484 295.672 122.985 303.729 54.5811 310.864C29.9262 313.424 6.60764 315.858 -14.8145 318.963C-42.0986 322.908 -76.0205 327.818 -99.5978 345.318C-100.934 346.326 -102.227 347.333 -103.52 348.382C-120.072 362.273 -129.468 380.529 -138.52 398.197C-143.002 406.968 -147.657 415.991 -153.132 424.468C-167.614 446.836 -185.717 462.91 -208.476 473.611C-238.604 487.796 -274.94 491.279 -310.069 494.637C-327.526 496.315 -345.37 498.036 -362.611 501.099V503.617C-345.327 500.554 -327.396 498.791 -309.853 497.113C-274.509 493.713 -237.958 490.23 -207.398 475.835C-184.209 464.924 -165.761 448.557 -151.019 425.769C-145.459 417.208 -140.804 408.101 -136.278 399.288C-126.925 381.032 -118.089 363.826 -101.925 350.271C-100.718 349.263 -99.4254 348.256 -98.1323 347.291C-75.0723 330.168 -41.4952 325.3 -14.4697 321.397C6.95242 318.292 30.228 315.9 54.8397 313.298C123.416 306.163 201.174 298.064 256.561 272.212C271.906 265.036 285.569 255.048 298.759 245.395C326.732 224.916 353.154 205.611 393.628 212.158C442.032 220.005 480.609 245.521 521.428 272.548C525.092 274.982 528.798 277.416 532.462 279.85L534.488 281.151C542.936 286.691 550.953 291.937 559.014 296.847C598.841 321.188 652.461 348.004 714.399 339.065C719.313 338.352 724.27 337.597 729.227 336.799C772.847 329.749 792.372 315.942 808.062 304.862C819.613 296.679 829.57 289.628 846.122 287.11C855.302 285.726 866.94 287.362 879.268 289.125C903.621 292.608 931.207 296.511 953.232 279.808C974.697 263.483 988.663 238.513 1002.15 214.34C1004.65 209.849 1007.15 205.401 1009.61 201.12C1015.82 190.419 1024.35 176.696 1035.64 165.574C1047.89 153.572 1060.9 145.556 1075.43 141.108C1096.76 134.561 1121.25 136.407 1144.48 138.8C1154.44 139.849 1163.32 141.318 1171.12 142.619C1173.79 143.08 1176.33 143.5 1178.75 143.878C1181.85 144.339 1184.65 144.885 1187.37 145.346C1201.07 147.78 1210.94 149.585 1228.23 142.87C1232.88 141.066 1238.23 138.59 1243.4 136.156C1253.62 131.371 1263.36 125.076 1272.8 119.033C1299.05 102.079 1323.87 86.0892 1359.26 99.8123C1384 109.423 1405.38 125.706 1426.07 141.485C1447.32 157.685 1467.41 173.003 1490.47 181.27C1503.4 185.886 1517.62 189.537 1532.71 193.398C1547.79 197.259 1563.35 201.246 1578.87 206.534C1590.29 210.437 1600.59 215.137 1609.65 219.25L1613.57 221.013C1620.64 224.202 1626.28 227.014 1631.41 229.784V226.972Z" fill="#91BFFF"/>
<path opacity="0.7" d="M1631.41 262.393C1626.41 261.176 1620.77 259.791 1613.48 257.566C1606.33 255.342 1598.53 252.279 1590.25 249.047C1586.24 247.494 1582.15 245.858 1577.84 244.221C1569.47 241.073 1561.07 238.01 1552.84 234.988C1530.29 226.763 1509 218.957 1491.63 210.899C1471.16 201.373 1453.23 185.971 1434.22 169.688C1413.27 151.726 1391.63 133.177 1365.51 121.972C1325.9 105.059 1295.3 124.28 1265.68 142.871C1259.05 147.068 1252.15 151.39 1245.38 155.125C1242.11 156.93 1239.05 158.693 1236.25 160.329C1234.48 161.378 1232.75 162.344 1231.16 163.267C1213.53 173.255 1206.59 173.549 1189.69 174.262L1188.23 174.304C1181.72 174.598 1174.01 174.262 1165.04 173.927C1161.51 173.801 1157.84 173.633 1153.96 173.507L1153.27 173.465C1129.35 172.709 1104.61 171.912 1083.45 180.012C1068.79 185.593 1056.51 194.616 1044.74 208.423C1034.78 220.09 1027.54 233.729 1021.21 246.655L1018.06 253.16C1005.26 279.599 990.689 309.563 966.292 326.014C941.896 342.465 911.724 334.03 887.457 327.231C878.104 324.63 869.311 322.153 862.113 321.524C841.51 319.677 830.174 324.839 813.019 332.645C797.372 339.738 777.89 348.593 742.718 356.189C737.804 357.238 732.891 358.329 727.934 359.42C678.365 370.541 629.875 361.225 570.651 329.204C561.858 324.462 553.324 319.384 543.066 313.298C537.117 309.731 531.169 306.122 525.264 302.513C485.006 277.878 446.946 254.629 399.232 247.746C359.879 242.039 333.672 259.581 305.957 278.13C293.328 286.566 280.268 295.295 265.914 301.59C210.915 325.637 135.14 333.317 68.2447 340.073C47.1243 342.214 27.1677 344.228 8.46109 346.662C-18.8661 350.229 -49.814 354.258 -72.6585 369.03C-73.9947 369.87 -75.2447 370.751 -76.4947 371.674C-93.0461 383.677 -103.175 399.498 -113.003 414.774C-117.615 421.993 -122.442 429.463 -127.83 436.471C-142.614 455.608 -160.459 469.457 -182.441 478.774C-209.165 490.063 -240.63 493.966 -271.061 497.701C-298.905 501.142 -327.741 504.667 -352.827 513.942C-356.189 515.201 -359.465 516.628 -362.611 518.223V521.034C-359.163 519.272 -355.629 517.593 -351.922 516.25C-327.138 507.101 -298.474 503.576 -270.759 500.177C-240.156 496.4 -208.476 492.497 -181.45 481.04C-159.08 471.555 -140.89 457.455 -125.804 437.982C-120.33 430.848 -115.503 423.336 -110.848 416.075C-100.718 400.296 -91.1496 385.356 -74.986 373.647C-73.7791 372.766 -72.5723 371.926 -71.2792 371.087C-48.9088 356.65 -18.2627 352.663 8.80588 349.138C27.4694 346.704 47.4261 344.69 68.5464 342.549C135.614 335.793 211.605 328.113 266.992 303.898C281.561 297.519 294.707 288.706 307.465 280.229C334.793 261.973 360.568 244.725 398.973 250.264C446.127 257.105 483.972 280.187 524.014 304.695C529.919 308.304 535.824 311.914 541.816 315.523C552.117 321.65 560.695 326.728 569.488 331.512C629.271 363.827 678.365 373.227 728.537 361.98C733.451 360.889 738.365 359.798 743.278 358.749C778.709 351.069 798.321 342.172 814.096 335.037C830.906 327.399 841.984 322.363 861.897 324.168C868.837 324.797 877.544 327.231 886.768 329.791C911.509 336.716 942.327 345.319 967.758 328.239C992.758 311.41 1007.41 281.152 1020.39 254.419L1023.53 247.956C1029.83 235.156 1036.94 221.727 1046.72 210.228C1058.19 196.757 1070.17 187.943 1084.39 182.53C1105.08 174.64 1129.57 175.437 1153.23 176.151L1153.92 176.193C1157.76 176.319 1161.46 176.445 1164.95 176.612C1173.96 176.99 1181.72 177.284 1188.32 176.99L1189.78 176.948C1206.59 176.235 1214.22 175.941 1232.41 165.659C1234.05 164.736 1235.73 163.729 1237.54 162.679C1240.34 161.043 1243.36 159.28 1246.63 157.476C1253.49 153.657 1260.38 149.334 1267.06 145.137C1296.12 126.882 1326.12 107.997 1364.48 124.406C1390.25 135.401 1411.76 153.866 1432.54 171.702C1451.67 188.111 1469.78 203.639 1490.55 213.291C1508.01 221.433 1529.34 229.197 1551.97 237.464C1560.21 240.486 1568.61 243.55 1576.97 246.697C1581.24 248.292 1585.34 249.929 1589.34 251.481C1597.66 254.755 1605.51 257.86 1612.79 260.085C1620.42 262.435 1626.33 263.862 1631.5 265.121V262.393H1631.41Z" fill="#91BFFF"/>
<path opacity="0.7" d="M1631.41 297.182C1626.2 297.644 1620.38 297.77 1612.32 296.343C1601.2 294.412 1588.79 289.502 1575.98 284.214C1547.67 272.59 1516.29 257.104 1491.98 242.835C1473.7 232.092 1457.71 216.648 1440.77 200.323C1419.82 180.095 1398.14 159.195 1370.86 146.437C1326.12 125.496 1288.1 150.424 1254.52 172.415L1248.45 176.401C1243.36 179.717 1238.96 183.032 1235 186.138L1231.81 188.614C1217.67 199.651 1212.93 203.386 1197.28 207.373C1188.49 209.639 1176.68 210.269 1163.27 210.814L1156.51 211.066C1134.35 211.864 1111.42 212.703 1092.33 221.432C1078.1 227.937 1066.51 238.009 1055.78 253.201C1046.85 265.833 1040.47 280.689 1035.17 293.615C1023.54 322.11 1009.05 357.614 980.993 374.275C952.458 391.272 918.924 376.206 894.399 365.21C888.623 362.608 883.149 360.174 878.537 358.538C850.736 348.633 837.201 353.04 804.529 363.616C792.159 367.644 776.728 372.639 756.685 378.094C751.513 379.521 746.685 380.906 741.944 382.333C690.522 397.987 640.911 392.237 581.084 363.784C572.119 359.545 563.153 354.761 552.378 348.927C544.274 344.521 536.171 339.904 528.326 335.456C488.715 313.004 451.302 291.768 404.621 285.851C367.467 281.151 341.863 296.553 314.752 312.878C302.64 320.18 290.097 327.692 276.52 333.232C220.788 355.852 145.875 363.07 79.7981 369.491C62.988 371.128 47.083 372.639 31.9108 374.401C5.96292 377.381 -23.4763 380.738 -45.545 392.741C-46.838 393.454 -48.088 394.168 -49.2949 394.881C-65.9326 404.995 -76.9669 418.382 -87.6133 431.308C-92.3116 437.016 -97.1391 442.891 -102.441 448.473C-117.484 464.378 -135.113 475.961 -156.319 483.893C-179.293 492.496 -205.801 496.441 -231.404 500.26C-260.844 504.624 -291.231 509.157 -316.576 520.782C-335.972 529.678 -350.455 544.283 -362.566 562.161V566.651C-350.282 547.682 -335.498 532.197 -315.498 523.048C-290.542 511.591 -260.283 507.1 -231.017 502.736C-205.241 498.917 -178.647 494.93 -155.371 486.243C-133.777 478.185 -115.846 466.392 -100.544 450.193C-95.1994 444.528 -90.3289 438.61 -85.5876 432.903C-74.5963 419.557 -64.2085 406.925 -47.9156 397.021C-46.7519 396.308 -45.545 395.594 -44.295 394.923C-22.6574 383.13 5.23016 379.941 32.2126 376.877C47.3847 375.157 63.2466 373.604 80.0567 371.967C146.306 365.546 221.434 358.286 277.511 335.54C291.304 329.958 303.89 322.362 316.088 315.018C342.812 298.945 368.027 283.753 404.319 288.327C450.526 294.161 487.723 315.27 527.119 337.596C534.964 342.045 543.068 346.661 551.214 351.068C561.99 356.943 571.041 361.727 580.05 366.008C640.48 394.797 690.695 400.547 742.763 384.725C747.504 383.298 752.332 381.913 757.461 380.486C777.59 374.989 793.021 369.995 805.434 365.966C838.451 355.264 850.822 351.277 877.761 360.846C882.287 362.441 887.675 364.875 893.407 367.435C918.45 378.64 952.717 394 982.372 376.374C1011.12 359.251 1025.78 323.369 1037.59 294.496C1042.8 281.696 1049.14 267.008 1057.89 254.586C1068.36 239.771 1079.65 229.951 1093.45 223.656C1112.07 215.137 1134.74 214.298 1156.68 213.5L1163.45 213.248C1177.02 212.703 1188.96 212.073 1198.02 209.765C1214.18 205.652 1219.44 201.54 1233.49 190.544L1236.68 188.068C1240.6 185.005 1244.95 181.731 1249.95 178.458L1256.03 174.471C1289.01 152.858 1326.42 128.307 1369.82 148.661C1396.72 161.251 1418.23 182.025 1439.05 202.085C1456.11 218.536 1472.24 234.106 1490.73 244.975C1515.12 259.328 1546.67 274.856 1575.08 286.523C1588.01 291.852 1600.6 296.846 1611.93 298.819C1620.12 300.246 1626.24 300.162 1631.5 299.7V297.182H1631.41Z" fill="#91BFFF"/>
<path opacity="0.7" d="M1631.41 331.302C1626.07 333.695 1620.04 335.667 1611.11 335.163C1598.53 334.492 1584.73 328.952 1574.09 324.21C1550.12 313.55 1522.58 296.89 1492.24 274.815C1476.16 263.106 1462.06 247.83 1447.15 231.631C1426.24 208.927 1404.61 185.468 1376.12 170.905C1328.44 146.606 1282.15 174.514 1251.46 197.638C1247.15 200.869 1242.97 204.563 1238.79 208.927C1233.83 214.089 1230.34 218.454 1227.24 222.315C1221.2 229.869 1216.81 235.324 1206.29 240.402C1197.33 244.767 1184.74 246.655 1172.46 247.998C1168.75 248.418 1164.96 248.796 1161.16 249.173C1140.26 251.23 1118.62 253.37 1101.03 262.771C1087.2 270.157 1076.25 281.32 1066.59 297.897C1059.14 310.697 1054.18 324.756 1048.92 340.451C1037.59 374.444 1023.23 407.934 995.518 422.455C961.596 440.248 923.364 414.649 900.519 399.331C898.493 397.988 896.597 396.687 894.787 395.554C857.546 371.213 842.546 376.165 770.521 399.96C765.608 401.597 760.651 403.36 755.78 405.206C702.505 425.602 651.773 423.462 591.3 398.282C580.739 393.875 570.309 388.839 561.472 384.474C551.343 379.438 541.3 374.151 531.602 368.989C492.551 348.341 455.655 328.826 409.75 323.916C374.751 320.139 349.665 333.485 323.157 347.586C311.605 353.755 299.666 360.092 286.864 364.834C228.977 386.363 153.332 393.162 86.6083 399.163C75.8326 400.128 65.2724 401.093 55.0571 402.059L53.8502 402.185C28.6781 404.619 2.51468 407.137 -18.5626 416.369C-19.8126 416.915 -21.0195 417.502 -22.2263 418.048C-39.1657 426.273 -50.6742 436.723 -62.8292 447.803C-67.3981 451.957 -72.0963 456.238 -77.0963 460.393C-92.3547 473.025 -109.768 482.383 -130.285 488.972C-149.121 495.015 -170.328 498.624 -190.802 502.15C-222.31 507.521 -254.896 513.103 -280.412 527.582C-314.808 547.054 -329.334 585.832 -344.679 626.917C-350.196 641.647 -355.842 656.714 -362.566 671.234V677.109C-354.808 661.036 -348.472 644.207 -342.308 627.756C-327.093 587.133 -312.74 548.733 -279.162 529.722C-253.99 515.495 -221.663 509.955 -190.371 504.584C-169.767 501.058 -148.475 497.407 -129.466 491.322C-108.648 484.649 -90.9754 475.123 -75.4153 462.281C-70.3722 458.084 -65.6309 453.804 -61.062 449.649C-49.0363 438.696 -37.6572 428.372 -21.0626 420.272C-19.8988 419.727 -18.6919 419.139 -17.485 418.636C3.20435 409.571 29.1523 407.053 54.2812 404.619L55.4881 404.493C65.6604 403.527 76.2206 402.562 86.9963 401.597C153.892 395.596 229.71 388.755 287.942 367.1C300.873 362.274 312.898 355.895 324.536 349.726C350.7 335.793 375.397 322.657 409.664 326.35C455.052 331.261 491.732 350.649 530.611 371.171C540.352 376.291 550.395 381.621 560.567 386.657C569.446 391.021 579.92 396.099 590.524 400.548C651.644 425.98 702.936 428.12 756.901 407.472C761.728 405.626 766.642 403.863 771.513 402.268C842.589 378.809 857.373 373.941 893.58 397.568C895.347 398.701 897.244 400.002 899.269 401.345C922.588 416.957 961.639 443.102 996.897 424.595C1025.39 409.655 1040 375.661 1051.51 341.165C1056.72 325.595 1061.59 311.662 1068.97 299.072C1078.36 282.915 1089.01 272.087 1102.41 264.911C1119.53 255.762 1140.9 253.664 1161.55 251.607C1165.39 251.23 1169.18 250.852 1172.89 250.432C1185.39 249.047 1198.23 247.117 1207.58 242.585C1218.62 237.213 1223.14 231.589 1229.39 223.783C1232.45 219.964 1235.95 215.642 1240.82 210.564C1244.91 206.325 1248.96 202.716 1253.19 199.527C1283.32 176.822 1328.7 149.376 1375.08 173.003C1403.18 187.356 1424.65 210.648 1445.43 233.184C1460.43 249.467 1474.61 264.869 1490.86 276.704C1521.33 298.904 1549 315.649 1573.14 326.392C1583.96 331.261 1598.05 336.884 1611.07 337.556C1619.95 338.017 1626.11 336.213 1631.5 333.946V331.302H1631.41Z" fill="#91BFFF"/>
<path opacity="0.7" d="M1631.41 364.624C1625.94 369.24 1619.73 373.437 1609.95 374.024C1599.43 374.654 1587.45 371.59 1572.23 364.246C1542.75 350.103 1514.17 326.098 1492.58 306.793C1478.74 294.413 1466.55 279.515 1453.66 263.693C1432.84 238.219 1411.33 211.906 1381.46 195.371C1336.55 170.527 1286.46 191.216 1254.57 218.915C1250.17 222.734 1246.29 226.93 1242.71 231.756C1237.32 239.059 1234.26 245.647 1231.55 251.439C1227.63 259.79 1224.26 266.967 1215.43 273.513C1206.46 280.102 1193.36 283.166 1181.72 285.264C1176.89 286.145 1171.94 286.901 1166.94 287.698C1146.94 290.804 1126.25 294.035 1109.91 304.107C1096.38 312.417 1086.12 324.629 1077.63 342.549C1071.08 356.356 1066.98 371.8 1063.06 386.74L1062.93 387.286C1055.26 416.201 1041.51 456.321 1010.3 470.674C982.501 483.474 950.088 471.009 911.209 432.61C874.959 396.812 853.667 394.966 784.573 421.824C779.702 423.713 774.745 425.811 769.831 428.077C714.746 453.467 662.936 454.894 601.773 432.82C592.894 429.63 583.067 425.559 570.826 420.062C558.757 414.606 546.904 408.773 535.438 403.107C496.818 384.012 460.353 366.008 415.095 361.98C382.121 359.084 357.553 370.331 331.562 382.292C320.657 387.286 309.364 392.489 297.467 396.476C233.761 417.796 149.969 424.258 82.6429 429.504L74.6688 430.134C51.8243 431.896 28.2471 433.701 8.46286 440.164C7.25598 440.542 6.0491 440.961 4.88531 441.381C-12.83 447.76 -25.6746 455.985 -39.2951 464.672C-43.3468 467.232 -47.3984 469.876 -51.7087 472.478C-67.0964 481.837 -84.2945 488.929 -104.208 494.217C-118.13 497.91 -133.389 500.722 -148.173 503.45C-182.655 509.829 -218.344 516.46 -244.292 534.547C-273.43 554.859 -283.861 589.86 -294.938 626.916C-301.964 650.418 -309.205 674.759 -321.619 696.455C-327.524 706.779 -334.334 715.844 -340.929 724.615L-343.084 727.511C-352.006 739.388 -358.299 749.292 -362.566 758.231V764.358C-362.523 764.316 -362.523 764.232 -362.523 764.19C-358.342 754.16 -351.532 742.955 -341.058 728.98L-338.903 726.084C-332.265 717.271 -325.369 708.122 -319.42 697.672C-306.834 675.724 -299.55 651.257 -292.524 627.588C-281.576 590.951 -271.275 556.328 -242.87 536.52C-217.396 518.768 -182.009 512.179 -147.785 505.842C-132.958 503.114 -117.656 500.26 -103.648 496.567C-83.4755 491.238 -66.062 484.019 -50.4587 474.535C-46.1484 471.933 -42.0536 469.289 -38.002 466.729C-24.5108 458.126 -11.7524 449.984 5.70428 443.689C6.86807 443.269 7.98871 442.85 9.19559 442.472C28.6781 436.093 52.126 434.288 74.7981 432.568L82.7722 431.938C150.228 426.734 234.236 420.23 298.2 398.785C310.226 394.756 321.562 389.552 332.553 384.516C358.242 372.723 382.509 361.602 414.793 364.414C459.577 368.359 495.827 386.278 534.231 405.247C545.697 410.913 557.593 416.788 569.705 422.244C581.989 427.784 591.903 431.854 600.825 435.086C662.678 457.454 715.134 455.943 770.866 430.26C775.737 428.035 780.65 425.937 785.435 424.049C857.33 396.099 875.433 400.799 909.312 434.288C949.053 473.527 982.415 486.16 1011.29 472.856C1043.45 458.084 1057.5 417.25 1065.3 387.873L1065.43 387.328C1069.35 372.513 1073.4 357.153 1079.87 343.556C1088.15 326.098 1098.1 314.221 1111.21 306.164C1127.11 296.385 1147.54 293.196 1167.28 290.09C1172.33 289.293 1177.33 288.538 1182.15 287.656C1194.09 285.516 1207.54 282.368 1216.89 275.444C1226.25 268.561 1229.74 261.091 1233.79 252.446C1236.46 246.739 1239.48 240.276 1244.7 233.183C1248.14 228.483 1251.89 224.412 1256.16 220.719C1287.37 193.609 1336.33 173.255 1380.12 197.47C1409.56 213.753 1430.94 239.898 1451.59 265.204C1464.56 281.067 1476.8 296.092 1490.77 308.598C1512.49 328.028 1541.24 352.159 1571.03 366.428C1586.67 373.982 1599.09 377.13 1610.04 376.458C1619.65 375.871 1625.9 372.136 1631.33 367.813V364.624H1631.41Z" fill="#91BFFF"/>
<path opacity="0.7" d="M1631.41 397.106C1625.64 404.492 1619.65 411.039 1608.83 412.886C1597.84 414.774 1585.29 411.92 1570.42 404.241C1541.16 389.216 1513.66 361.35 1492.92 338.772C1481.33 326.14 1471.03 311.871 1460.17 296.763C1439.56 268.184 1418.23 238.597 1386.85 219.796C1342.32 193.147 1288.19 209.85 1257.76 240.108C1253.45 244.347 1249.74 249.215 1246.76 254.545C1241.81 263.316 1239.7 271.457 1237.71 279.305C1235.08 289.545 1232.8 298.4 1224.74 306.542C1217.84 313.55 1207.76 318.292 1191.16 322.447C1185.47 323.874 1179.7 325.091 1173.62 326.392C1154.31 330.463 1134.31 334.659 1118.92 345.403C1105.69 354.594 1096.12 367.897 1088.75 387.202C1083.53 401.051 1080.52 416.201 1077.59 430.848L1076.94 434.079C1067.67 480.242 1050.22 508.738 1025.09 518.81C980.949 536.478 939.269 485.572 927.545 469.583C895.002 425.098 869.916 411.669 798.624 443.605C793.796 445.788 788.84 448.222 783.926 450.866C726.384 481.837 675.048 486.747 612.247 467.233C602.765 464.295 592.291 460.476 580.179 455.524C566.3 449.858 552.765 443.563 539.705 437.52C501.43 419.768 465.31 403.023 420.483 399.96C389.406 397.862 364.061 407.556 339.493 416.956C329.363 420.817 318.933 424.804 308.114 427.994C240.873 447.76 158.288 454.265 101.996 457.413L93.6339 457.874C73.8928 458.923 53.5052 460.014 35.6606 463.75C34.4968 464.001 33.3331 464.253 32.1693 464.505C11.9109 469.163 -3.73538 475.416 -20.2869 482.005L-26.1489 484.313C-41.321 490.315 -58.2605 495.183 -78.0447 499.212C-85.5446 500.722 -93.2169 502.149 -101.277 503.618C-140.587 510.794 -181.19 518.181 -208 541.304C-232.655 562.54 -239.594 594.812 -246.965 628.973C-252.482 654.615 -258.171 681.138 -271.835 704.304C-278.473 715.635 -286.662 725.161 -293.904 733.555C-306.188 747.823 -313.86 757.56 -319.55 766.079C-326.576 776.571 -329.851 785.761 -330.843 797.89C-331.748 808.927 -329.895 821.055 -327.783 835.114C-327.308 838.136 -326.834 841.241 -326.403 844.473C-323.602 863.987 -320.757 900.918 -333.257 929.414C-337.869 939.906 -344.463 948.886 -352.48 955.517C-355.713 958.958 -359.118 962.4 -362.523 965.799V969.366C-358.472 965.337 -354.549 961.351 -350.756 957.28C-342.524 950.523 -335.67 941.248 -330.929 930.379C-318.214 901.338 -321.059 863.862 -323.903 844.095C-324.377 840.864 -324.852 837.758 -325.283 834.737C-327.395 820.804 -329.205 808.801 -328.343 798.058C-327.395 786.391 -324.248 777.494 -317.438 767.38C-311.748 758.944 -304.162 749.292 -291.964 735.065C-284.68 726.588 -276.404 716.936 -269.68 705.437C-255.844 681.935 -250.068 655.244 -244.508 629.393C-237.267 595.651 -230.37 563.757 -206.362 543.067C-180.069 520.405 -139.768 513.061 -100.846 505.968C-92.7428 504.499 -85.1136 503.114 -77.5706 501.562C-57.657 497.533 -40.5452 492.623 -25.2437 486.538L-19.3817 484.229C-2.18369 477.389 12.6437 471.471 32.7296 466.855C33.8503 466.603 35.0141 466.352 36.1779 466.1C53.85 462.407 74.1515 461.315 93.7632 460.266L102.125 459.805C158.547 456.657 241.304 450.152 308.803 430.26C319.708 427.071 330.225 423.042 340.398 419.139C365.785 409.444 389.837 400.254 420.267 402.31C464.62 405.332 500.525 421.993 538.542 439.619C551.645 445.704 565.179 451.999 579.144 457.706C591.299 462.658 601.86 466.519 611.385 469.499C674.919 489.223 726.858 484.271 785.047 452.922C789.917 450.32 794.788 447.886 799.572 445.746C868.235 414.942 892.2 425.56 925.39 470.884C937.372 487.293 980.087 539.374 1025.95 520.992C1051.94 510.585 1069.91 481.46 1079.35 434.457L1080 431.225C1082.89 416.663 1085.9 401.597 1091.03 387.957C1098.19 369.114 1107.5 356.23 1120.3 347.291C1135.3 336.842 1155 332.687 1174.09 328.658C1179.95 327.441 1186.03 326.14 1191.77 324.713C1208.88 320.433 1219.26 315.481 1226.55 308.136C1235.08 299.491 1237.54 289.923 1240.17 279.767C1242.15 272.045 1244.18 264.113 1249.01 255.594C1251.89 250.474 1255.47 245.816 1259.61 241.703C1288.62 212.872 1342.67 196.043 1385.6 221.769C1416.55 240.276 1437.71 269.653 1458.18 298.022C1469.13 313.172 1479.43 327.525 1491.11 340.241C1511.98 362.987 1539.69 391.021 1569.3 406.255C1584.69 414.187 1597.79 417.124 1609.35 415.152C1619.78 413.389 1626.07 407.472 1631.5 400.925V397.106H1631.41Z" fill="#91BFFF"/>
<path opacity="0.7" d="M1608.35 454.096C1619.69 451.033 1625.98 442.597 1631.41 433.575V428.623C1625.47 438.946 1619.6 448.473 1607.66 451.704C1596.2 454.81 1583.35 452.376 1568.53 444.192C1545.98 431.812 1520.64 407.094 1493.18 370.708C1483.87 358.328 1475.47 345.108 1466.59 331.092C1446.2 298.903 1425.17 265.581 1392.11 244.262C1347.8 215.683 1288.4 230.035 1260.77 261.385C1256.59 266.127 1253.14 271.499 1250.6 277.374C1246.29 287.362 1245.17 297.14 1244.09 306.583C1242.76 318.459 1241.46 329.665 1233.83 339.653C1227.28 348.256 1216.94 354.425 1200.3 359.755C1193.96 361.769 1187.11 363.574 1180.52 365.336C1161.72 370.289 1142.28 375.409 1127.63 386.824C1114.61 396.98 1105.69 411.332 1099.61 431.98C1095.6 445.745 1093.53 460.559 1091.59 474.912L1090.73 480.997C1086.12 513.815 1073.49 555.404 1039.61 567.113C1000.95 580.501 963.751 542.898 943.579 506.681C913.278 452.124 883.364 429.42 812.417 465.553C807.59 468.029 802.676 470.799 797.762 473.821C738.582 510.248 686.126 518.599 622.463 501.855C612.334 499.169 601.472 495.728 589.317 491.195C573.67 485.404 558.628 478.815 544.059 472.478C506.042 455.859 470.137 440.163 425.655 438.149C396.13 436.806 370.742 444.486 346.13 451.872C337.165 454.558 327.898 457.37 318.502 459.72C261.347 473.989 192.684 483.054 125.228 485.236C119.194 485.446 113.073 485.572 106.996 485.697C92.1255 486.033 76.7809 486.369 62.6431 487.586L59.2811 487.88C38.1607 489.894 20.2299 492.454 -0.718079 496.483C-17.0109 499.588 -34.252 502.065 -52.0104 504.499C-97.9149 510.836 -145.026 519.397 -171.923 548.312C-192.655 570.596 -196.534 600.896 -200.629 633.001C-204.077 660.238 -207.698 688.439 -222.267 712.402C-228.301 722.349 -235.672 730.574 -244.853 739.849C-249.939 744.969 -254.68 749.627 -259.12 753.992C-264.594 759.363 -269.766 764.399 -274.378 769.226C-284.895 780.221 -290.929 789.663 -294.507 800.827C-298.99 814.76 -298.602 830.791 -297.74 848.795C-296.36 877.542 -296.404 907.506 -305.757 931.763C-309.852 942.213 -315.498 951.278 -322.653 958.79C-334.248 973.227 -348.084 987.159 -362.566 1000.8V1004.24C-347.351 990.013 -332.825 975.451 -320.714 960.385C-313.386 952.705 -307.567 943.388 -303.386 932.645C-293.86 907.968 -293.817 877.71 -295.24 848.711C-296.102 830.959 -296.447 815.137 -292.093 801.582C-288.645 790.755 -282.783 781.606 -272.568 770.904C-267.999 766.12 -262.826 761.084 -257.352 755.712C-252.87 751.348 -248.128 746.647 -243.042 741.527C-234.982 733.386 -226.62 724.363 -220.112 713.62C-205.241 689.237 -201.62 660.783 -198.129 633.295C-194.077 601.61 -190.284 571.688 -170.069 549.949C-143.733 521.663 -97.1391 513.186 -51.6656 506.891C-33.9072 504.457 -16.623 501.981 -0.243927 498.875C20.6179 494.888 38.5055 492.328 59.5397 490.314L62.9017 490.02C76.9533 488.803 92.2548 488.467 107.082 488.132C113.203 488.006 119.323 487.88 125.358 487.67C193.029 485.488 261.864 476.381 319.191 462.07C328.631 459.72 337.941 456.908 346.906 454.18C372.423 446.5 396.432 439.24 425.526 440.541C469.534 442.555 505.223 458.167 543.024 474.66C557.636 481.039 572.722 487.628 588.412 493.461C600.696 497.994 611.601 501.477 621.816 504.163C686.255 521.117 739.272 512.64 799.141 475.835C804.012 472.856 808.883 470.086 813.624 467.694C882.718 432.483 911.812 454.6 941.381 507.814C961.984 544.913 1000.3 583.27 1040.47 569.421C1075.56 557.293 1088.53 514.822 1093.23 481.333L1094.09 475.248C1096.08 460.979 1098.1 446.249 1102.07 432.651C1107.97 412.549 1116.64 398.616 1129.22 388.754C1143.45 377.633 1162.67 372.597 1181.2 367.729C1187.84 365.966 1194.7 364.161 1201.12 362.147C1212.67 358.454 1227.07 352.746 1235.9 341.206C1243.92 330.714 1245.26 319.173 1246.64 306.961C1247.71 297.686 1248.79 288.075 1252.97 278.423C1255.38 272.8 1258.66 267.638 1262.71 263.105C1289.65 232.553 1347.54 218.536 1390.73 246.444C1423.31 267.47 1444.26 300.54 1464.48 332.518C1472.97 345.948 1481.76 359.881 1491.16 372.303C1518.83 408.982 1544.43 433.91 1567.28 446.458C1582.75 454.894 1596.2 457.412 1608.35 454.096Z" fill="#91BFFF"/>
<path opacity="0.7" d="M1565.38 486.369C1580.73 495.308 1594.91 497.532 1607.45 492.916C1619.82 488.384 1626.03 477.053 1631.41 465.302V459.217C1631.29 459.51 1631.16 459.804 1631.03 460.098C1625.08 473.359 1619.43 485.866 1606.59 490.566C1594.6 494.972 1581.54 492.874 1566.72 484.187C1534.56 465.47 1504.82 420.985 1493.53 402.687C1486.46 391.23 1479.69 378.934 1473.14 367.015C1453.14 330.588 1432.45 292.944 1397.5 268.687C1356.46 240.234 1291.55 246.948 1263.92 282.578C1259.87 287.824 1256.72 293.699 1254.65 300.12C1251.03 311.158 1250.9 322.447 1250.77 333.4C1250.6 347.459 1250.43 360.762 1243.14 372.681C1236.89 382.921 1226.59 390.391 1209.65 396.938C1202.8 399.582 1195.39 401.89 1188.19 404.156C1169.7 409.948 1150.6 415.949 1136.51 428.119C1123.62 439.324 1115.39 454.726 1110.65 476.591C1107.71 490.188 1106.55 504.667 1105.43 518.642C1105.17 521.705 1104.96 524.727 1104.7 527.749C1102.8 550.159 1094.14 603.541 1054.31 615.249C1012.89 627.546 977.501 584.32 959.786 543.57C941.941 502.61 922.804 480.032 899.571 472.52C879.227 465.973 855.305 470.799 826.469 487.334C821.814 490.02 816.9 493.126 811.857 496.609C751.298 538.66 697.764 550.495 632.937 536.268C622.161 533.918 610.955 530.77 598.67 526.657C581.386 520.908 564.921 514.067 548.973 507.479C511.128 491.825 475.353 477.011 431.043 476.045C401.82 475.416 375.139 481.249 349.32 486.873C342.639 488.342 335.958 489.769 329.191 491.153C283.933 500.26 216.003 512.431 148.72 512.766C129.151 512.85 108.936 512.053 89.8843 511.172L86.6085 511.046C79.7551 510.752 73.1604 510.374 66.6518 509.997C52.471 509.199 39.066 508.486 24.9283 508.402C9.84232 508.318 -7.8299 508.276 -25.7607 509.493C-62.3981 511.927 -111.191 521.831 -135.587 555.111C-152.785 578.528 -153.905 608.828 -154.983 638.121C-156.061 666.533 -157.138 695.952 -172.397 720.209C-179.25 731.162 -188.388 739.681 -195.543 745.85C-203.474 752.733 -211.405 758.734 -219.034 764.526C-222.439 767.086 -225.758 769.604 -228.948 772.122C-239.637 780.473 -250.542 790.041 -257.826 803.555C-266.145 818.873 -268.042 836.331 -268.818 852.908C-269.033 857.524 -269.206 862.224 -269.378 867.009C-270.197 889.671 -271.016 913.088 -277.999 933.904C-281.447 944.06 -286.317 953.46 -292.524 961.854C-310.498 988.293 -336.144 1011.58 -362.351 1033.87V1037.14C-335.455 1014.31 -308.946 990.475 -290.455 963.239C-284.119 954.677 -279.119 945.025 -275.585 934.659C-268.473 913.55 -267.654 889.922 -266.835 867.092C-266.662 862.308 -266.49 857.608 -266.275 853.034C-265.499 836.75 -263.645 819.586 -255.542 804.73C-248.43 791.636 -237.784 782.277 -227.31 774.094C-224.12 771.576 -220.801 769.058 -217.396 766.498C-209.724 760.665 -201.793 754.663 -193.776 747.739C-186.491 741.444 -177.224 732.757 -170.155 721.509C-154.509 696.665 -153.431 666.953 -152.354 638.205C-151.233 607.947 -150.155 579.368 -133.432 556.538C-109.596 524.055 -61.5791 514.361 -25.502 511.969C-7.65747 510.794 9.9285 510.794 24.9714 510.878C39.066 510.962 52.4279 511.717 66.6088 512.473C73.1173 512.85 79.7551 513.186 86.6085 513.522L89.8843 513.648C108.936 514.529 129.151 515.326 148.849 515.242C216.305 514.907 284.451 502.694 329.795 493.587C336.562 492.245 343.286 490.776 349.967 489.307C376.82 483.432 402.164 477.892 431.086 478.521C474.922 479.445 510.439 494.175 548.111 509.745C564.102 516.376 580.61 523.216 597.981 529.008C610.351 533.12 621.644 536.31 632.506 538.66C698.109 553.055 752.246 541.052 813.452 498.582C818.452 495.14 823.322 492.077 827.891 489.433C856.08 473.318 879.313 468.533 898.925 474.87C921.424 482.131 940.088 504.247 957.631 544.535C975.777 586.208 1012.2 630.357 1055.22 617.6C1096.51 605.429 1105.43 550.872 1107.37 527.958C1107.63 524.937 1107.89 521.873 1108.1 518.81C1109.22 504.919 1110.39 490.524 1113.28 477.053C1117.93 455.733 1125.86 440.751 1138.32 429.924C1152.02 418.089 1170.86 412.214 1189.09 406.464C1196.33 404.198 1203.79 401.848 1210.73 399.204C1222.5 394.63 1237.11 387.663 1245.47 373.898C1253.1 361.392 1253.27 347.795 1253.45 333.4C1253.58 322.656 1253.7 311.535 1257.2 300.876C1259.18 294.749 1262.2 289.125 1266.07 284.089C1292.93 249.466 1356.16 242.961 1396.16 270.702C1430.64 294.623 1451.2 332.015 1471.03 368.191C1477.58 380.109 1484.35 392.447 1491.46 403.946C1505.47 426.944 1533.92 468.072 1565.38 486.369Z" fill="#91BFFF"/>
<path opacity="0.7" d="M1491.5 435.883C1497.11 447.005 1543.1 535.261 1590.68 535.219C1595.94 535.219 1601.29 534.128 1606.54 531.736C1620.12 525.567 1626.03 510.752 1631.46 496.022V488.72C1630.9 490.189 1630.38 491.699 1629.82 493.168C1624.13 508.738 1618.74 523.468 1605.51 529.47C1564.43 548.187 1515.98 478.732 1493.79 434.75C1488.87 425.014 1484.13 414.9 1479.52 405.08C1460.08 363.7 1439.95 320.894 1402.84 293.238C1375.99 273.22 1334.61 267.135 1302.24 278.424C1279.13 286.481 1263.66 302.303 1258.66 322.993C1255.77 334.995 1256.59 347.711 1257.37 360.007C1258.4 376.374 1259.44 391.818 1252.45 405.835C1242.07 426.609 1219.57 434.75 1195.73 443.354C1177.58 449.9 1158.88 456.699 1145.39 469.541C1120.69 493.084 1119.78 528.966 1118.92 563.673C1118.84 567.366 1118.75 571.017 1118.62 574.668C1118.02 592.756 1112.63 652.684 1068.97 663.554C1025.35 674.423 991.553 625.7 975.906 580.627C958.363 530.099 936.338 501.646 908.623 493.63C885.002 486.789 857.158 495.518 825.779 519.565C752.849 575.465 691.772 587.468 607.851 562.372C589.015 556.748 571.214 549.74 554.016 542.941C516.559 528.211 481.172 514.236 437.465 514.236C437.034 514.236 436.603 514.236 436.172 514.236C392.337 514.529 349.924 521.16 308.933 527.623C246.649 537.401 182.21 547.557 113.677 534.464C102.556 532.323 91.3065 529.763 80.4015 527.245C54.3674 521.244 27.4281 515.033 0.230194 514.781C-34.7262 514.487 -79.51 526.658 -99.5098 562.162C-113.389 586.796 -111.794 616.131 -110.285 644.501C-108.691 673.794 -107.096 704.052 -122.872 728.267C-134.595 746.27 -154.078 757.727 -172.957 768.807C-190.758 779.298 -209.206 790.126 -221.534 806.577C-238.603 829.281 -240.973 858.07 -243.258 885.936C-244.637 902.765 -246.059 920.139 -250.671 936.212C-265.671 988.545 -312.179 1024.09 -357.092 1058.5C-358.946 1059.89 -360.713 1061.32 -362.566 1062.7V1065.85C-360.239 1064.04 -357.911 1062.24 -355.541 1060.43C-310.283 1025.77 -263.473 989.972 -248.215 936.884C-243.559 920.601 -242.094 903.101 -240.715 886.146C-238.344 857.357 -236.103 830.204 -219.508 808.046C-207.482 792.014 -189.293 781.313 -171.664 770.947C-152.569 759.7 -132.785 748.075 -120.759 729.609C-104.553 704.723 -106.191 674.045 -107.786 644.375C-109.294 616.341 -110.846 587.342 -97.3115 563.337C-78.1308 529.302 -35.4158 517.257 -1.27838 517.257C-0.80426 517.257 -0.287048 517.257 0.187103 517.257C27.1264 517.551 53.8932 523.72 79.8412 529.679C90.7462 532.197 102.039 534.799 113.203 536.94C182.167 550.117 246.822 539.919 309.364 530.099C350.268 523.678 392.552 517.005 436.215 516.754C436.646 516.754 437.034 516.754 437.465 516.754C480.654 516.754 515.826 530.603 553.067 545.291C570.308 552.09 588.196 559.098 607.118 564.764C690.867 589.818 754.659 577.312 827.374 521.538C858.02 498.036 885.132 489.475 907.89 496.022C934.786 503.786 956.251 531.736 973.492 581.466C989.483 627.504 1024.22 677.235 1069.57 665.988C1114.96 654.699 1120.47 593.343 1121.12 574.794C1121.25 571.185 1121.33 567.491 1121.42 563.798C1122.28 529.595 1123.15 494.217 1147.11 471.345C1160.21 458.839 1178.7 452.167 1196.55 445.704C1220.86 436.891 1243.83 428.581 1254.65 406.926C1261.94 392.364 1260.86 375.829 1259.82 359.881C1259.05 347.753 1258.23 335.247 1261.03 323.58C1265.82 303.73 1280.69 288.538 1302.97 280.774C1334.61 269.737 1375 275.696 1401.2 295.253C1437.84 322.531 1457.8 365.043 1477.11 406.129C1481.8 415.949 1486.59 426.105 1491.5 435.883Z" fill="#91BFFF"/>
<path opacity="0.7" d="M738.581 -3.34139C750.434 3.49921 764.485 6.85656 777.201 5.84935C779.528 5.68149 781.77 5.34575 783.925 4.92608C792.33 3.20544 799.571 -0.403706 805.002 -5.7335C810.002 -10.6436 813.321 -16.6449 816.511 -22.4783C816.726 -22.8979 816.985 -23.3176 817.2 -23.6953H814.097C810.864 -17.778 807.804 -12.1964 803.063 -7.58004C796.683 -1.32698 787.675 2.40807 776.985 3.24741C764.873 4.21265 751.382 1.02317 740.003 -5.56563C732.288 -10.0141 724.874 -16.1413 717.762 -23.6953H714.012C721.727 -15.176 729.874 -8.33544 738.581 -3.34139Z" fill="#91BFFF"/>
</g>
</g>
</svg>
