<svg width="40" height="40" viewBox="0 0 40 40" fill="none" xmlns="http://www.w3.org/2000/svg">
<path d="M20 23.5766C21.9762 23.5766 23.5783 21.9746 23.5783 19.9983C23.5783 18.0221 21.9762 16.42 20 16.42C18.0237 16.42 16.4216 18.0221 16.4216 19.9983C16.4216 21.9746 18.0237 23.5766 20 23.5766Z" fill="black"/>
<path d="M7.52333 26.335C7.875 26.4517 8.22667 26.57 8.58667 26.6716C8.47 27.14 8.36833 27.6017 8.27333 28.0783C7.45333 32.415 8.09333 35.8517 10.14 37.0317C12.25 38.25 15.7967 37 19.25 33.9766C19.5233 33.735 19.7967 33.485 20.07 33.2183C20.4133 33.555 20.7733 33.875 21.1317 34.1866C24.475 37.0616 27.78 38.225 29.82 37.0466C31.93 35.8283 32.6167 32.1333 31.7267 27.6333C31.6545 27.2803 31.5762 26.9286 31.4917 26.5783C31.7417 26.5083 31.9833 26.43 32.2267 26.3517C36.735 24.86 40 22.445 40 19.9683C40 17.6017 36.9217 15.305 32.6717 13.8433C32.2522 13.7037 31.8305 13.5693 31.4067 13.4433C31.4767 13.155 31.54 12.865 31.6017 12.5767C32.5633 7.91999 31.93 4.17999 29.7967 2.94499C27.7417 1.76499 24.39 2.99165 21 5.94499C20.6633 6.23332 20.3367 6.53832 20.0233 6.84332C19.8109 6.63888 19.5947 6.43829 19.375 6.24165C15.82 3.08499 12.2583 1.75665 10.125 2.99999C8.07833 4.18832 7.46833 7.71165 8.32833 12.115C8.415 12.5533 8.50833 12.9817 8.61667 13.42C8.11667 13.56 7.625 13.7167 7.16333 13.8817C2.99167 15.3267 0 17.6083 0 19.9683C0 22.4067 3.18667 24.85 7.52333 26.335ZM18.1483 32.7C16.8602 33.8808 15.3667 34.8157 13.7417 35.4583C12.875 35.8717 11.875 35.9117 10.9833 35.56C9.74167 34.8417 9.225 32.0833 9.92833 28.3717C10.015 27.935 10.1083 27.4967 10.2167 27.0667C11.9667 27.4417 13.7317 27.7 15.5217 27.8316C16.5544 29.2944 17.6818 30.6879 18.8967 32.0033C18.6467 32.245 18.3967 32.48 18.1467 32.6983L18.1483 32.7ZM28.07 18.03C27.7054 17.3406 27.3275 16.6582 26.9367 15.9833C26.5533 15.32 26.155 14.6633 25.7417 14.015C27 14.1717 28.2033 14.3817 29.3283 14.64C28.9683 15.7912 28.5483 16.9227 28.07 18.03ZM28.085 21.92C28.585 23.0533 29.0233 24.2017 29.405 25.3817C28.1933 25.655 26.9683 25.8667 25.7333 26.0067C26.5758 24.679 27.3604 23.3155 28.085 21.92ZM27.1817 19.9767C26.1332 22.1337 24.9382 24.2164 23.605 26.21C22.4417 26.2966 21.23 26.335 20.0033 26.335C18.7767 26.335 17.59 26.2966 16.4417 26.225C15.0857 24.2462 13.8817 22.1675 12.84 20.0067H12.8367C13.8699 17.8487 15.0661 15.7727 16.415 13.7967C18.8028 13.6199 21.2005 13.6199 23.5883 13.7967C24.2517 14.7817 24.885 15.7883 25.4867 16.82C26.0867 17.853 26.652 18.9058 27.1817 19.9767ZM13.0533 15.9983C12.67 16.6617 12.295 17.34 11.9433 18.0283C11.4715 16.9143 11.0543 15.778 10.6933 14.6233C11.8183 14.3733 13.0133 14.17 14.255 14.0133C13.8433 14.6617 13.4367 15.325 13.0533 15.9983ZM11.945 21.9817C12.305 22.67 12.6717 23.35 13.0617 24.0217C13.46 24.7017 13.8667 25.3817 14.2967 26.045C13.079 25.9123 11.869 25.7165 10.6717 25.4583C11.015 24.3333 11.445 23.17 11.945 21.9817ZM20.0633 30.8C19.2271 29.8956 18.4372 28.9494 17.6967 27.965C19.2561 28.0288 20.8175 28.026 22.3767 27.9566C21.6584 28.9463 20.8862 29.8955 20.0633 30.8ZM30.275 33.1467C30.2384 33.6205 30.105 34.0817 29.8831 34.502C29.6613 34.9222 29.3556 35.2925 28.985 35.59C27.7433 36.3083 25.095 35.3716 22.235 32.9183C21.8985 32.6255 21.5679 32.326 21.2433 32.02C22.4372 30.7019 23.5387 29.303 24.54 27.8333C26.3331 27.6847 28.1135 27.4107 29.8683 27.0133C29.9467 27.3333 30.0167 27.6533 30.08 27.9667C30.4615 29.6668 30.5276 31.4226 30.275 33.1467ZM30.9533 15.0533C31.36 15.17 31.75 15.295 32.125 15.42C35.765 16.67 38.32 18.53 38.32 19.9517C38.32 21.4833 35.5933 23.46 31.695 24.7483C31.4767 24.8183 31.2583 24.8883 31.0317 24.9517C30.4809 23.247 29.8155 21.5815 29.04 19.9667C29.79 18.3733 30.4233 16.7317 30.9533 15.0533ZM22.1 7.20999C25.0083 4.67999 27.7183 3.68832 28.9533 4.39832C30.2733 5.15665 30.7817 8.21832 29.9533 12.2417C29.9012 12.504 29.8412 12.7646 29.7733 13.0233C28.0408 12.6312 26.2842 12.3545 24.515 12.195C23.5007 10.7379 22.3887 9.35141 21.1867 8.04499C21.4917 7.75665 21.7883 7.48332 22.1 7.20999ZM20.0167 9.24165C20.8367 10.1317 21.61 11.0683 22.3283 12.0367C20.7797 11.9667 19.2287 11.9667 17.68 12.0367C18.445 11.03 19.235 10.0933 20.0167 9.24165ZM10.9533 4.45332C12.2667 3.68832 15.18 4.78165 18.25 7.49999C18.445 7.67165 18.64 7.85999 18.8433 8.04665C17.6338 9.35162 16.514 10.737 15.4917 12.1933C13.726 12.3512 11.9723 12.6229 10.2417 13.0067C10.14 12.6083 10.055 12.2017 9.96833 11.795C9.23333 8.01332 9.71833 5.16332 10.9533 4.45332ZM7.71167 15.4667C8.15667 15.31 8.61 15.17 9.06333 15.0367C9.59448 16.7319 10.2336 18.3914 10.9767 20.005C10.2267 21.6383 9.57833 23.325 9.04 25.0433L9.03833 25.045C8.71285 24.9521 8.38995 24.8504 8.07 24.74C6.40667 24.2167 4.515 23.3883 3.14833 22.3033C2.7582 22.0335 2.42691 21.6872 2.17451 21.2856C1.92212 20.8839 1.75389 20.4352 1.68 19.9667C1.68 18.5366 4.14833 16.7083 7.71167 15.4667Z" fill="black"/>
</svg>
