<svg width="33" height="33" viewBox="0 0 33 33" fill="none" xmlns="http://www.w3.org/2000/svg">
<g clip-path="url(#clip0_2731_30058)">
<path d="M1.89171 13.5002C3.59241 14.3125 12.9843 18.0946 14.4566 18.8054C15.9288 19.5161 16.9949 19.5161 18.8733 18.5515C20.7517 17.5616 29.5852 13.9571 31.2859 13.0687C32.1489 12.6118 32.5297 12.2564 32.5297 11.9518V8.77885C32.5297 8.44886 32.0982 8.16964 31.2605 7.86504C29.6106 7.25583 20.8279 3.77828 19.1525 3.14369C17.4772 2.53449 16.7919 2.55987 14.8119 3.27061C12.832 3.98135 3.51626 7.63659 1.84094 8.29656C1.02867 8.62655 0.571763 8.90577 0.571763 9.23575H0.520996V12.4595C0.571763 12.7641 1.05405 13.0941 1.89171 13.5002ZM17.2234 13.9571L12.0705 11.8249L19.4571 10.6826L17.2234 13.9571ZM28.4175 8.88038L24.0516 10.6065L23.5693 10.7842L19.2033 9.05807L24.0516 7.1543L28.4175 8.88038ZM15.5735 5.70744L14.8627 4.38749L17.0965 5.25053L19.2033 4.56518L18.6449 5.93589L20.7771 6.74816L18.0103 7.02738L17.4011 8.52501L16.4111 6.87508L13.2128 6.59586L15.5735 5.70744ZM10.0652 7.56044C12.2482 7.56044 14.0251 8.24579 14.0251 9.08345C14.0251 9.92111 12.2482 10.6065 10.0652 10.6065C7.88223 10.6065 6.10538 9.92111 6.10538 9.08345C6.10538 8.24579 7.88223 7.56044 10.0652 7.56044ZM31.2859 15.3024C29.5852 16.1909 20.7771 19.8207 18.8987 20.7853C17.0203 21.7752 15.9796 21.7499 14.5073 21.0391C13.0351 20.3284 3.59241 16.5462 1.91709 15.7339C1.05405 15.3278 0.571763 14.9978 0.571763 14.6678V17.8916C0.571763 18.2215 1.05405 18.5515 1.89171 18.9577C3.59241 19.7699 12.9843 23.5521 14.4566 24.2628C15.9288 24.9736 16.9949 24.9736 18.8733 24.009C20.7517 23.019 29.5852 19.4146 31.2859 18.5261C32.1489 18.0692 32.5297 17.7139 32.5297 17.4093V14.2363C32.5297 14.5155 32.1235 14.8709 31.2859 15.3024ZM31.2859 20.5568C29.5852 21.4453 20.7771 25.0751 18.8987 26.0397C17.0203 27.0296 15.9796 27.0043 14.5073 26.2935C13.0351 25.5828 3.59241 21.8006 1.91709 20.9883C1.05405 20.6076 0.571763 20.2522 0.571763 19.9222V23.146C0.571763 23.4759 1.05405 23.8059 1.89171 24.2121C3.59241 25.0243 12.9843 28.8065 14.4566 29.5172C15.9288 30.228 16.9949 30.228 18.8733 29.2634C20.7517 28.2734 29.5852 24.669 31.2859 23.7805C32.1489 23.3236 32.5297 22.9683 32.5297 22.6637V19.4907C32.5297 19.7953 32.1235 20.1253 31.2859 20.5568Z" fill="#D82C20"/>
</g>
<defs>
<clipPath id="clip0_2731_30058">
<rect width="32.491" height="32.491" fill="white" transform="translate(0.317871 0.123047)"/>
</clipPath>
</defs>
</svg>
